G04 EAGLE Gerber RS-274X export*
G75*
%MOMM*%
%FSLAX34Y34*%
%LPD*%
%INTop Solder Mask*%
%IPPOS*%
%AMOC8*
5,1,8,0,0,1.08239X$1,22.5*%
G01*
%ADD10C,1.001600*%
%ADD11C,1.501600*%
%ADD12R,2.501600X2.501600*%
%ADD13R,0.901600X1.341600*%
%ADD14R,1.261600X1.301600*%
%ADD15R,1.051600X2.601600*%
%ADD16R,1.251600X2.301600*%
%ADD17R,1.601600X1.251600*%
%ADD18R,1.261600X1.351600*%
%ADD19C,0.493463*%
%ADD20C,0.286600*%
%ADD21R,0.601600X3.601600*%
%ADD22R,2.501600X0.501600*%
%ADD23C,1.981200*%
%ADD24C,1.320800*%
%ADD25C,1.301600*%
%ADD26C,2.701600*%
%ADD27C,3.901600*%
%ADD28C,2.301600*%
%ADD29C,3.601600*%
%ADD30R,0.400000X1.400000*%
%ADD31R,1.900000X2.350000*%
%ADD32C,0.751600*%
%ADD33C,0.808000*%
%ADD34C,1.117600*%

G36*
X130532Y256485D02*
X130532Y256485D01*
X130630Y256482D01*
X130705Y256497D01*
X130781Y256503D01*
X130926Y256542D01*
X130972Y256552D01*
X130989Y256560D01*
X131017Y256567D01*
X135571Y258209D01*
X135611Y258229D01*
X135758Y258291D01*
X140051Y260529D01*
X140088Y260553D01*
X140225Y260635D01*
X144180Y263427D01*
X144214Y263456D01*
X144339Y263555D01*
X147885Y266851D01*
X147914Y266885D01*
X148025Y267000D01*
X151098Y270741D01*
X151113Y270764D01*
X151131Y270783D01*
X151155Y270823D01*
X151217Y270907D01*
X153761Y275026D01*
X153780Y275066D01*
X153856Y275206D01*
X155827Y279628D01*
X155840Y279671D01*
X155897Y279820D01*
X157258Y284466D01*
X157265Y284510D01*
X157302Y284665D01*
X158028Y289452D01*
X158030Y289496D01*
X158045Y289655D01*
X158124Y294496D01*
X158120Y294540D01*
X158118Y294594D01*
X158119Y294610D01*
X158117Y294627D01*
X158114Y294700D01*
X157545Y299507D01*
X157535Y299550D01*
X157507Y299708D01*
X156299Y304396D01*
X156283Y304438D01*
X156235Y304590D01*
X154411Y309074D01*
X154360Y309168D01*
X154317Y309266D01*
X154276Y309320D01*
X154244Y309380D01*
X154172Y309459D01*
X154108Y309545D01*
X154056Y309589D01*
X154011Y309639D01*
X153923Y309701D01*
X153842Y309770D01*
X153781Y309800D01*
X153726Y309839D01*
X153626Y309879D01*
X153531Y309928D01*
X153465Y309944D01*
X153402Y309969D01*
X153297Y309985D01*
X153193Y310011D01*
X153125Y310012D01*
X153058Y310022D01*
X152951Y310014D01*
X152844Y310015D01*
X152778Y310001D01*
X152710Y309995D01*
X152608Y309963D01*
X152504Y309940D01*
X152422Y309904D01*
X152378Y309890D01*
X152344Y309870D01*
X152280Y309842D01*
X147247Y307141D01*
X142034Y305012D01*
X136626Y303439D01*
X131084Y302439D01*
X125388Y302019D01*
X125281Y301999D01*
X125172Y301988D01*
X125110Y301966D01*
X125046Y301954D01*
X124946Y301910D01*
X124842Y301874D01*
X124787Y301839D01*
X124727Y301813D01*
X124640Y301747D01*
X124547Y301689D01*
X124501Y301642D01*
X124449Y301602D01*
X124379Y301519D01*
X124302Y301441D01*
X124268Y301385D01*
X124226Y301335D01*
X124177Y301237D01*
X124120Y301144D01*
X124099Y301082D01*
X124069Y301023D01*
X124044Y300917D01*
X124009Y300813D01*
X123998Y300728D01*
X123988Y300684D01*
X123988Y300644D01*
X123978Y300571D01*
X123477Y289804D01*
X123481Y289754D01*
X123479Y289638D01*
X124152Y278881D01*
X124161Y278832D01*
X124172Y278716D01*
X126013Y268096D01*
X126027Y268048D01*
X126050Y267934D01*
X129036Y257578D01*
X129066Y257508D01*
X129086Y257434D01*
X129133Y257347D01*
X129171Y257256D01*
X129215Y257195D01*
X129251Y257128D01*
X129317Y257054D01*
X129374Y256974D01*
X129432Y256924D01*
X129482Y256867D01*
X129563Y256810D01*
X129637Y256745D01*
X129704Y256709D01*
X129766Y256665D01*
X129858Y256628D01*
X129945Y256581D01*
X130019Y256562D01*
X130089Y256533D01*
X130187Y256518D01*
X130282Y256492D01*
X130358Y256490D01*
X130433Y256478D01*
X130532Y256485D01*
G37*
G36*
X153055Y427986D02*
X153055Y427986D01*
X153162Y427985D01*
X153228Y428000D01*
X153296Y428006D01*
X153398Y428038D01*
X153502Y428062D01*
X153563Y428091D01*
X153628Y428112D01*
X153719Y428167D01*
X153816Y428214D01*
X153868Y428256D01*
X153927Y428291D01*
X154003Y428365D01*
X154087Y428433D01*
X154128Y428486D01*
X154177Y428533D01*
X154235Y428623D01*
X154301Y428708D01*
X154341Y428787D01*
X154366Y428826D01*
X154379Y428864D01*
X154411Y428926D01*
X156235Y433410D01*
X156247Y433453D01*
X156299Y433604D01*
X157507Y438292D01*
X157512Y438324D01*
X157518Y438344D01*
X157520Y438370D01*
X157545Y438493D01*
X158114Y443300D01*
X158114Y443345D01*
X158124Y443504D01*
X158045Y448345D01*
X158039Y448389D01*
X158028Y448548D01*
X157302Y453335D01*
X157290Y453378D01*
X157258Y453534D01*
X155897Y458180D01*
X155880Y458221D01*
X155827Y458372D01*
X153856Y462794D01*
X153834Y462832D01*
X153761Y462974D01*
X151217Y467093D01*
X151189Y467128D01*
X151098Y467259D01*
X148025Y471000D01*
X147993Y471031D01*
X147885Y471149D01*
X144339Y474445D01*
X144303Y474471D01*
X144180Y474574D01*
X143697Y474915D01*
X140225Y477365D01*
X140186Y477386D01*
X140051Y477471D01*
X135758Y479709D01*
X135716Y479724D01*
X135571Y479791D01*
X131017Y481433D01*
X130943Y481450D01*
X130872Y481477D01*
X130774Y481490D01*
X130678Y481513D01*
X130602Y481513D01*
X130526Y481523D01*
X130428Y481513D01*
X130329Y481514D01*
X130255Y481497D01*
X130179Y481489D01*
X130086Y481457D01*
X129989Y481435D01*
X129921Y481402D01*
X129849Y481377D01*
X129766Y481325D01*
X129677Y481282D01*
X129618Y481233D01*
X129553Y481193D01*
X129484Y481124D01*
X129407Y481061D01*
X129360Y481001D01*
X129307Y480947D01*
X129255Y480863D01*
X129194Y480785D01*
X129163Y480715D01*
X129123Y480651D01*
X129070Y480510D01*
X129050Y480467D01*
X129047Y480449D01*
X129036Y480422D01*
X126050Y470066D01*
X126042Y470016D01*
X126013Y469904D01*
X124172Y459284D01*
X124169Y459234D01*
X124152Y459119D01*
X123479Y448362D01*
X123481Y448312D01*
X123477Y448196D01*
X123978Y437429D01*
X123996Y437321D01*
X124004Y437212D01*
X124024Y437150D01*
X124034Y437085D01*
X124076Y436984D01*
X124109Y436880D01*
X124142Y436824D01*
X124167Y436763D01*
X124230Y436674D01*
X124286Y436580D01*
X124331Y436533D01*
X124369Y436479D01*
X124451Y436407D01*
X124527Y436328D01*
X124582Y436292D01*
X124631Y436249D01*
X124727Y436197D01*
X124819Y436138D01*
X124880Y436115D01*
X124938Y436084D01*
X125044Y436056D01*
X125146Y436018D01*
X125231Y436005D01*
X125275Y435994D01*
X125316Y435992D01*
X125388Y435981D01*
X131084Y435561D01*
X136626Y434561D01*
X142034Y432988D01*
X142835Y432661D01*
X146564Y431138D01*
X147247Y430859D01*
X152280Y428158D01*
X152379Y428118D01*
X152475Y428070D01*
X152541Y428054D01*
X152604Y428029D01*
X152709Y428013D01*
X152813Y427988D01*
X152881Y427988D01*
X152948Y427978D01*
X153055Y427986D01*
G37*
G36*
X53571Y370978D02*
X53571Y370978D01*
X53679Y370996D01*
X53788Y371004D01*
X53850Y371024D01*
X53915Y371034D01*
X54016Y371076D01*
X54120Y371109D01*
X54176Y371142D01*
X54237Y371167D01*
X54326Y371230D01*
X54420Y371286D01*
X54467Y371331D01*
X54521Y371369D01*
X54593Y371451D01*
X54672Y371527D01*
X54708Y371582D01*
X54751Y371631D01*
X54803Y371727D01*
X54862Y371819D01*
X54885Y371880D01*
X54916Y371938D01*
X54944Y372044D01*
X54982Y372146D01*
X54995Y372231D01*
X55007Y372275D01*
X55008Y372316D01*
X55019Y372388D01*
X55439Y378084D01*
X56439Y383626D01*
X58012Y389034D01*
X60141Y394247D01*
X62842Y399280D01*
X62882Y399379D01*
X62930Y399475D01*
X62946Y399541D01*
X62971Y399604D01*
X62987Y399709D01*
X63012Y399813D01*
X63012Y399881D01*
X63022Y399948D01*
X63014Y400055D01*
X63015Y400162D01*
X63000Y400228D01*
X62994Y400296D01*
X62962Y400398D01*
X62938Y400502D01*
X62909Y400563D01*
X62888Y400628D01*
X62833Y400719D01*
X62786Y400816D01*
X62744Y400868D01*
X62709Y400927D01*
X62635Y401003D01*
X62567Y401087D01*
X62514Y401128D01*
X62467Y401177D01*
X62377Y401235D01*
X62292Y401301D01*
X62213Y401341D01*
X62174Y401366D01*
X62136Y401379D01*
X62074Y401411D01*
X59767Y402349D01*
X57590Y403235D01*
X57547Y403247D01*
X57396Y403299D01*
X52708Y404507D01*
X52664Y404513D01*
X52507Y404545D01*
X47700Y405114D01*
X47655Y405114D01*
X47496Y405124D01*
X42655Y405045D01*
X42611Y405039D01*
X42452Y405028D01*
X37665Y404302D01*
X37622Y404290D01*
X37466Y404258D01*
X32820Y402897D01*
X32779Y402880D01*
X32628Y402827D01*
X28206Y400856D01*
X28168Y400834D01*
X28026Y400761D01*
X23907Y398217D01*
X23872Y398189D01*
X23741Y398098D01*
X20000Y395025D01*
X19969Y394993D01*
X19851Y394885D01*
X16555Y391339D01*
X16529Y391303D01*
X16456Y391216D01*
X16445Y391204D01*
X16440Y391197D01*
X16427Y391180D01*
X13635Y387225D01*
X13614Y387186D01*
X13529Y387051D01*
X11291Y382758D01*
X11276Y382716D01*
X11209Y382571D01*
X9567Y378017D01*
X9550Y377943D01*
X9523Y377872D01*
X9510Y377774D01*
X9487Y377678D01*
X9487Y377602D01*
X9477Y377526D01*
X9487Y377428D01*
X9486Y377329D01*
X9504Y377255D01*
X9511Y377179D01*
X9543Y377086D01*
X9565Y376989D01*
X9598Y376921D01*
X9623Y376849D01*
X9675Y376766D01*
X9718Y376677D01*
X9767Y376618D01*
X9807Y376553D01*
X9876Y376484D01*
X9939Y376407D01*
X9999Y376360D01*
X10053Y376307D01*
X10137Y376255D01*
X10215Y376194D01*
X10285Y376163D01*
X10349Y376123D01*
X10490Y376070D01*
X10533Y376050D01*
X10551Y376047D01*
X10578Y376036D01*
X20934Y373050D01*
X20984Y373042D01*
X21096Y373013D01*
X31716Y371172D01*
X31766Y371169D01*
X31881Y371152D01*
X42638Y370479D01*
X42688Y370481D01*
X42804Y370477D01*
X53571Y370978D01*
G37*
G36*
X201345Y332955D02*
X201345Y332955D01*
X201389Y332961D01*
X201548Y332972D01*
X206335Y333698D01*
X206378Y333710D01*
X206534Y333742D01*
X211180Y335103D01*
X211221Y335120D01*
X211372Y335173D01*
X215794Y337144D01*
X215832Y337166D01*
X215974Y337239D01*
X220093Y339784D01*
X220128Y339811D01*
X220259Y339902D01*
X224000Y342975D01*
X224031Y343007D01*
X224149Y343115D01*
X227445Y346661D01*
X227471Y346697D01*
X227574Y346820D01*
X230365Y350775D01*
X230386Y350814D01*
X230471Y350949D01*
X232709Y355242D01*
X232724Y355284D01*
X232791Y355429D01*
X234433Y359983D01*
X234450Y360057D01*
X234477Y360128D01*
X234490Y360226D01*
X234513Y360322D01*
X234513Y360399D01*
X234523Y360474D01*
X234513Y360572D01*
X234514Y360671D01*
X234497Y360745D01*
X234489Y360821D01*
X234457Y360914D01*
X234435Y361011D01*
X234402Y361079D01*
X234377Y361151D01*
X234325Y361234D01*
X234282Y361323D01*
X234233Y361382D01*
X234193Y361447D01*
X234124Y361516D01*
X234061Y361593D01*
X234001Y361640D01*
X233947Y361693D01*
X233863Y361745D01*
X233785Y361806D01*
X233715Y361837D01*
X233651Y361877D01*
X233510Y361930D01*
X233467Y361950D01*
X233449Y361953D01*
X233422Y361964D01*
X223066Y364950D01*
X223016Y364958D01*
X222904Y364987D01*
X212284Y366828D01*
X212234Y366831D01*
X212119Y366848D01*
X201362Y367521D01*
X201312Y367519D01*
X201196Y367523D01*
X190429Y367022D01*
X190321Y367004D01*
X190212Y366996D01*
X190150Y366976D01*
X190085Y366966D01*
X189984Y366924D01*
X189880Y366891D01*
X189824Y366858D01*
X189763Y366833D01*
X189674Y366770D01*
X189580Y366714D01*
X189533Y366669D01*
X189479Y366631D01*
X189407Y366549D01*
X189328Y366473D01*
X189292Y366418D01*
X189249Y366369D01*
X189197Y366273D01*
X189138Y366181D01*
X189115Y366120D01*
X189084Y366062D01*
X189056Y365956D01*
X189018Y365854D01*
X189005Y365769D01*
X188994Y365725D01*
X188992Y365685D01*
X188981Y365612D01*
X188561Y359916D01*
X187561Y354374D01*
X185988Y348966D01*
X183859Y343753D01*
X181158Y338720D01*
X181118Y338621D01*
X181070Y338525D01*
X181054Y338460D01*
X181029Y338396D01*
X181013Y338291D01*
X180988Y338187D01*
X180988Y338119D01*
X180978Y338052D01*
X180986Y337945D01*
X180985Y337838D01*
X181000Y337772D01*
X181006Y337704D01*
X181038Y337602D01*
X181062Y337498D01*
X181091Y337437D01*
X181112Y337372D01*
X181167Y337281D01*
X181214Y337184D01*
X181256Y337132D01*
X181291Y337073D01*
X181365Y336997D01*
X181433Y336913D01*
X181486Y336872D01*
X181533Y336823D01*
X181623Y336765D01*
X181708Y336699D01*
X181787Y336659D01*
X181826Y336634D01*
X181864Y336621D01*
X181926Y336589D01*
X183285Y336036D01*
X186410Y334765D01*
X186453Y334753D01*
X186604Y334701D01*
X191292Y333493D01*
X191336Y333487D01*
X191493Y333455D01*
X196300Y332886D01*
X196345Y332886D01*
X196504Y332876D01*
X201345Y332955D01*
G37*
G36*
X201246Y370481D02*
X201246Y370481D01*
X201362Y370479D01*
X212119Y371152D01*
X212168Y371161D01*
X212284Y371172D01*
X222904Y373013D01*
X222952Y373027D01*
X223066Y373050D01*
X233422Y376036D01*
X233492Y376066D01*
X233566Y376086D01*
X233653Y376133D01*
X233744Y376171D01*
X233805Y376215D01*
X233872Y376251D01*
X233946Y376317D01*
X234026Y376374D01*
X234076Y376432D01*
X234133Y376482D01*
X234190Y376563D01*
X234255Y376637D01*
X234291Y376704D01*
X234335Y376766D01*
X234372Y376858D01*
X234419Y376945D01*
X234438Y377019D01*
X234467Y377089D01*
X234482Y377187D01*
X234508Y377282D01*
X234510Y377358D01*
X234522Y377433D01*
X234515Y377532D01*
X234518Y377630D01*
X234503Y377705D01*
X234497Y377781D01*
X234458Y377926D01*
X234448Y377972D01*
X234440Y377989D01*
X234433Y378017D01*
X232791Y382571D01*
X232771Y382611D01*
X232709Y382758D01*
X230471Y387051D01*
X230447Y387088D01*
X230365Y387225D01*
X227574Y391180D01*
X227544Y391214D01*
X227500Y391269D01*
X227489Y391285D01*
X227484Y391289D01*
X227445Y391339D01*
X224149Y394885D01*
X224115Y394914D01*
X224000Y395025D01*
X220259Y398098D01*
X220222Y398122D01*
X220093Y398217D01*
X215974Y400761D01*
X215934Y400780D01*
X215794Y400856D01*
X211372Y402827D01*
X211329Y402840D01*
X211180Y402897D01*
X206534Y404258D01*
X206490Y404265D01*
X206335Y404302D01*
X201548Y405028D01*
X201504Y405030D01*
X201345Y405045D01*
X196504Y405124D01*
X196460Y405120D01*
X196300Y405114D01*
X191493Y404545D01*
X191450Y404535D01*
X191292Y404507D01*
X186604Y403299D01*
X186562Y403283D01*
X186410Y403235D01*
X181926Y401411D01*
X181832Y401360D01*
X181734Y401317D01*
X181680Y401276D01*
X181620Y401244D01*
X181541Y401172D01*
X181455Y401108D01*
X181411Y401056D01*
X181361Y401011D01*
X181299Y400923D01*
X181230Y400842D01*
X181200Y400781D01*
X181161Y400726D01*
X181121Y400626D01*
X181072Y400531D01*
X181056Y400465D01*
X181031Y400402D01*
X181015Y400297D01*
X180989Y400193D01*
X180988Y400125D01*
X180978Y400058D01*
X180986Y399951D01*
X180985Y399844D01*
X180999Y399778D01*
X181005Y399710D01*
X181037Y399608D01*
X181060Y399504D01*
X181096Y399422D01*
X181110Y399378D01*
X181130Y399344D01*
X181158Y399280D01*
X182288Y397174D01*
X182288Y397173D01*
X183106Y395650D01*
X183859Y394247D01*
X185988Y389034D01*
X187561Y383626D01*
X188561Y378084D01*
X188981Y372388D01*
X189001Y372281D01*
X189013Y372172D01*
X189034Y372110D01*
X189046Y372046D01*
X189090Y371946D01*
X189126Y371842D01*
X189161Y371787D01*
X189187Y371727D01*
X189253Y371640D01*
X189311Y371547D01*
X189358Y371501D01*
X189398Y371449D01*
X189481Y371379D01*
X189559Y371302D01*
X189615Y371268D01*
X189665Y371226D01*
X189763Y371177D01*
X189856Y371120D01*
X189918Y371099D01*
X189977Y371069D01*
X190083Y371044D01*
X190187Y371009D01*
X190272Y370998D01*
X190316Y370988D01*
X190356Y370988D01*
X190429Y370978D01*
X201196Y370477D01*
X201246Y370481D01*
G37*
G36*
X113572Y256487D02*
X113572Y256487D01*
X113671Y256486D01*
X113745Y256504D01*
X113821Y256511D01*
X113914Y256543D01*
X114011Y256565D01*
X114079Y256598D01*
X114151Y256623D01*
X114234Y256675D01*
X114323Y256718D01*
X114382Y256767D01*
X114447Y256807D01*
X114516Y256876D01*
X114593Y256939D01*
X114640Y256999D01*
X114693Y257053D01*
X114745Y257137D01*
X114806Y257215D01*
X114837Y257285D01*
X114877Y257349D01*
X114930Y257490D01*
X114950Y257533D01*
X114953Y257551D01*
X114964Y257578D01*
X117950Y267934D01*
X117958Y267984D01*
X117987Y268096D01*
X119828Y278716D01*
X119831Y278766D01*
X119848Y278881D01*
X120521Y289638D01*
X120519Y289688D01*
X120523Y289804D01*
X120022Y300571D01*
X120004Y300679D01*
X119996Y300788D01*
X119976Y300850D01*
X119966Y300915D01*
X119924Y301016D01*
X119891Y301120D01*
X119858Y301176D01*
X119833Y301237D01*
X119770Y301326D01*
X119714Y301420D01*
X119669Y301467D01*
X119631Y301521D01*
X119549Y301593D01*
X119473Y301672D01*
X119418Y301708D01*
X119369Y301751D01*
X119273Y301803D01*
X119181Y301862D01*
X119120Y301885D01*
X119062Y301916D01*
X118956Y301944D01*
X118854Y301982D01*
X118769Y301995D01*
X118725Y302007D01*
X118685Y302008D01*
X118612Y302019D01*
X112916Y302439D01*
X107374Y303439D01*
X101966Y305012D01*
X101735Y305106D01*
X98006Y306630D01*
X96753Y307141D01*
X91720Y309842D01*
X91621Y309882D01*
X91525Y309930D01*
X91460Y309946D01*
X91396Y309971D01*
X91291Y309987D01*
X91187Y310012D01*
X91119Y310012D01*
X91052Y310022D01*
X90945Y310014D01*
X90838Y310015D01*
X90772Y310000D01*
X90704Y309994D01*
X90602Y309962D01*
X90498Y309938D01*
X90437Y309909D01*
X90372Y309888D01*
X90281Y309833D01*
X90184Y309786D01*
X90132Y309744D01*
X90073Y309709D01*
X89997Y309635D01*
X89913Y309567D01*
X89872Y309514D01*
X89823Y309467D01*
X89765Y309377D01*
X89699Y309292D01*
X89659Y309213D01*
X89634Y309174D01*
X89621Y309136D01*
X89589Y309074D01*
X87765Y304590D01*
X87753Y304547D01*
X87701Y304396D01*
X86493Y299708D01*
X86487Y299664D01*
X86455Y299507D01*
X85886Y294700D01*
X85886Y294655D01*
X85876Y294496D01*
X85955Y289655D01*
X85961Y289611D01*
X85972Y289452D01*
X86698Y284665D01*
X86710Y284622D01*
X86742Y284466D01*
X88103Y279820D01*
X88120Y279779D01*
X88173Y279628D01*
X90144Y275206D01*
X90166Y275168D01*
X90239Y275026D01*
X92784Y270907D01*
X92811Y270872D01*
X92902Y270741D01*
X95975Y267000D01*
X96007Y266969D01*
X96115Y266851D01*
X99661Y263555D01*
X99697Y263529D01*
X99820Y263427D01*
X100633Y262853D01*
X103775Y260635D01*
X103814Y260614D01*
X103949Y260529D01*
X108242Y258291D01*
X108284Y258276D01*
X108429Y258209D01*
X112983Y256567D01*
X113057Y256550D01*
X113128Y256523D01*
X113226Y256510D01*
X113322Y256487D01*
X113399Y256487D01*
X113474Y256477D01*
X113572Y256487D01*
G37*
G36*
X91049Y427986D02*
X91049Y427986D01*
X91156Y427985D01*
X91222Y427999D01*
X91290Y428005D01*
X91392Y428037D01*
X91496Y428060D01*
X91578Y428096D01*
X91622Y428110D01*
X91656Y428130D01*
X91720Y428158D01*
X96753Y430859D01*
X101966Y432988D01*
X107374Y434561D01*
X112916Y435561D01*
X118612Y435981D01*
X118720Y436001D01*
X118828Y436013D01*
X118890Y436034D01*
X118954Y436046D01*
X119054Y436090D01*
X119158Y436126D01*
X119213Y436161D01*
X119273Y436187D01*
X119360Y436253D01*
X119453Y436311D01*
X119499Y436358D01*
X119551Y436398D01*
X119621Y436481D01*
X119698Y436559D01*
X119732Y436615D01*
X119774Y436665D01*
X119823Y436763D01*
X119880Y436856D01*
X119901Y436918D01*
X119931Y436977D01*
X119956Y437083D01*
X119991Y437187D01*
X120002Y437272D01*
X120012Y437316D01*
X120012Y437356D01*
X120022Y437429D01*
X120523Y448196D01*
X120519Y448246D01*
X120521Y448362D01*
X119848Y459119D01*
X119839Y459168D01*
X119828Y459284D01*
X117987Y469904D01*
X117973Y469952D01*
X117950Y470066D01*
X114964Y480422D01*
X114934Y480492D01*
X114914Y480566D01*
X114867Y480653D01*
X114829Y480744D01*
X114785Y480805D01*
X114749Y480872D01*
X114683Y480946D01*
X114626Y481026D01*
X114568Y481076D01*
X114518Y481133D01*
X114437Y481190D01*
X114363Y481255D01*
X114296Y481291D01*
X114234Y481335D01*
X114142Y481372D01*
X114055Y481419D01*
X113981Y481438D01*
X113911Y481467D01*
X113813Y481482D01*
X113718Y481508D01*
X113642Y481510D01*
X113567Y481522D01*
X113468Y481515D01*
X113370Y481518D01*
X113295Y481503D01*
X113219Y481497D01*
X113074Y481458D01*
X113028Y481448D01*
X113011Y481440D01*
X112983Y481433D01*
X108429Y479791D01*
X108389Y479771D01*
X108242Y479709D01*
X103949Y477471D01*
X103912Y477447D01*
X103775Y477365D01*
X99820Y474574D01*
X99787Y474544D01*
X99661Y474445D01*
X96115Y471149D01*
X96086Y471115D01*
X95975Y471000D01*
X92902Y467259D01*
X92878Y467222D01*
X92784Y467093D01*
X90239Y462974D01*
X90220Y462934D01*
X90144Y462794D01*
X88173Y458372D01*
X88160Y458329D01*
X88103Y458180D01*
X86742Y453534D01*
X86735Y453490D01*
X86698Y453335D01*
X85972Y448548D01*
X85970Y448504D01*
X85955Y448345D01*
X85876Y443504D01*
X85880Y443460D01*
X85886Y443300D01*
X86455Y438493D01*
X86466Y438450D01*
X86493Y438292D01*
X87701Y433604D01*
X87717Y433562D01*
X87765Y433410D01*
X89589Y428926D01*
X89640Y428832D01*
X89683Y428734D01*
X89724Y428680D01*
X89756Y428620D01*
X89828Y428541D01*
X89892Y428455D01*
X89944Y428411D01*
X89989Y428361D01*
X90077Y428299D01*
X90158Y428230D01*
X90219Y428200D01*
X90274Y428161D01*
X90374Y428121D01*
X90469Y428072D01*
X90535Y428056D01*
X90598Y428031D01*
X90703Y428015D01*
X90807Y427989D01*
X90875Y427988D01*
X90942Y427978D01*
X91049Y427986D01*
G37*
G36*
X47540Y332880D02*
X47540Y332880D01*
X47700Y332886D01*
X52507Y333455D01*
X52550Y333466D01*
X52708Y333493D01*
X57396Y334701D01*
X57438Y334717D01*
X57590Y334765D01*
X62074Y336589D01*
X62168Y336640D01*
X62266Y336683D01*
X62320Y336724D01*
X62380Y336756D01*
X62459Y336828D01*
X62545Y336892D01*
X62589Y336944D01*
X62639Y336989D01*
X62701Y337077D01*
X62770Y337158D01*
X62800Y337219D01*
X62839Y337274D01*
X62879Y337374D01*
X62928Y337469D01*
X62944Y337535D01*
X62969Y337598D01*
X62985Y337703D01*
X63011Y337807D01*
X63012Y337875D01*
X63022Y337942D01*
X63014Y338049D01*
X63015Y338156D01*
X63001Y338222D01*
X62995Y338290D01*
X62963Y338392D01*
X62940Y338496D01*
X62904Y338578D01*
X62890Y338622D01*
X62870Y338656D01*
X62842Y338720D01*
X61505Y341212D01*
X61505Y341213D01*
X60141Y343753D01*
X58012Y348966D01*
X56439Y354374D01*
X55439Y359916D01*
X55019Y365612D01*
X54999Y365720D01*
X54988Y365828D01*
X54966Y365890D01*
X54954Y365954D01*
X54910Y366054D01*
X54874Y366158D01*
X54839Y366213D01*
X54813Y366273D01*
X54747Y366360D01*
X54689Y366453D01*
X54642Y366499D01*
X54602Y366551D01*
X54519Y366621D01*
X54441Y366698D01*
X54385Y366732D01*
X54335Y366774D01*
X54237Y366823D01*
X54144Y366880D01*
X54082Y366901D01*
X54023Y366931D01*
X53917Y366956D01*
X53813Y366991D01*
X53728Y367002D01*
X53684Y367012D01*
X53644Y367012D01*
X53571Y367022D01*
X42804Y367523D01*
X42754Y367519D01*
X42638Y367521D01*
X31881Y366848D01*
X31832Y366839D01*
X31716Y366828D01*
X21096Y364987D01*
X21048Y364973D01*
X20934Y364950D01*
X10578Y361964D01*
X10508Y361934D01*
X10434Y361914D01*
X10347Y361867D01*
X10256Y361829D01*
X10195Y361785D01*
X10128Y361749D01*
X10054Y361683D01*
X9974Y361626D01*
X9924Y361568D01*
X9867Y361518D01*
X9810Y361437D01*
X9745Y361363D01*
X9709Y361296D01*
X9665Y361234D01*
X9628Y361142D01*
X9581Y361055D01*
X9562Y360981D01*
X9533Y360911D01*
X9518Y360813D01*
X9492Y360718D01*
X9490Y360642D01*
X9478Y360567D01*
X9485Y360468D01*
X9482Y360370D01*
X9497Y360295D01*
X9503Y360219D01*
X9542Y360074D01*
X9552Y360028D01*
X9560Y360011D01*
X9567Y359983D01*
X11209Y355429D01*
X11229Y355389D01*
X11291Y355242D01*
X13529Y350949D01*
X13553Y350912D01*
X13635Y350775D01*
X16427Y346820D01*
X16456Y346787D01*
X16555Y346661D01*
X19851Y343115D01*
X19885Y343086D01*
X20000Y342975D01*
X23741Y339902D01*
X23778Y339878D01*
X23907Y339784D01*
X28026Y337239D01*
X28066Y337220D01*
X28206Y337144D01*
X32628Y335173D01*
X32671Y335160D01*
X32820Y335103D01*
X37466Y333742D01*
X37510Y333735D01*
X37665Y333698D01*
X42452Y332972D01*
X42496Y332970D01*
X42655Y332955D01*
X47496Y332876D01*
X47540Y332880D01*
G37*
G36*
X489212Y317535D02*
X489212Y317535D01*
X489250Y317532D01*
X489369Y317552D01*
X489489Y317564D01*
X489526Y317578D01*
X489564Y317584D01*
X489715Y317640D01*
X493746Y319430D01*
X493757Y319436D01*
X493769Y319440D01*
X493910Y319518D01*
X497635Y321878D01*
X497645Y321887D01*
X497656Y321892D01*
X497785Y321989D01*
X501124Y324870D01*
X501132Y324880D01*
X501143Y324887D01*
X501255Y325002D01*
X504137Y328341D01*
X504144Y328351D01*
X504153Y328360D01*
X504248Y328490D01*
X506609Y332215D01*
X506614Y332226D01*
X506622Y332236D01*
X506697Y332379D01*
X508487Y336409D01*
X508491Y336422D01*
X508497Y336433D01*
X508550Y336585D01*
X509731Y340834D01*
X509733Y340847D01*
X509737Y340858D01*
X509767Y341017D01*
X510313Y345393D01*
X510313Y345406D01*
X510316Y345418D01*
X510323Y345579D01*
X510222Y349988D01*
X510220Y350000D01*
X510221Y350013D01*
X510204Y350173D01*
X509458Y354520D01*
X509454Y354532D01*
X509454Y354545D01*
X509413Y354701D01*
X508039Y358891D01*
X508034Y358903D01*
X508031Y358915D01*
X507968Y359063D01*
X505995Y363007D01*
X505988Y363018D01*
X505984Y363030D01*
X505900Y363168D01*
X503371Y366780D01*
X503362Y366790D01*
X503356Y366801D01*
X503253Y366925D01*
X500222Y370128D01*
X500212Y370136D01*
X500204Y370146D01*
X500084Y370253D01*
X496617Y372978D01*
X496606Y372985D01*
X496597Y372994D01*
X496462Y373082D01*
X492633Y375270D01*
X492621Y375275D01*
X492611Y375282D01*
X492465Y375350D01*
X488357Y376954D01*
X488344Y376957D01*
X488333Y376963D01*
X488179Y377009D01*
X483880Y377993D01*
X483867Y377994D01*
X483855Y377998D01*
X483696Y378021D01*
X479299Y378365D01*
X479290Y378365D01*
X479281Y378367D01*
X479131Y378357D01*
X478981Y378350D01*
X478972Y378348D01*
X478963Y378347D01*
X478822Y378301D01*
X478677Y378257D01*
X478669Y378252D01*
X478661Y378249D01*
X478534Y378169D01*
X478406Y378091D01*
X478400Y378084D01*
X478392Y378079D01*
X478288Y377969D01*
X478185Y377862D01*
X478180Y377854D01*
X478174Y377847D01*
X478102Y377716D01*
X478027Y377586D01*
X478025Y377577D01*
X478020Y377569D01*
X477983Y377424D01*
X477943Y377279D01*
X477943Y377270D01*
X477941Y377261D01*
X477931Y377100D01*
X477931Y372100D01*
X477939Y372037D01*
X477937Y371973D01*
X477950Y371916D01*
X477953Y371872D01*
X477964Y371839D01*
X477971Y371784D01*
X477994Y371725D01*
X478008Y371663D01*
X478041Y371599D01*
X478051Y371569D01*
X478064Y371549D01*
X478088Y371489D01*
X478125Y371437D01*
X478154Y371381D01*
X478210Y371318D01*
X478221Y371300D01*
X478231Y371291D01*
X478274Y371231D01*
X478324Y371191D01*
X478366Y371143D01*
X478444Y371091D01*
X478453Y371082D01*
X478458Y371080D01*
X478519Y371029D01*
X478577Y371001D01*
X478630Y370966D01*
X478721Y370934D01*
X478807Y370893D01*
X478870Y370881D01*
X478930Y370860D01*
X479089Y370836D01*
X482742Y370515D01*
X486213Y369674D01*
X489520Y368322D01*
X492586Y366491D01*
X495344Y364221D01*
X497731Y361564D01*
X499693Y358579D01*
X501186Y355334D01*
X502176Y351903D01*
X502641Y348361D01*
X502571Y344791D01*
X501967Y341270D01*
X500843Y337880D01*
X499224Y334696D01*
X497146Y331791D01*
X494657Y329230D01*
X491812Y327070D01*
X488592Y325314D01*
X488585Y325309D01*
X488565Y325299D01*
X487905Y324918D01*
X487837Y324866D01*
X487763Y324822D01*
X487660Y324732D01*
X487651Y324725D01*
X487649Y324722D01*
X487642Y324716D01*
X487102Y324177D01*
X487050Y324109D01*
X486990Y324048D01*
X486914Y323934D01*
X486907Y323925D01*
X486906Y323921D01*
X486901Y323914D01*
X486519Y323253D01*
X486486Y323174D01*
X486444Y323099D01*
X486415Y323015D01*
X486409Y323001D01*
X486406Y322988D01*
X486400Y322970D01*
X486396Y322960D01*
X486395Y322955D01*
X486392Y322947D01*
X486195Y322210D01*
X486183Y322125D01*
X486162Y322042D01*
X486153Y321906D01*
X486152Y321895D01*
X486152Y321891D01*
X486152Y321881D01*
X486152Y321119D01*
X486162Y321033D01*
X486163Y320948D01*
X486190Y320814D01*
X486192Y320803D01*
X486193Y320799D01*
X486195Y320790D01*
X486392Y320053D01*
X486425Y319974D01*
X486448Y319891D01*
X486508Y319769D01*
X486513Y319759D01*
X486515Y319755D01*
X486519Y319747D01*
X486901Y319086D01*
X486952Y319018D01*
X486996Y318944D01*
X487086Y318842D01*
X487093Y318833D01*
X487096Y318830D01*
X487102Y318823D01*
X487642Y318284D01*
X487709Y318232D01*
X487771Y318171D01*
X487884Y318096D01*
X487893Y318089D01*
X487897Y318087D01*
X487905Y318082D01*
X488565Y317701D01*
X488601Y317686D01*
X488633Y317664D01*
X488747Y317624D01*
X488859Y317578D01*
X488897Y317572D01*
X488934Y317559D01*
X489054Y317549D01*
X489173Y317531D01*
X489212Y317535D01*
G37*
G36*
X629712Y362435D02*
X629712Y362435D01*
X629750Y362432D01*
X629869Y362452D01*
X629989Y362464D01*
X630026Y362478D01*
X630064Y362484D01*
X630215Y362540D01*
X634246Y364330D01*
X634257Y364336D01*
X634269Y364340D01*
X634410Y364418D01*
X638135Y366778D01*
X638145Y366787D01*
X638156Y366792D01*
X638285Y366889D01*
X641624Y369770D01*
X641632Y369780D01*
X641643Y369787D01*
X641755Y369902D01*
X644637Y373241D01*
X644644Y373251D01*
X644653Y373260D01*
X644748Y373390D01*
X647109Y377115D01*
X647114Y377126D01*
X647122Y377136D01*
X647197Y377279D01*
X648987Y381309D01*
X648991Y381322D01*
X648997Y381333D01*
X649050Y381485D01*
X650231Y385734D01*
X650233Y385747D01*
X650237Y385758D01*
X650267Y385917D01*
X650813Y390293D01*
X650813Y390306D01*
X650816Y390318D01*
X650823Y390479D01*
X650722Y394888D01*
X650720Y394900D01*
X650721Y394913D01*
X650704Y395073D01*
X649958Y399420D01*
X649954Y399432D01*
X649954Y399445D01*
X649913Y399601D01*
X648539Y403791D01*
X648534Y403803D01*
X648531Y403815D01*
X648468Y403963D01*
X646495Y407907D01*
X646488Y407918D01*
X646484Y407930D01*
X646400Y408068D01*
X643871Y411680D01*
X643862Y411690D01*
X643856Y411701D01*
X643753Y411825D01*
X640722Y415028D01*
X640712Y415036D01*
X640704Y415046D01*
X640584Y415153D01*
X637117Y417878D01*
X637106Y417885D01*
X637097Y417894D01*
X636962Y417982D01*
X633133Y420170D01*
X633121Y420175D01*
X633111Y420182D01*
X632965Y420250D01*
X628857Y421854D01*
X628844Y421857D01*
X628833Y421863D01*
X628679Y421909D01*
X624380Y422893D01*
X624367Y422894D01*
X624355Y422898D01*
X624196Y422921D01*
X619799Y423265D01*
X619790Y423265D01*
X619781Y423267D01*
X619631Y423257D01*
X619481Y423250D01*
X619472Y423248D01*
X619463Y423247D01*
X619322Y423201D01*
X619177Y423157D01*
X619169Y423152D01*
X619161Y423149D01*
X619034Y423069D01*
X618906Y422991D01*
X618900Y422984D01*
X618892Y422979D01*
X618788Y422869D01*
X618685Y422762D01*
X618680Y422754D01*
X618674Y422747D01*
X618602Y422616D01*
X618527Y422486D01*
X618525Y422477D01*
X618520Y422469D01*
X618483Y422324D01*
X618443Y422179D01*
X618443Y422170D01*
X618441Y422161D01*
X618431Y422000D01*
X618431Y417000D01*
X618439Y416937D01*
X618437Y416873D01*
X618450Y416816D01*
X618453Y416772D01*
X618464Y416739D01*
X618471Y416684D01*
X618494Y416625D01*
X618508Y416563D01*
X618541Y416499D01*
X618551Y416469D01*
X618564Y416449D01*
X618588Y416389D01*
X618625Y416337D01*
X618654Y416281D01*
X618710Y416218D01*
X618721Y416200D01*
X618731Y416191D01*
X618774Y416131D01*
X618824Y416091D01*
X618866Y416043D01*
X618944Y415991D01*
X618953Y415982D01*
X618958Y415980D01*
X619019Y415929D01*
X619077Y415901D01*
X619130Y415866D01*
X619221Y415834D01*
X619307Y415793D01*
X619370Y415781D01*
X619430Y415760D01*
X619589Y415736D01*
X623242Y415415D01*
X626713Y414574D01*
X630020Y413222D01*
X633086Y411391D01*
X635844Y409121D01*
X638231Y406464D01*
X640193Y403479D01*
X641686Y400234D01*
X642676Y396803D01*
X643141Y393261D01*
X643071Y389691D01*
X642467Y386170D01*
X641343Y382780D01*
X639724Y379596D01*
X637646Y376691D01*
X635157Y374130D01*
X632312Y371970D01*
X629092Y370214D01*
X629085Y370209D01*
X629065Y370199D01*
X628405Y369818D01*
X628337Y369766D01*
X628263Y369722D01*
X628160Y369632D01*
X628151Y369625D01*
X628149Y369622D01*
X628142Y369616D01*
X627602Y369077D01*
X627550Y369009D01*
X627490Y368948D01*
X627414Y368834D01*
X627407Y368825D01*
X627406Y368821D01*
X627401Y368814D01*
X627019Y368153D01*
X626986Y368074D01*
X626944Y367999D01*
X626915Y367915D01*
X626909Y367901D01*
X626906Y367888D01*
X626900Y367870D01*
X626896Y367860D01*
X626895Y367855D01*
X626892Y367847D01*
X626695Y367110D01*
X626683Y367025D01*
X626662Y366942D01*
X626653Y366806D01*
X626652Y366795D01*
X626652Y366791D01*
X626652Y366781D01*
X626652Y366019D01*
X626662Y365933D01*
X626663Y365848D01*
X626690Y365714D01*
X626692Y365703D01*
X626693Y365699D01*
X626695Y365690D01*
X626892Y364953D01*
X626925Y364874D01*
X626948Y364791D01*
X627008Y364669D01*
X627013Y364659D01*
X627015Y364655D01*
X627019Y364647D01*
X627401Y363986D01*
X627452Y363918D01*
X627496Y363844D01*
X627586Y363742D01*
X627593Y363733D01*
X627596Y363730D01*
X627602Y363723D01*
X628142Y363184D01*
X628209Y363132D01*
X628271Y363071D01*
X628384Y362996D01*
X628393Y362989D01*
X628397Y362987D01*
X628405Y362982D01*
X629065Y362601D01*
X629101Y362586D01*
X629133Y362564D01*
X629247Y362524D01*
X629359Y362478D01*
X629397Y362472D01*
X629434Y362459D01*
X629554Y362449D01*
X629673Y362431D01*
X629712Y362435D01*
G37*
G36*
X479269Y315843D02*
X479269Y315843D01*
X479419Y315850D01*
X479428Y315852D01*
X479437Y315853D01*
X479578Y315899D01*
X479723Y315943D01*
X479731Y315948D01*
X479739Y315951D01*
X479866Y316031D01*
X479994Y316110D01*
X480000Y316116D01*
X480008Y316121D01*
X480111Y316231D01*
X480215Y316338D01*
X480220Y316346D01*
X480226Y316353D01*
X480298Y316484D01*
X480373Y316614D01*
X480375Y316623D01*
X480380Y316631D01*
X480417Y316776D01*
X480457Y316921D01*
X480457Y316930D01*
X480459Y316939D01*
X480469Y317100D01*
X480469Y322100D01*
X480461Y322163D01*
X480463Y322227D01*
X480441Y322320D01*
X480429Y322416D01*
X480406Y322475D01*
X480392Y322537D01*
X480348Y322622D01*
X480312Y322711D01*
X480275Y322763D01*
X480246Y322820D01*
X480182Y322891D01*
X480126Y322969D01*
X480076Y323009D01*
X480034Y323057D01*
X479954Y323110D01*
X479881Y323171D01*
X479823Y323199D01*
X479770Y323234D01*
X479680Y323266D01*
X479593Y323307D01*
X479530Y323319D01*
X479470Y323340D01*
X479311Y323364D01*
X475658Y323685D01*
X472187Y324526D01*
X468880Y325878D01*
X465814Y327709D01*
X463056Y329979D01*
X460669Y332636D01*
X458707Y335621D01*
X457214Y338866D01*
X456224Y342297D01*
X455759Y345839D01*
X455829Y349409D01*
X456433Y352930D01*
X457557Y356320D01*
X459176Y359504D01*
X461254Y362409D01*
X463743Y364970D01*
X466588Y367130D01*
X469808Y368886D01*
X469815Y368891D01*
X469835Y368901D01*
X470495Y369282D01*
X470564Y369334D01*
X470637Y369378D01*
X470740Y369468D01*
X470749Y369475D01*
X470751Y369478D01*
X470758Y369484D01*
X471298Y370023D01*
X471350Y370091D01*
X471410Y370152D01*
X471486Y370266D01*
X471493Y370275D01*
X471494Y370279D01*
X471499Y370286D01*
X471881Y370947D01*
X471914Y371026D01*
X471956Y371101D01*
X472000Y371230D01*
X472004Y371240D01*
X472005Y371245D01*
X472008Y371253D01*
X472205Y371990D01*
X472217Y372075D01*
X472238Y372158D01*
X472247Y372294D01*
X472248Y372305D01*
X472248Y372310D01*
X472248Y372319D01*
X472248Y373081D01*
X472238Y373167D01*
X472237Y373252D01*
X472210Y373386D01*
X472209Y373397D01*
X472207Y373401D01*
X472205Y373410D01*
X472008Y374147D01*
X471975Y374226D01*
X471952Y374309D01*
X471892Y374431D01*
X471887Y374441D01*
X471885Y374445D01*
X471881Y374453D01*
X471499Y375114D01*
X471448Y375182D01*
X471404Y375256D01*
X471314Y375358D01*
X471307Y375367D01*
X471304Y375370D01*
X471298Y375377D01*
X470758Y375916D01*
X470691Y375969D01*
X470629Y376029D01*
X470516Y376104D01*
X470507Y376111D01*
X470503Y376113D01*
X470495Y376118D01*
X469835Y376499D01*
X469799Y376514D01*
X469767Y376536D01*
X469653Y376576D01*
X469541Y376622D01*
X469503Y376628D01*
X469466Y376641D01*
X469346Y376651D01*
X469227Y376669D01*
X469188Y376665D01*
X469150Y376668D01*
X469031Y376648D01*
X468911Y376636D01*
X468874Y376622D01*
X468836Y376616D01*
X468685Y376560D01*
X464654Y374770D01*
X464643Y374764D01*
X464631Y374760D01*
X464490Y374682D01*
X460765Y372322D01*
X460755Y372314D01*
X460744Y372308D01*
X460615Y372211D01*
X457276Y369330D01*
X457268Y369320D01*
X457257Y369313D01*
X457145Y369198D01*
X454263Y365859D01*
X454256Y365849D01*
X454247Y365840D01*
X454152Y365710D01*
X451791Y361985D01*
X451786Y361974D01*
X451778Y361964D01*
X451703Y361821D01*
X449913Y357791D01*
X449909Y357778D01*
X449903Y357767D01*
X449850Y357615D01*
X448669Y353366D01*
X448667Y353353D01*
X448663Y353342D01*
X448633Y353183D01*
X448087Y348807D01*
X448087Y348794D01*
X448084Y348782D01*
X448078Y348621D01*
X448178Y344212D01*
X448180Y344200D01*
X448179Y344187D01*
X448196Y344027D01*
X448942Y339680D01*
X448946Y339668D01*
X448946Y339655D01*
X448987Y339500D01*
X450361Y335309D01*
X450366Y335298D01*
X450369Y335285D01*
X450432Y335137D01*
X452405Y331193D01*
X452412Y331182D01*
X452416Y331170D01*
X452500Y331033D01*
X455029Y327420D01*
X455038Y327410D01*
X455044Y327399D01*
X455147Y327275D01*
X458178Y324072D01*
X458188Y324064D01*
X458196Y324054D01*
X458316Y323947D01*
X461783Y321222D01*
X461794Y321215D01*
X461803Y321206D01*
X461938Y321118D01*
X465767Y318930D01*
X465779Y318925D01*
X465789Y318918D01*
X465935Y318850D01*
X470043Y317246D01*
X470056Y317243D01*
X470067Y317237D01*
X470221Y317191D01*
X474520Y316207D01*
X474533Y316206D01*
X474545Y316202D01*
X474704Y316179D01*
X479101Y315835D01*
X479110Y315835D01*
X479120Y315833D01*
X479269Y315843D01*
G37*
G36*
X619769Y360743D02*
X619769Y360743D01*
X619919Y360750D01*
X619928Y360752D01*
X619937Y360753D01*
X620078Y360799D01*
X620223Y360843D01*
X620231Y360848D01*
X620239Y360851D01*
X620366Y360931D01*
X620494Y361010D01*
X620500Y361016D01*
X620508Y361021D01*
X620611Y361131D01*
X620715Y361238D01*
X620720Y361246D01*
X620726Y361253D01*
X620798Y361384D01*
X620873Y361514D01*
X620875Y361523D01*
X620880Y361531D01*
X620917Y361676D01*
X620957Y361821D01*
X620957Y361830D01*
X620959Y361839D01*
X620969Y362000D01*
X620969Y367000D01*
X620961Y367063D01*
X620963Y367127D01*
X620941Y367220D01*
X620929Y367316D01*
X620906Y367375D01*
X620892Y367437D01*
X620848Y367522D01*
X620812Y367611D01*
X620775Y367663D01*
X620746Y367720D01*
X620682Y367791D01*
X620626Y367869D01*
X620576Y367909D01*
X620534Y367957D01*
X620454Y368010D01*
X620381Y368071D01*
X620323Y368099D01*
X620270Y368134D01*
X620180Y368166D01*
X620093Y368207D01*
X620030Y368219D01*
X619970Y368240D01*
X619811Y368264D01*
X616158Y368585D01*
X612687Y369426D01*
X609380Y370778D01*
X606314Y372609D01*
X603556Y374879D01*
X601169Y377536D01*
X599207Y380521D01*
X597714Y383766D01*
X596724Y387197D01*
X596259Y390739D01*
X596329Y394309D01*
X596933Y397830D01*
X598057Y401220D01*
X599676Y404404D01*
X601754Y407309D01*
X604243Y409870D01*
X607088Y412030D01*
X610308Y413786D01*
X610315Y413791D01*
X610335Y413801D01*
X610995Y414182D01*
X611064Y414234D01*
X611137Y414278D01*
X611240Y414368D01*
X611249Y414375D01*
X611251Y414378D01*
X611258Y414384D01*
X611798Y414923D01*
X611850Y414991D01*
X611910Y415052D01*
X611986Y415166D01*
X611993Y415175D01*
X611994Y415179D01*
X611999Y415186D01*
X612381Y415847D01*
X612414Y415926D01*
X612456Y416001D01*
X612500Y416130D01*
X612504Y416140D01*
X612505Y416145D01*
X612508Y416153D01*
X612705Y416890D01*
X612717Y416975D01*
X612738Y417058D01*
X612747Y417194D01*
X612748Y417205D01*
X612748Y417210D01*
X612748Y417219D01*
X612748Y417981D01*
X612738Y418067D01*
X612737Y418152D01*
X612710Y418286D01*
X612709Y418297D01*
X612707Y418301D01*
X612705Y418310D01*
X612508Y419047D01*
X612475Y419126D01*
X612452Y419209D01*
X612392Y419331D01*
X612387Y419341D01*
X612385Y419345D01*
X612381Y419353D01*
X611999Y420014D01*
X611948Y420082D01*
X611904Y420156D01*
X611814Y420258D01*
X611807Y420267D01*
X611804Y420270D01*
X611798Y420277D01*
X611258Y420816D01*
X611191Y420869D01*
X611129Y420929D01*
X611016Y421004D01*
X611007Y421011D01*
X611003Y421013D01*
X610995Y421018D01*
X610335Y421399D01*
X610299Y421414D01*
X610267Y421436D01*
X610153Y421476D01*
X610041Y421522D01*
X610003Y421528D01*
X609966Y421541D01*
X609846Y421551D01*
X609727Y421569D01*
X609688Y421565D01*
X609650Y421568D01*
X609531Y421548D01*
X609411Y421536D01*
X609374Y421522D01*
X609336Y421516D01*
X609185Y421460D01*
X605154Y419670D01*
X605143Y419664D01*
X605131Y419660D01*
X604990Y419582D01*
X601265Y417222D01*
X601255Y417214D01*
X601244Y417208D01*
X601115Y417111D01*
X597776Y414230D01*
X597768Y414220D01*
X597757Y414213D01*
X597645Y414098D01*
X594763Y410759D01*
X594756Y410749D01*
X594747Y410740D01*
X594652Y410610D01*
X592291Y406885D01*
X592286Y406874D01*
X592278Y406864D01*
X592203Y406721D01*
X590413Y402691D01*
X590409Y402678D01*
X590403Y402667D01*
X590350Y402515D01*
X589169Y398266D01*
X589167Y398253D01*
X589163Y398242D01*
X589133Y398083D01*
X588587Y393707D01*
X588587Y393694D01*
X588584Y393682D01*
X588578Y393521D01*
X588678Y389112D01*
X588680Y389100D01*
X588679Y389087D01*
X588696Y388927D01*
X589442Y384580D01*
X589446Y384568D01*
X589446Y384555D01*
X589487Y384400D01*
X590861Y380209D01*
X590866Y380198D01*
X590869Y380185D01*
X590932Y380037D01*
X592905Y376093D01*
X592912Y376082D01*
X592916Y376070D01*
X593000Y375933D01*
X595529Y372320D01*
X595538Y372310D01*
X595544Y372299D01*
X595647Y372175D01*
X598678Y368972D01*
X598688Y368964D01*
X598696Y368954D01*
X598816Y368847D01*
X602283Y366122D01*
X602294Y366115D01*
X602303Y366106D01*
X602438Y366018D01*
X606267Y363830D01*
X606279Y363825D01*
X606289Y363818D01*
X606435Y363750D01*
X610543Y362146D01*
X610556Y362143D01*
X610567Y362137D01*
X610721Y362091D01*
X615020Y361107D01*
X615033Y361106D01*
X615045Y361102D01*
X615204Y361079D01*
X619601Y360735D01*
X619610Y360735D01*
X619620Y360733D01*
X619769Y360743D01*
G37*
G36*
X479304Y325835D02*
X479304Y325835D01*
X482560Y326102D01*
X482583Y326106D01*
X482606Y326106D01*
X482765Y326135D01*
X485934Y326929D01*
X485956Y326937D01*
X485979Y326941D01*
X486130Y326995D01*
X489128Y328294D01*
X489148Y328306D01*
X489171Y328314D01*
X489311Y328392D01*
X492057Y330162D01*
X492075Y330177D01*
X492096Y330188D01*
X492222Y330289D01*
X494643Y332482D01*
X494658Y332500D01*
X494677Y332514D01*
X494785Y332634D01*
X496816Y335193D01*
X496828Y335213D01*
X496844Y335230D01*
X496883Y335289D01*
X496895Y335304D01*
X496903Y335321D01*
X496931Y335365D01*
X498519Y338221D01*
X498528Y338242D01*
X498541Y338262D01*
X498605Y338410D01*
X499706Y341486D01*
X499711Y341509D01*
X499721Y341530D01*
X499759Y341686D01*
X500345Y344900D01*
X500346Y344924D01*
X500352Y344946D01*
X500365Y345107D01*
X500419Y348373D01*
X500416Y348397D01*
X500419Y348420D01*
X500405Y348580D01*
X499926Y351812D01*
X499920Y351835D01*
X499919Y351858D01*
X499879Y352014D01*
X498880Y355125D01*
X498870Y355146D01*
X498865Y355169D01*
X498801Y355317D01*
X497309Y358223D01*
X497295Y358243D01*
X497287Y358264D01*
X497199Y358399D01*
X495253Y361024D01*
X495237Y361041D01*
X495225Y361061D01*
X495116Y361180D01*
X492769Y363452D01*
X492750Y363466D01*
X492735Y363484D01*
X492609Y363584D01*
X489922Y365444D01*
X489880Y365466D01*
X489842Y365495D01*
X489739Y365539D01*
X489640Y365590D01*
X489594Y365601D01*
X489550Y365620D01*
X489439Y365637D01*
X489331Y365663D01*
X489283Y365661D01*
X489236Y365669D01*
X489124Y365658D01*
X489013Y365655D01*
X488967Y365642D01*
X488919Y365638D01*
X488814Y365600D01*
X488707Y365569D01*
X488665Y365545D01*
X488620Y365529D01*
X488482Y365447D01*
X487791Y364973D01*
X487736Y364924D01*
X487675Y364883D01*
X487628Y364836D01*
X487624Y364834D01*
X487620Y364829D01*
X487561Y364770D01*
X487003Y364143D01*
X486962Y364083D01*
X486912Y364029D01*
X486828Y363891D01*
X486438Y363149D01*
X486412Y363081D01*
X486377Y363016D01*
X486329Y362863D01*
X486127Y362049D01*
X486119Y361976D01*
X486100Y361905D01*
X486090Y361744D01*
X486090Y360906D01*
X486099Y360833D01*
X486099Y360760D01*
X486127Y360601D01*
X486329Y359787D01*
X486355Y359719D01*
X486372Y359647D01*
X486408Y359568D01*
X486410Y359561D01*
X486413Y359556D01*
X486438Y359501D01*
X486828Y358759D01*
X486870Y358699D01*
X486904Y358633D01*
X487003Y358507D01*
X487561Y357880D01*
X487616Y357832D01*
X487664Y357777D01*
X487791Y357677D01*
X488377Y357275D01*
X490017Y355581D01*
X491347Y353615D01*
X492316Y351446D01*
X492893Y349143D01*
X493062Y346774D01*
X492817Y344413D01*
X492165Y342129D01*
X491127Y339993D01*
X489734Y338071D01*
X488028Y336419D01*
X486060Y335088D01*
X483893Y334120D01*
X481589Y333543D01*
X479110Y333366D01*
X479037Y333352D01*
X478963Y333347D01*
X478882Y333321D01*
X478798Y333304D01*
X478731Y333272D01*
X478661Y333249D01*
X478588Y333203D01*
X478511Y333166D01*
X478455Y333118D01*
X478392Y333079D01*
X478333Y333016D01*
X478268Y332962D01*
X478225Y332901D01*
X478174Y332847D01*
X478133Y332772D01*
X478083Y332703D01*
X478056Y332634D01*
X478020Y332569D01*
X477999Y332486D01*
X477968Y332406D01*
X477959Y332332D01*
X477941Y332261D01*
X477931Y332100D01*
X477931Y327100D01*
X477932Y327088D01*
X477931Y327077D01*
X477952Y326931D01*
X477971Y326784D01*
X477975Y326774D01*
X477977Y326762D01*
X478033Y326626D01*
X478088Y326489D01*
X478094Y326479D01*
X478099Y326469D01*
X478188Y326351D01*
X478274Y326231D01*
X478283Y326224D01*
X478290Y326215D01*
X478406Y326123D01*
X478519Y326029D01*
X478530Y326024D01*
X478539Y326016D01*
X478674Y325956D01*
X478807Y325893D01*
X478819Y325891D01*
X478829Y325886D01*
X478975Y325861D01*
X479120Y325833D01*
X479131Y325834D01*
X479143Y325832D01*
X479304Y325835D01*
G37*
G36*
X619804Y370735D02*
X619804Y370735D01*
X623060Y371002D01*
X623083Y371006D01*
X623106Y371006D01*
X623265Y371035D01*
X626434Y371829D01*
X626456Y371837D01*
X626479Y371841D01*
X626630Y371895D01*
X629628Y373194D01*
X629648Y373206D01*
X629671Y373214D01*
X629811Y373292D01*
X632557Y375062D01*
X632575Y375077D01*
X632596Y375088D01*
X632722Y375189D01*
X635143Y377382D01*
X635158Y377400D01*
X635177Y377414D01*
X635285Y377534D01*
X637316Y380093D01*
X637328Y380113D01*
X637344Y380130D01*
X637383Y380189D01*
X637395Y380204D01*
X637403Y380221D01*
X637431Y380265D01*
X639019Y383121D01*
X639028Y383142D01*
X639041Y383162D01*
X639105Y383310D01*
X640206Y386386D01*
X640211Y386409D01*
X640221Y386430D01*
X640259Y386586D01*
X640845Y389800D01*
X640846Y389824D01*
X640852Y389846D01*
X640865Y390007D01*
X640919Y393273D01*
X640916Y393297D01*
X640919Y393320D01*
X640905Y393480D01*
X640426Y396712D01*
X640420Y396735D01*
X640419Y396758D01*
X640379Y396914D01*
X639380Y400025D01*
X639370Y400046D01*
X639365Y400069D01*
X639301Y400217D01*
X637809Y403123D01*
X637795Y403143D01*
X637787Y403164D01*
X637699Y403299D01*
X635753Y405924D01*
X635737Y405941D01*
X635725Y405961D01*
X635616Y406080D01*
X633269Y408352D01*
X633250Y408366D01*
X633235Y408384D01*
X633109Y408484D01*
X630422Y410344D01*
X630380Y410366D01*
X630342Y410395D01*
X630239Y410439D01*
X630140Y410490D01*
X630094Y410501D01*
X630050Y410520D01*
X629939Y410537D01*
X629831Y410563D01*
X629783Y410561D01*
X629736Y410569D01*
X629624Y410558D01*
X629513Y410555D01*
X629467Y410542D01*
X629419Y410538D01*
X629314Y410500D01*
X629207Y410469D01*
X629165Y410445D01*
X629120Y410429D01*
X628982Y410347D01*
X628291Y409873D01*
X628236Y409824D01*
X628175Y409783D01*
X628128Y409736D01*
X628124Y409734D01*
X628120Y409729D01*
X628061Y409670D01*
X627503Y409043D01*
X627462Y408983D01*
X627412Y408929D01*
X627328Y408791D01*
X626938Y408049D01*
X626912Y407981D01*
X626877Y407916D01*
X626829Y407763D01*
X626627Y406949D01*
X626619Y406876D01*
X626600Y406805D01*
X626590Y406644D01*
X626590Y405806D01*
X626599Y405733D01*
X626599Y405660D01*
X626627Y405501D01*
X626829Y404687D01*
X626855Y404619D01*
X626872Y404547D01*
X626908Y404468D01*
X626910Y404461D01*
X626913Y404456D01*
X626938Y404401D01*
X627328Y403659D01*
X627370Y403599D01*
X627404Y403533D01*
X627503Y403407D01*
X628061Y402780D01*
X628116Y402732D01*
X628164Y402677D01*
X628291Y402577D01*
X628877Y402175D01*
X630517Y400481D01*
X631847Y398515D01*
X632816Y396346D01*
X633393Y394043D01*
X633562Y391674D01*
X633317Y389313D01*
X632665Y387029D01*
X631627Y384893D01*
X630234Y382971D01*
X628528Y381319D01*
X626560Y379988D01*
X624393Y379020D01*
X622089Y378443D01*
X619610Y378266D01*
X619537Y378252D01*
X619463Y378247D01*
X619382Y378221D01*
X619298Y378204D01*
X619231Y378172D01*
X619161Y378149D01*
X619088Y378103D01*
X619011Y378066D01*
X618955Y378018D01*
X618892Y377979D01*
X618833Y377916D01*
X618768Y377862D01*
X618725Y377801D01*
X618674Y377747D01*
X618633Y377672D01*
X618583Y377603D01*
X618556Y377534D01*
X618520Y377469D01*
X618499Y377386D01*
X618468Y377306D01*
X618459Y377232D01*
X618441Y377161D01*
X618431Y377000D01*
X618431Y372000D01*
X618432Y371988D01*
X618431Y371977D01*
X618452Y371831D01*
X618471Y371684D01*
X618475Y371674D01*
X618477Y371662D01*
X618533Y371526D01*
X618588Y371389D01*
X618594Y371379D01*
X618599Y371369D01*
X618688Y371251D01*
X618774Y371131D01*
X618783Y371124D01*
X618790Y371115D01*
X618906Y371023D01*
X619019Y370929D01*
X619030Y370924D01*
X619039Y370916D01*
X619174Y370856D01*
X619307Y370793D01*
X619319Y370791D01*
X619329Y370786D01*
X619475Y370761D01*
X619620Y370733D01*
X619631Y370734D01*
X619643Y370732D01*
X619804Y370735D01*
G37*
G36*
X469276Y328542D02*
X469276Y328542D01*
X469387Y328545D01*
X469433Y328558D01*
X469481Y328562D01*
X469586Y328600D01*
X469694Y328631D01*
X469735Y328655D01*
X469780Y328671D01*
X469918Y328753D01*
X470609Y329227D01*
X470664Y329276D01*
X470725Y329317D01*
X470839Y329430D01*
X471397Y330057D01*
X471438Y330117D01*
X471488Y330171D01*
X471572Y330309D01*
X471962Y331051D01*
X471988Y331119D01*
X472023Y331184D01*
X472071Y331337D01*
X472273Y332151D01*
X472281Y332224D01*
X472300Y332295D01*
X472310Y332456D01*
X472310Y333294D01*
X472301Y333367D01*
X472301Y333440D01*
X472273Y333599D01*
X472071Y334413D01*
X472045Y334481D01*
X472028Y334553D01*
X471962Y334699D01*
X471572Y335441D01*
X471530Y335501D01*
X471496Y335567D01*
X471397Y335693D01*
X470839Y336320D01*
X470784Y336368D01*
X470736Y336423D01*
X470609Y336523D01*
X470023Y336925D01*
X468383Y338619D01*
X467053Y340586D01*
X466084Y342754D01*
X465507Y345057D01*
X465338Y347426D01*
X465583Y349787D01*
X466235Y352071D01*
X467273Y354207D01*
X468666Y356129D01*
X470372Y357781D01*
X472340Y359112D01*
X474507Y360080D01*
X476811Y360657D01*
X479290Y360834D01*
X479363Y360848D01*
X479437Y360853D01*
X479518Y360879D01*
X479602Y360896D01*
X479669Y360928D01*
X479739Y360951D01*
X479812Y360997D01*
X479889Y361034D01*
X479945Y361082D01*
X480008Y361121D01*
X480067Y361184D01*
X480132Y361239D01*
X480175Y361299D01*
X480226Y361353D01*
X480267Y361428D01*
X480317Y361497D01*
X480344Y361566D01*
X480380Y361631D01*
X480401Y361714D01*
X480432Y361794D01*
X480441Y361868D01*
X480459Y361939D01*
X480469Y362100D01*
X480469Y367100D01*
X480468Y367112D01*
X480469Y367123D01*
X480448Y367269D01*
X480429Y367416D01*
X480425Y367426D01*
X480423Y367438D01*
X480367Y367574D01*
X480312Y367711D01*
X480306Y367721D01*
X480301Y367731D01*
X480212Y367849D01*
X480126Y367969D01*
X480117Y367976D01*
X480110Y367985D01*
X479994Y368077D01*
X479881Y368171D01*
X479870Y368176D01*
X479861Y368184D01*
X479726Y368244D01*
X479593Y368307D01*
X479582Y368309D01*
X479571Y368314D01*
X479425Y368339D01*
X479281Y368367D01*
X479269Y368366D01*
X479257Y368368D01*
X479096Y368365D01*
X475840Y368098D01*
X475817Y368094D01*
X475794Y368094D01*
X475636Y368065D01*
X472466Y367271D01*
X472444Y367263D01*
X472421Y367259D01*
X472270Y367205D01*
X469272Y365906D01*
X469252Y365894D01*
X469230Y365886D01*
X469089Y365808D01*
X466343Y364038D01*
X466325Y364023D01*
X466304Y364012D01*
X466178Y363911D01*
X463757Y361718D01*
X463742Y361700D01*
X463723Y361686D01*
X463615Y361566D01*
X461584Y359007D01*
X461572Y358987D01*
X461556Y358970D01*
X461469Y358835D01*
X459881Y355979D01*
X459872Y355958D01*
X459859Y355938D01*
X459795Y355790D01*
X458694Y352714D01*
X458689Y352691D01*
X458679Y352670D01*
X458641Y352514D01*
X458055Y349300D01*
X458054Y349276D01*
X458048Y349254D01*
X458035Y349093D01*
X457981Y345827D01*
X457984Y345803D01*
X457981Y345780D01*
X457995Y345620D01*
X458474Y342388D01*
X458480Y342365D01*
X458481Y342342D01*
X458521Y342186D01*
X459520Y339075D01*
X459530Y339054D01*
X459535Y339031D01*
X459599Y338883D01*
X461091Y335977D01*
X461105Y335958D01*
X461113Y335936D01*
X461201Y335801D01*
X463147Y333176D01*
X463163Y333159D01*
X463175Y333139D01*
X463284Y333020D01*
X465631Y330748D01*
X465650Y330734D01*
X465665Y330716D01*
X465791Y330616D01*
X468478Y328756D01*
X468520Y328734D01*
X468558Y328705D01*
X468661Y328661D01*
X468760Y328610D01*
X468806Y328599D01*
X468850Y328580D01*
X468961Y328563D01*
X469069Y328538D01*
X469117Y328539D01*
X469164Y328531D01*
X469276Y328542D01*
G37*
G36*
X609776Y373442D02*
X609776Y373442D01*
X609887Y373445D01*
X609933Y373458D01*
X609981Y373462D01*
X610086Y373500D01*
X610194Y373531D01*
X610235Y373555D01*
X610280Y373571D01*
X610418Y373653D01*
X611109Y374127D01*
X611164Y374176D01*
X611225Y374217D01*
X611339Y374330D01*
X611897Y374957D01*
X611938Y375017D01*
X611988Y375071D01*
X612072Y375209D01*
X612462Y375951D01*
X612488Y376019D01*
X612523Y376084D01*
X612571Y376237D01*
X612773Y377051D01*
X612781Y377124D01*
X612800Y377195D01*
X612810Y377356D01*
X612810Y378194D01*
X612801Y378267D01*
X612801Y378340D01*
X612773Y378499D01*
X612571Y379313D01*
X612545Y379381D01*
X612528Y379453D01*
X612462Y379599D01*
X612072Y380341D01*
X612030Y380401D01*
X611996Y380467D01*
X611897Y380593D01*
X611339Y381220D01*
X611284Y381268D01*
X611236Y381323D01*
X611109Y381423D01*
X610523Y381825D01*
X608883Y383519D01*
X607553Y385486D01*
X606584Y387654D01*
X606007Y389957D01*
X605838Y392326D01*
X606083Y394687D01*
X606735Y396971D01*
X607773Y399107D01*
X609166Y401029D01*
X610872Y402681D01*
X612840Y404012D01*
X615007Y404980D01*
X617311Y405557D01*
X619790Y405734D01*
X619863Y405748D01*
X619937Y405753D01*
X620018Y405779D01*
X620102Y405796D01*
X620169Y405828D01*
X620239Y405851D01*
X620312Y405897D01*
X620389Y405934D01*
X620445Y405982D01*
X620508Y406021D01*
X620567Y406084D01*
X620632Y406139D01*
X620675Y406199D01*
X620726Y406253D01*
X620767Y406328D01*
X620817Y406397D01*
X620844Y406466D01*
X620880Y406531D01*
X620901Y406614D01*
X620932Y406694D01*
X620941Y406768D01*
X620959Y406839D01*
X620969Y407000D01*
X620969Y412000D01*
X620968Y412012D01*
X620969Y412023D01*
X620948Y412169D01*
X620929Y412316D01*
X620925Y412326D01*
X620923Y412338D01*
X620867Y412474D01*
X620812Y412611D01*
X620806Y412621D01*
X620801Y412631D01*
X620712Y412749D01*
X620626Y412869D01*
X620617Y412876D01*
X620610Y412885D01*
X620494Y412977D01*
X620381Y413071D01*
X620370Y413076D01*
X620361Y413084D01*
X620226Y413144D01*
X620093Y413207D01*
X620082Y413209D01*
X620071Y413214D01*
X619925Y413239D01*
X619781Y413267D01*
X619769Y413266D01*
X619757Y413268D01*
X619596Y413265D01*
X616340Y412998D01*
X616317Y412994D01*
X616294Y412994D01*
X616136Y412965D01*
X612966Y412171D01*
X612944Y412163D01*
X612921Y412159D01*
X612770Y412105D01*
X609772Y410806D01*
X609752Y410794D01*
X609730Y410786D01*
X609589Y410708D01*
X606843Y408938D01*
X606825Y408923D01*
X606804Y408912D01*
X606678Y408811D01*
X604257Y406618D01*
X604242Y406600D01*
X604223Y406586D01*
X604115Y406466D01*
X602084Y403907D01*
X602072Y403887D01*
X602056Y403870D01*
X601969Y403735D01*
X600381Y400879D01*
X600372Y400858D01*
X600359Y400838D01*
X600295Y400690D01*
X599194Y397614D01*
X599189Y397591D01*
X599179Y397570D01*
X599141Y397414D01*
X598555Y394200D01*
X598554Y394176D01*
X598548Y394154D01*
X598535Y393993D01*
X598481Y390727D01*
X598484Y390703D01*
X598481Y390680D01*
X598495Y390520D01*
X598974Y387288D01*
X598980Y387265D01*
X598981Y387242D01*
X599021Y387086D01*
X600020Y383975D01*
X600030Y383954D01*
X600035Y383931D01*
X600099Y383783D01*
X601591Y380877D01*
X601605Y380858D01*
X601613Y380836D01*
X601701Y380701D01*
X603647Y378076D01*
X603663Y378059D01*
X603675Y378039D01*
X603784Y377920D01*
X606131Y375648D01*
X606150Y375634D01*
X606165Y375616D01*
X606291Y375516D01*
X608978Y373656D01*
X609020Y373634D01*
X609058Y373605D01*
X609161Y373561D01*
X609260Y373510D01*
X609306Y373499D01*
X609350Y373480D01*
X609461Y373463D01*
X609569Y373438D01*
X609617Y373439D01*
X609664Y373431D01*
X609776Y373442D01*
G37*
G36*
X486349Y341535D02*
X486349Y341535D01*
X487031Y341616D01*
X487098Y341633D01*
X487167Y341640D01*
X487322Y341686D01*
X487966Y341924D01*
X488027Y341956D01*
X488093Y341978D01*
X488232Y342059D01*
X488803Y342441D01*
X488855Y342486D01*
X488914Y342524D01*
X489030Y342635D01*
X489496Y343139D01*
X489537Y343195D01*
X489584Y343245D01*
X489672Y343380D01*
X490007Y343980D01*
X490059Y344108D01*
X490116Y344235D01*
X490122Y344263D01*
X490127Y344275D01*
X490130Y344295D01*
X490152Y344392D01*
X490451Y346192D01*
X490453Y346228D01*
X490461Y346263D01*
X490468Y346424D01*
X490434Y348248D01*
X490429Y348284D01*
X490431Y348320D01*
X490409Y348479D01*
X490043Y350267D01*
X490032Y350301D01*
X490027Y350336D01*
X489976Y350489D01*
X489291Y352180D01*
X489278Y352202D01*
X489273Y352220D01*
X489268Y352227D01*
X489262Y352246D01*
X489184Y352387D01*
X488202Y353925D01*
X488179Y353953D01*
X488162Y353984D01*
X488060Y354108D01*
X486814Y355442D01*
X486786Y355465D01*
X486763Y355493D01*
X486640Y355596D01*
X485172Y356680D01*
X485141Y356698D01*
X485113Y356721D01*
X484973Y356800D01*
X483332Y357599D01*
X483298Y357610D01*
X483267Y357628D01*
X483115Y357681D01*
X481356Y358166D01*
X481320Y358171D01*
X481287Y358183D01*
X481127Y358207D01*
X479309Y358365D01*
X479295Y358364D01*
X479281Y358367D01*
X479136Y358358D01*
X478992Y358352D01*
X478978Y358348D01*
X478963Y358347D01*
X478826Y358302D01*
X478687Y358261D01*
X478674Y358253D01*
X478661Y358249D01*
X478538Y358171D01*
X478414Y358097D01*
X478404Y358087D01*
X478392Y358079D01*
X478292Y357973D01*
X478191Y357870D01*
X478184Y357858D01*
X478174Y357847D01*
X478104Y357721D01*
X478031Y357595D01*
X478027Y357581D01*
X478020Y357569D01*
X477984Y357429D01*
X477945Y357289D01*
X477945Y357275D01*
X477941Y357261D01*
X477931Y357100D01*
X477931Y352100D01*
X477936Y352057D01*
X477934Y352013D01*
X477956Y351900D01*
X477971Y351784D01*
X477987Y351744D01*
X477995Y351701D01*
X478045Y351597D01*
X478088Y351489D01*
X478113Y351454D01*
X478132Y351414D01*
X478206Y351325D01*
X478274Y351231D01*
X478308Y351204D01*
X478336Y351170D01*
X478430Y351103D01*
X478519Y351029D01*
X478559Y351010D01*
X478594Y350985D01*
X478702Y350942D01*
X478807Y350893D01*
X478850Y350885D01*
X478891Y350869D01*
X479049Y350840D01*
X480052Y350719D01*
X480862Y350422D01*
X481580Y349946D01*
X482170Y349317D01*
X482599Y348569D01*
X482844Y347742D01*
X482891Y346882D01*
X482739Y346033D01*
X482336Y345106D01*
X482329Y345082D01*
X482317Y345059D01*
X482284Y344929D01*
X482247Y344801D01*
X482246Y344775D01*
X482240Y344751D01*
X482241Y344617D01*
X482236Y344483D01*
X482242Y344458D01*
X482242Y344433D01*
X482276Y344303D01*
X482305Y344173D01*
X482316Y344150D01*
X482323Y344125D01*
X482393Y343980D01*
X482728Y343380D01*
X482769Y343325D01*
X482802Y343264D01*
X482904Y343139D01*
X483370Y342635D01*
X483423Y342590D01*
X483469Y342539D01*
X483597Y342441D01*
X484168Y342059D01*
X484230Y342028D01*
X484287Y341989D01*
X484434Y341924D01*
X485078Y341686D01*
X485146Y341670D01*
X485210Y341645D01*
X485369Y341616D01*
X486051Y341535D01*
X486120Y341536D01*
X486188Y341527D01*
X486349Y341535D01*
G37*
G36*
X626849Y386435D02*
X626849Y386435D01*
X627531Y386516D01*
X627598Y386533D01*
X627667Y386540D01*
X627822Y386586D01*
X628466Y386824D01*
X628527Y386856D01*
X628593Y386878D01*
X628732Y386959D01*
X629303Y387341D01*
X629355Y387386D01*
X629414Y387424D01*
X629530Y387535D01*
X629996Y388039D01*
X630037Y388095D01*
X630084Y388145D01*
X630172Y388280D01*
X630507Y388880D01*
X630559Y389008D01*
X630616Y389135D01*
X630622Y389163D01*
X630627Y389175D01*
X630630Y389195D01*
X630652Y389292D01*
X630951Y391092D01*
X630953Y391128D01*
X630961Y391163D01*
X630968Y391324D01*
X630934Y393148D01*
X630929Y393184D01*
X630931Y393220D01*
X630909Y393379D01*
X630543Y395167D01*
X630532Y395201D01*
X630527Y395236D01*
X630476Y395389D01*
X629791Y397080D01*
X629778Y397102D01*
X629773Y397120D01*
X629768Y397127D01*
X629762Y397146D01*
X629684Y397287D01*
X628702Y398825D01*
X628679Y398853D01*
X628662Y398884D01*
X628560Y399008D01*
X627314Y400342D01*
X627286Y400365D01*
X627263Y400393D01*
X627140Y400496D01*
X625672Y401580D01*
X625641Y401598D01*
X625613Y401621D01*
X625473Y401700D01*
X623832Y402499D01*
X623798Y402510D01*
X623767Y402528D01*
X623615Y402581D01*
X621856Y403066D01*
X621820Y403071D01*
X621787Y403083D01*
X621627Y403107D01*
X619809Y403265D01*
X619795Y403264D01*
X619781Y403267D01*
X619636Y403258D01*
X619492Y403252D01*
X619478Y403248D01*
X619463Y403247D01*
X619326Y403202D01*
X619187Y403161D01*
X619174Y403153D01*
X619161Y403149D01*
X619038Y403071D01*
X618914Y402997D01*
X618904Y402987D01*
X618892Y402979D01*
X618792Y402873D01*
X618691Y402770D01*
X618684Y402758D01*
X618674Y402747D01*
X618604Y402621D01*
X618531Y402495D01*
X618527Y402481D01*
X618520Y402469D01*
X618484Y402329D01*
X618445Y402189D01*
X618445Y402175D01*
X618441Y402161D01*
X618431Y402000D01*
X618431Y397000D01*
X618436Y396957D01*
X618434Y396913D01*
X618456Y396800D01*
X618471Y396684D01*
X618487Y396644D01*
X618495Y396601D01*
X618545Y396497D01*
X618588Y396389D01*
X618613Y396354D01*
X618632Y396314D01*
X618706Y396225D01*
X618774Y396131D01*
X618808Y396104D01*
X618836Y396070D01*
X618930Y396003D01*
X619019Y395929D01*
X619059Y395910D01*
X619094Y395885D01*
X619202Y395842D01*
X619307Y395793D01*
X619350Y395785D01*
X619391Y395769D01*
X619549Y395740D01*
X620552Y395619D01*
X621362Y395322D01*
X622080Y394846D01*
X622670Y394217D01*
X623099Y393469D01*
X623344Y392642D01*
X623391Y391782D01*
X623239Y390933D01*
X622836Y390006D01*
X622829Y389982D01*
X622817Y389959D01*
X622784Y389829D01*
X622747Y389701D01*
X622746Y389675D01*
X622740Y389651D01*
X622741Y389517D01*
X622736Y389383D01*
X622742Y389358D01*
X622742Y389333D01*
X622776Y389203D01*
X622805Y389073D01*
X622816Y389050D01*
X622823Y389025D01*
X622893Y388880D01*
X623228Y388280D01*
X623269Y388225D01*
X623302Y388164D01*
X623404Y388039D01*
X623870Y387535D01*
X623923Y387490D01*
X623969Y387439D01*
X624097Y387341D01*
X624668Y386959D01*
X624730Y386928D01*
X624787Y386889D01*
X624934Y386824D01*
X625578Y386586D01*
X625646Y386570D01*
X625710Y386545D01*
X625869Y386516D01*
X626551Y386435D01*
X626620Y386436D01*
X626688Y386427D01*
X626849Y386435D01*
G37*
G36*
X479264Y335842D02*
X479264Y335842D01*
X479409Y335848D01*
X479422Y335852D01*
X479437Y335853D01*
X479574Y335898D01*
X479713Y335939D01*
X479726Y335947D01*
X479739Y335951D01*
X479862Y336029D01*
X479986Y336103D01*
X479996Y336113D01*
X480008Y336121D01*
X480108Y336227D01*
X480209Y336330D01*
X480216Y336342D01*
X480226Y336353D01*
X480296Y336479D01*
X480369Y336605D01*
X480373Y336619D01*
X480380Y336631D01*
X480416Y336771D01*
X480455Y336911D01*
X480455Y336925D01*
X480459Y336939D01*
X480469Y337100D01*
X480469Y342100D01*
X480464Y342143D01*
X480466Y342187D01*
X480444Y342301D01*
X480429Y342416D01*
X480413Y342456D01*
X480405Y342499D01*
X480355Y342603D01*
X480312Y342711D01*
X480287Y342747D01*
X480268Y342786D01*
X480194Y342875D01*
X480126Y342969D01*
X480092Y342996D01*
X480064Y343030D01*
X479970Y343097D01*
X479881Y343171D01*
X479841Y343190D01*
X479806Y343215D01*
X479698Y343258D01*
X479593Y343307D01*
X479550Y343315D01*
X479509Y343331D01*
X479351Y343360D01*
X478348Y343481D01*
X477538Y343778D01*
X476820Y344254D01*
X476230Y344883D01*
X475801Y345631D01*
X475556Y346458D01*
X475509Y347318D01*
X475661Y348167D01*
X476064Y349094D01*
X476073Y349126D01*
X476089Y349156D01*
X476118Y349279D01*
X476153Y349399D01*
X476154Y349433D01*
X476162Y349466D01*
X476160Y349591D01*
X476164Y349717D01*
X476157Y349750D01*
X476156Y349784D01*
X476122Y349905D01*
X476095Y350027D01*
X476080Y350058D01*
X476071Y350090D01*
X475999Y350235D01*
X475618Y350895D01*
X475566Y350964D01*
X475522Y351037D01*
X475432Y351140D01*
X475425Y351149D01*
X475422Y351151D01*
X475416Y351158D01*
X474877Y351698D01*
X474809Y351750D01*
X474748Y351810D01*
X474634Y351886D01*
X474625Y351893D01*
X474621Y351894D01*
X474614Y351899D01*
X473953Y352281D01*
X473874Y352314D01*
X473799Y352356D01*
X473670Y352400D01*
X473660Y352404D01*
X473655Y352405D01*
X473647Y352408D01*
X472910Y352605D01*
X472825Y352617D01*
X472742Y352638D01*
X472606Y352647D01*
X472595Y352648D01*
X472591Y352648D01*
X472581Y352648D01*
X471819Y352648D01*
X471733Y352638D01*
X471648Y352637D01*
X471514Y352610D01*
X471503Y352609D01*
X471499Y352607D01*
X471490Y352605D01*
X470753Y352408D01*
X470674Y352375D01*
X470591Y352352D01*
X470469Y352292D01*
X470459Y352287D01*
X470455Y352285D01*
X470447Y352281D01*
X469786Y351899D01*
X469718Y351848D01*
X469644Y351804D01*
X469542Y351714D01*
X469533Y351707D01*
X469530Y351704D01*
X469523Y351698D01*
X468984Y351158D01*
X468932Y351091D01*
X468871Y351029D01*
X468796Y350916D01*
X468789Y350907D01*
X468787Y350903D01*
X468782Y350895D01*
X468401Y350235D01*
X468344Y350099D01*
X468284Y349965D01*
X468281Y349949D01*
X468278Y349941D01*
X468275Y349925D01*
X468248Y349808D01*
X467949Y348008D01*
X467947Y347972D01*
X467939Y347937D01*
X467932Y347776D01*
X467966Y345952D01*
X467971Y345916D01*
X467969Y345880D01*
X467991Y345721D01*
X468357Y343933D01*
X468368Y343899D01*
X468373Y343864D01*
X468424Y343711D01*
X469109Y342020D01*
X469127Y341988D01*
X469138Y341954D01*
X469216Y341813D01*
X470198Y340275D01*
X470221Y340248D01*
X470238Y340216D01*
X470341Y340092D01*
X471586Y338758D01*
X471614Y338735D01*
X471637Y338708D01*
X471760Y338604D01*
X473228Y337520D01*
X473259Y337502D01*
X473287Y337479D01*
X473427Y337400D01*
X475068Y336602D01*
X475102Y336590D01*
X475133Y336572D01*
X475285Y336519D01*
X477044Y336034D01*
X477080Y336029D01*
X477113Y336017D01*
X477273Y335993D01*
X479091Y335835D01*
X479105Y335836D01*
X479120Y335833D01*
X479264Y335842D01*
G37*
G36*
X619764Y380742D02*
X619764Y380742D01*
X619909Y380748D01*
X619922Y380752D01*
X619937Y380753D01*
X620074Y380798D01*
X620213Y380839D01*
X620226Y380847D01*
X620239Y380851D01*
X620362Y380929D01*
X620486Y381003D01*
X620496Y381013D01*
X620508Y381021D01*
X620608Y381127D01*
X620709Y381230D01*
X620716Y381242D01*
X620726Y381253D01*
X620796Y381379D01*
X620869Y381505D01*
X620873Y381519D01*
X620880Y381531D01*
X620916Y381671D01*
X620955Y381811D01*
X620955Y381825D01*
X620959Y381839D01*
X620969Y382000D01*
X620969Y387000D01*
X620964Y387043D01*
X620966Y387087D01*
X620944Y387201D01*
X620929Y387316D01*
X620913Y387356D01*
X620905Y387399D01*
X620855Y387503D01*
X620812Y387611D01*
X620787Y387647D01*
X620768Y387686D01*
X620694Y387775D01*
X620626Y387869D01*
X620592Y387896D01*
X620564Y387930D01*
X620470Y387997D01*
X620381Y388071D01*
X620341Y388090D01*
X620306Y388115D01*
X620198Y388158D01*
X620093Y388207D01*
X620050Y388215D01*
X620009Y388231D01*
X619851Y388260D01*
X618848Y388381D01*
X618038Y388678D01*
X617320Y389154D01*
X616730Y389783D01*
X616301Y390531D01*
X616056Y391358D01*
X616009Y392218D01*
X616161Y393067D01*
X616564Y393994D01*
X616573Y394026D01*
X616589Y394056D01*
X616618Y394179D01*
X616653Y394299D01*
X616654Y394333D01*
X616662Y394366D01*
X616660Y394491D01*
X616664Y394617D01*
X616657Y394650D01*
X616656Y394684D01*
X616622Y394805D01*
X616595Y394927D01*
X616580Y394958D01*
X616571Y394990D01*
X616499Y395135D01*
X616118Y395795D01*
X616066Y395864D01*
X616022Y395937D01*
X615932Y396040D01*
X615925Y396049D01*
X615922Y396051D01*
X615916Y396058D01*
X615377Y396598D01*
X615309Y396650D01*
X615248Y396710D01*
X615134Y396786D01*
X615125Y396793D01*
X615121Y396794D01*
X615114Y396799D01*
X614453Y397181D01*
X614374Y397214D01*
X614299Y397256D01*
X614170Y397300D01*
X614160Y397304D01*
X614155Y397305D01*
X614147Y397308D01*
X613410Y397505D01*
X613325Y397517D01*
X613242Y397538D01*
X613106Y397547D01*
X613095Y397548D01*
X613091Y397548D01*
X613081Y397548D01*
X612319Y397548D01*
X612233Y397538D01*
X612148Y397537D01*
X612014Y397510D01*
X612003Y397509D01*
X611999Y397507D01*
X611990Y397505D01*
X611253Y397308D01*
X611174Y397275D01*
X611091Y397252D01*
X610969Y397192D01*
X610959Y397187D01*
X610955Y397185D01*
X610947Y397181D01*
X610286Y396799D01*
X610218Y396748D01*
X610144Y396704D01*
X610042Y396614D01*
X610033Y396607D01*
X610030Y396604D01*
X610023Y396598D01*
X609484Y396058D01*
X609432Y395991D01*
X609371Y395929D01*
X609296Y395816D01*
X609289Y395807D01*
X609287Y395803D01*
X609282Y395795D01*
X608901Y395135D01*
X608844Y394999D01*
X608784Y394865D01*
X608781Y394849D01*
X608778Y394841D01*
X608775Y394825D01*
X608748Y394708D01*
X608449Y392908D01*
X608447Y392872D01*
X608439Y392837D01*
X608432Y392676D01*
X608466Y390852D01*
X608471Y390816D01*
X608469Y390780D01*
X608491Y390621D01*
X608857Y388833D01*
X608868Y388799D01*
X608873Y388764D01*
X608924Y388611D01*
X609609Y386920D01*
X609627Y386888D01*
X609638Y386854D01*
X609716Y386713D01*
X610698Y385175D01*
X610721Y385148D01*
X610738Y385116D01*
X610841Y384992D01*
X612086Y383658D01*
X612114Y383635D01*
X612137Y383608D01*
X612260Y383504D01*
X613728Y382420D01*
X613759Y382402D01*
X613787Y382379D01*
X613927Y382300D01*
X615568Y381502D01*
X615602Y381490D01*
X615633Y381472D01*
X615785Y381419D01*
X617544Y380934D01*
X617580Y380929D01*
X617613Y380917D01*
X617773Y380893D01*
X619591Y380735D01*
X619605Y380736D01*
X619620Y380733D01*
X619764Y380742D01*
G37*
D10*
X95000Y1130000D03*
X125000Y1130000D03*
D11*
X35000Y969600D03*
X35000Y995000D03*
X35000Y1020400D03*
D12*
X680000Y840000D03*
X680000Y940000D03*
D13*
X119000Y13950D03*
X108000Y13950D03*
X97000Y13950D03*
X86000Y13950D03*
X75000Y13950D03*
X64000Y13950D03*
X53000Y13950D03*
X42000Y13950D03*
D14*
X22600Y130250D03*
D15*
X162450Y20250D03*
D16*
X18550Y18750D03*
X161450Y133550D03*
D17*
X118400Y141500D03*
X40600Y141500D03*
D18*
X22600Y40250D03*
D19*
X430509Y164059D02*
X442591Y164059D01*
X430509Y164059D02*
X430509Y176141D01*
X442591Y176141D01*
X442591Y164059D01*
X442591Y168747D02*
X430509Y168747D01*
X430509Y173435D02*
X442591Y173435D01*
X402591Y164059D02*
X390509Y164059D01*
X390509Y176141D01*
X402591Y176141D01*
X402591Y164059D01*
X402591Y168747D02*
X390509Y168747D01*
X390509Y173435D02*
X402591Y173435D01*
X382591Y156141D02*
X370509Y156141D01*
X382591Y156141D02*
X382591Y144059D01*
X370509Y144059D01*
X370509Y156141D01*
X370509Y148747D02*
X382591Y148747D01*
X382591Y153435D02*
X370509Y153435D01*
X410509Y156141D02*
X422591Y156141D01*
X422591Y144059D01*
X410509Y144059D01*
X410509Y156141D01*
X410509Y148747D02*
X422591Y148747D01*
X422591Y153435D02*
X410509Y153435D01*
D20*
X394876Y168426D02*
X378224Y151774D01*
X398224Y168426D02*
X414876Y151774D01*
X418224Y151774D02*
X434876Y168426D01*
D19*
X422591Y176141D02*
X410509Y176141D01*
X422591Y176141D02*
X422591Y164059D01*
X410509Y164059D01*
X410509Y176141D01*
X410509Y168747D02*
X422591Y168747D01*
X422591Y173435D02*
X410509Y173435D01*
X382591Y176141D02*
X370509Y176141D01*
X382591Y176141D02*
X382591Y164059D01*
X370509Y164059D01*
X370509Y176141D01*
X370509Y168747D02*
X382591Y168747D01*
X382591Y173435D02*
X370509Y173435D01*
X390509Y144059D02*
X402591Y144059D01*
X390509Y144059D02*
X390509Y156141D01*
X402591Y156141D01*
X402591Y144059D01*
X402591Y148747D02*
X390509Y148747D01*
X390509Y153435D02*
X402591Y153435D01*
X430509Y144059D02*
X442591Y144059D01*
X430509Y144059D02*
X430509Y156141D01*
X442591Y156141D01*
X442591Y144059D01*
X442591Y148747D02*
X430509Y148747D01*
X430509Y153435D02*
X442591Y153435D01*
X326591Y164059D02*
X314509Y164059D01*
X314509Y176141D01*
X326591Y176141D01*
X326591Y164059D01*
X326591Y168747D02*
X314509Y168747D01*
X314509Y173435D02*
X326591Y173435D01*
X286591Y164059D02*
X274509Y164059D01*
X274509Y176141D01*
X286591Y176141D01*
X286591Y164059D01*
X286591Y168747D02*
X274509Y168747D01*
X274509Y173435D02*
X286591Y173435D01*
X266591Y156141D02*
X254509Y156141D01*
X266591Y156141D02*
X266591Y144059D01*
X254509Y144059D01*
X254509Y156141D01*
X254509Y148747D02*
X266591Y148747D01*
X266591Y153435D02*
X254509Y153435D01*
X294509Y156141D02*
X306591Y156141D01*
X306591Y144059D01*
X294509Y144059D01*
X294509Y156141D01*
X294509Y148747D02*
X306591Y148747D01*
X306591Y153435D02*
X294509Y153435D01*
D20*
X278876Y168426D02*
X262224Y151774D01*
X282224Y168426D02*
X298876Y151774D01*
X302224Y151774D02*
X318876Y168426D01*
D19*
X306591Y176141D02*
X294509Y176141D01*
X306591Y176141D02*
X306591Y164059D01*
X294509Y164059D01*
X294509Y176141D01*
X294509Y168747D02*
X306591Y168747D01*
X306591Y173435D02*
X294509Y173435D01*
X266591Y176141D02*
X254509Y176141D01*
X266591Y176141D02*
X266591Y164059D01*
X254509Y164059D01*
X254509Y176141D01*
X254509Y168747D02*
X266591Y168747D01*
X266591Y173435D02*
X254509Y173435D01*
X274509Y144059D02*
X286591Y144059D01*
X274509Y144059D02*
X274509Y156141D01*
X286591Y156141D01*
X286591Y144059D01*
X286591Y148747D02*
X274509Y148747D01*
X274509Y153435D02*
X286591Y153435D01*
X314509Y144059D02*
X326591Y144059D01*
X314509Y144059D02*
X314509Y156141D01*
X326591Y156141D01*
X326591Y144059D01*
X326591Y148747D02*
X314509Y148747D01*
X314509Y153435D02*
X326591Y153435D01*
D21*
X479200Y369600D03*
X479200Y324600D03*
X619700Y414500D03*
X619700Y369500D03*
D22*
G36*
X150932Y431591D02*
X126770Y438064D01*
X128068Y442909D01*
X152230Y436436D01*
X150932Y431591D01*
G37*
G36*
X91770Y436436D02*
X115932Y442909D01*
X117230Y438064D01*
X93068Y431591D01*
X91770Y436436D01*
G37*
G36*
X93068Y306409D02*
X117230Y299936D01*
X115932Y295091D01*
X91770Y301564D01*
X93068Y306409D01*
G37*
G36*
X152230Y301564D02*
X128068Y295091D01*
X126770Y299936D01*
X150932Y306409D01*
X152230Y301564D01*
G37*
G36*
X59409Y397932D02*
X52936Y373770D01*
X48091Y375068D01*
X54564Y399230D01*
X59409Y397932D01*
G37*
G36*
X54564Y338770D02*
X48091Y362932D01*
X52936Y364230D01*
X59409Y340068D01*
X54564Y338770D01*
G37*
G36*
X184591Y340068D02*
X191064Y364230D01*
X195909Y362932D01*
X189436Y338770D01*
X184591Y340068D01*
G37*
G36*
X189436Y399230D02*
X195909Y375068D01*
X191064Y373770D01*
X184591Y397932D01*
X189436Y399230D01*
G37*
D23*
X482500Y75000D03*
X482500Y49600D03*
D24*
X391000Y40000D03*
X340000Y90000D03*
X366000Y90000D03*
X416000Y90000D03*
X442000Y90000D03*
D25*
X341000Y40000D03*
X341000Y15000D03*
X441000Y15000D03*
X441000Y40000D03*
X391000Y90000D03*
D12*
X10000Y800000D03*
X10000Y700000D03*
D26*
X676000Y1078000D03*
X21500Y1068000D03*
X19000Y638000D03*
X676000Y638000D03*
X671000Y291500D03*
D27*
X566000Y311000D03*
D28*
X536000Y411000D03*
D26*
X291000Y336000D03*
D28*
X237000Y272000D03*
D26*
X227000Y224000D03*
X20500Y235000D03*
D29*
X466000Y224000D03*
D30*
X247200Y976100D03*
X252200Y976100D03*
X257200Y976100D03*
X262200Y976100D03*
X267200Y976100D03*
X272200Y976100D03*
X277200Y976100D03*
X282200Y976100D03*
X287200Y976100D03*
X292200Y976100D03*
X297200Y976100D03*
X302200Y976100D03*
X307200Y976100D03*
X312200Y976100D03*
X317200Y976100D03*
X322200Y976100D03*
X327200Y976100D03*
X332200Y976100D03*
X337200Y976100D03*
X342200Y976100D03*
X347200Y976100D03*
X352200Y976100D03*
X357200Y976100D03*
X362200Y976100D03*
X367200Y976100D03*
X372200Y976100D03*
X377200Y976100D03*
X382200Y976100D03*
X387200Y976100D03*
X392200Y976100D03*
X397200Y976100D03*
X402200Y976100D03*
X407200Y976100D03*
X412200Y976100D03*
X417200Y976100D03*
X422200Y976100D03*
X427200Y976100D03*
X432200Y976100D03*
X437200Y976100D03*
X442200Y976100D03*
X447200Y976100D03*
X452200Y976100D03*
X457200Y976100D03*
X462200Y976100D03*
X467200Y976100D03*
D31*
X486200Y943600D03*
X228200Y943600D03*
D32*
X50000Y854100D03*
X50000Y911900D03*
D23*
X320000Y1110000D03*
X294600Y1110000D03*
X269200Y1110000D03*
X243800Y1110000D03*
X218400Y1110000D03*
X193000Y1110000D03*
D33*
X555000Y695000D03*
X472500Y515000D03*
X662500Y455000D03*
X212500Y140000D03*
X120000Y65000D03*
X65000Y95000D03*
X107500Y915000D03*
X285000Y1030500D03*
D34*
X86000Y34000D03*
D33*
X470000Y1040000D03*
X122500Y210000D03*
X86000Y127500D03*
X390000Y1000000D03*
X430000Y700000D03*
X285000Y1080000D03*
X370000Y940000D03*
X397200Y951000D03*
D34*
X160000Y175000D03*
D33*
X410000Y540000D03*
X500000Y750000D03*
D34*
X150000Y185000D03*
D33*
X400000Y550000D03*
X490000Y780000D03*
X370000Y1000000D03*
D34*
X180000Y155000D03*
D33*
X430000Y520000D03*
X480000Y1020000D03*
X420000Y1030000D03*
D34*
X170000Y165000D03*
D33*
X420000Y530000D03*
X55000Y195000D03*
X135000Y195000D03*
X390000Y560000D03*
X480000Y880000D03*
X540000Y760000D03*
X555000Y963700D03*
X555000Y950000D03*
X200000Y490000D03*
X395000Y795000D03*
X470000Y870000D03*
X240000Y505000D03*
X405000Y785000D03*
X460000Y840000D03*
X350000Y195000D03*
X540000Y990000D03*
X125000Y1000000D03*
X125000Y930000D03*
X430000Y680000D03*
X400000Y590000D03*
X445000Y490000D03*
X150000Y995000D03*
X100000Y1090000D03*
X132500Y1090000D03*
X600000Y890000D03*
X310000Y1080000D03*
X560000Y1060000D03*
X210000Y495000D03*
X250000Y495000D03*
X590000Y1010000D03*
X630000Y970000D03*
M02*
