M48
;GenerationSoftware,Autodesk,EAGLE,9.6.2*%
;CreationDate,2022-03-09T13:16:56Z*%
FMAT,2
ICI,OFF
METRIC,TZ,000.000
T13C0.300
T12C0.610
T11C0.650
T10C0.800
T9C0.900
T8C1.016
T7C1.200
T6C1.300
T5C1.600
T4C2.200
T3C2.600
T2C3.500
T1C3.800
%
G90
M71
T1
X56600Y31100
T2
X46600Y22400
T3
X29100Y33600
X22700Y22400
X67100Y29150
X2050Y23500
X67600Y63800
X1900Y63800
X2150Y106800
X67600Y107800
T4
X53600Y41100
X23700Y27200
T5
X1000Y70000
X1000Y80000
X68000Y94000
X68000Y84000
T6
X41600Y9000
X44200Y9000
X39100Y4000
X36600Y9000
X34000Y9000
T7
X39100Y9000
X44100Y4000
X44100Y1500
X34100Y1500
X34100Y4000
T8
X48250Y7500
X48250Y4960
X32000Y111000
X29460Y111000
X26920Y111000
X24380Y111000
X21840Y111000
X19300Y111000
T9
X9500Y113000
X12500Y113000
T10
X3500Y96960
X3500Y99500
X3500Y102040
T11
X5000Y85410
X5000Y91190
T12
X18000Y15500
X17000Y16500
X15000Y18500
X16000Y17500
X8600Y3400
T13
X12500Y93000
X43000Y68000
X40000Y59000
X44500Y49000
X55500Y69500
X10000Y109000
X13250Y109000
X60000Y89000
X31000Y108000
X56000Y106000
X21000Y49500
X25000Y49500
X59000Y101000
X63000Y97000
X12500Y100000
X54000Y99000
X35000Y19500
X46000Y84000
X40500Y78500
X24000Y50500
X47000Y87000
X39500Y79500
X20000Y49000
X55500Y95000
X55500Y96370
X54000Y76000
X48000Y88000
X39000Y56000
X13500Y19500
X5500Y19500
X42000Y53000
X42000Y103000
X48000Y102000
X43000Y52000
X37000Y100000
X49000Y78000
X40000Y55000
X50000Y75000
X41000Y54000
X39720Y95100
X37000Y94000
X28500Y108000
X43000Y70000
X39000Y100000
X8600Y12750
X12250Y21000
X47000Y104000
X28500Y103050
X10750Y91500
X6500Y9500
X12000Y6500
X21250Y14000
X66250Y45500
X47250Y51500
X15000Y99500
M30