G04 EAGLE Gerber RS-274X export*
G75*
%MOMM*%
%FSLAX34Y34*%
%LPD*%
%INTop Paste*%
%IPPOS*%
%AMOC8*
5,1,8,0,0,1.08239X$1,22.5*%
G01*
%ADD10R,0.800000X1.240000*%
%ADD11R,1.160000X1.200000*%
%ADD12R,0.950000X2.500000*%
%ADD13R,1.150000X2.200000*%
%ADD14R,1.500000X1.150000*%
%ADD15R,1.160000X1.250000*%
%ADD16C,0.400000*%
%ADD17C,0.185000*%
%ADD18R,0.500000X3.500000*%
%ADD19R,2.400000X0.400000*%
%ADD20R,0.250000X1.250000*%
%ADD21R,1.650000X2.050000*%

G36*
X130541Y257881D02*
X130541Y257881D01*
X130543Y257881D01*
X135097Y259524D01*
X135103Y259529D01*
X135112Y259530D01*
X139405Y261767D01*
X139411Y261774D01*
X139420Y261776D01*
X143375Y264568D01*
X143379Y264575D01*
X143388Y264579D01*
X146934Y267874D01*
X146937Y267882D01*
X146943Y267886D01*
X146944Y267886D01*
X146945Y267887D01*
X150018Y271628D01*
X150021Y271636D01*
X150028Y271641D01*
X152572Y275760D01*
X152574Y275768D01*
X152580Y275775D01*
X154550Y280197D01*
X154551Y280205D01*
X154556Y280213D01*
X155917Y284859D01*
X155916Y284867D01*
X155921Y284875D01*
X156647Y289661D01*
X156645Y289669D01*
X156648Y289678D01*
X156728Y294518D01*
X156724Y294526D01*
X156727Y294535D01*
X156157Y299343D01*
X156153Y299350D01*
X156154Y299359D01*
X154947Y304047D01*
X154941Y304054D01*
X154941Y304063D01*
X153117Y308548D01*
X153110Y308554D01*
X153109Y308563D01*
X153076Y308588D01*
X153047Y308617D01*
X153038Y308617D01*
X153031Y308622D01*
X152978Y308616D01*
X152949Y308615D01*
X152945Y308612D01*
X152940Y308611D01*
X147843Y305876D01*
X142494Y303691D01*
X136946Y302077D01*
X131260Y301052D01*
X125491Y300626D01*
X125452Y300606D01*
X125411Y300589D01*
X125408Y300584D01*
X125403Y300581D01*
X125395Y300553D01*
X125374Y300506D01*
X124873Y289739D01*
X124875Y289733D01*
X124873Y289725D01*
X125547Y278968D01*
X125550Y278962D01*
X125548Y278955D01*
X127389Y268335D01*
X127393Y268329D01*
X127392Y268321D01*
X130379Y257965D01*
X130383Y257960D01*
X130383Y257953D01*
X130413Y257922D01*
X130441Y257889D01*
X130447Y257888D01*
X130452Y257883D01*
X130517Y257882D01*
X130539Y257880D01*
X130541Y257881D01*
G37*
G36*
X91022Y429384D02*
X91022Y429384D01*
X91051Y429385D01*
X91055Y429388D01*
X91060Y429389D01*
X96157Y432124D01*
X101506Y434309D01*
X107054Y435923D01*
X112740Y436948D01*
X118509Y437374D01*
X118548Y437394D01*
X118589Y437411D01*
X118592Y437417D01*
X118597Y437419D01*
X118606Y437447D01*
X118626Y437494D01*
X119127Y448261D01*
X119125Y448267D01*
X119127Y448275D01*
X118453Y459032D01*
X118450Y459038D01*
X118452Y459045D01*
X116611Y469665D01*
X116607Y469671D01*
X116608Y469679D01*
X113621Y480035D01*
X113617Y480040D01*
X113617Y480047D01*
X113587Y480078D01*
X113559Y480111D01*
X113553Y480112D01*
X113548Y480117D01*
X113483Y480118D01*
X113461Y480120D01*
X113460Y480119D01*
X113457Y480119D01*
X108903Y478476D01*
X108897Y478471D01*
X108888Y478470D01*
X104595Y476233D01*
X104589Y476226D01*
X104580Y476224D01*
X100625Y473432D01*
X100621Y473425D01*
X100612Y473422D01*
X97066Y470126D01*
X97063Y470118D01*
X97057Y470114D01*
X97056Y470114D01*
X97055Y470113D01*
X93982Y466372D01*
X93979Y466364D01*
X93972Y466359D01*
X91428Y462240D01*
X91426Y462232D01*
X91420Y462225D01*
X89450Y457803D01*
X89449Y457795D01*
X89444Y457787D01*
X88083Y453142D01*
X88084Y453133D01*
X88080Y453125D01*
X87353Y448339D01*
X87355Y448331D01*
X87352Y448322D01*
X87272Y443482D01*
X87276Y443474D01*
X87273Y443465D01*
X87843Y438657D01*
X87847Y438650D01*
X87846Y438641D01*
X89053Y433953D01*
X89059Y433946D01*
X89059Y433937D01*
X90883Y429452D01*
X90890Y429446D01*
X90891Y429437D01*
X90924Y429412D01*
X90953Y429383D01*
X90962Y429383D01*
X90969Y429378D01*
X91022Y429384D01*
G37*
G36*
X201267Y371875D02*
X201267Y371875D01*
X201275Y371873D01*
X212032Y372547D01*
X212038Y372550D01*
X212045Y372548D01*
X222665Y374389D01*
X222671Y374393D01*
X222679Y374392D01*
X233035Y377379D01*
X233040Y377383D01*
X233047Y377383D01*
X233078Y377413D01*
X233111Y377441D01*
X233112Y377447D01*
X233117Y377452D01*
X233118Y377517D01*
X233120Y377539D01*
X233119Y377541D01*
X233119Y377543D01*
X231476Y382097D01*
X231471Y382103D01*
X231470Y382112D01*
X229233Y386405D01*
X229226Y386411D01*
X229224Y386420D01*
X226432Y390375D01*
X226425Y390379D01*
X226422Y390388D01*
X223126Y393934D01*
X223118Y393937D01*
X223113Y393945D01*
X219372Y397018D01*
X219364Y397021D01*
X219359Y397028D01*
X215240Y399572D01*
X215232Y399574D01*
X215225Y399580D01*
X210803Y401550D01*
X210795Y401551D01*
X210787Y401556D01*
X206142Y402917D01*
X206133Y402916D01*
X206125Y402921D01*
X201339Y403647D01*
X201331Y403645D01*
X201322Y403648D01*
X196482Y403728D01*
X196474Y403724D01*
X196465Y403727D01*
X191657Y403157D01*
X191650Y403153D01*
X191641Y403154D01*
X186953Y401947D01*
X186946Y401941D01*
X186937Y401941D01*
X182452Y400117D01*
X182446Y400110D01*
X182437Y400109D01*
X182412Y400076D01*
X182383Y400047D01*
X182383Y400038D01*
X182378Y400031D01*
X182384Y399978D01*
X182385Y399949D01*
X182388Y399945D01*
X182389Y399940D01*
X185124Y394843D01*
X187309Y389494D01*
X188923Y383946D01*
X189948Y378260D01*
X190374Y372491D01*
X190394Y372452D01*
X190411Y372411D01*
X190417Y372408D01*
X190419Y372403D01*
X190447Y372395D01*
X190494Y372374D01*
X201261Y371873D01*
X201267Y371875D01*
G37*
G36*
X53506Y372374D02*
X53506Y372374D01*
X53546Y372393D01*
X53587Y372408D01*
X53590Y372414D01*
X53595Y372416D01*
X53604Y372445D01*
X53626Y372491D01*
X54052Y378260D01*
X55077Y383946D01*
X56691Y389494D01*
X58876Y394843D01*
X61611Y399940D01*
X61612Y399949D01*
X61618Y399956D01*
X61617Y399997D01*
X61620Y400038D01*
X61614Y400045D01*
X61614Y400055D01*
X61575Y400091D01*
X61556Y400113D01*
X61551Y400113D01*
X61548Y400117D01*
X57063Y401941D01*
X57055Y401941D01*
X57047Y401947D01*
X52359Y403154D01*
X52351Y403153D01*
X52343Y403157D01*
X47535Y403727D01*
X47527Y403724D01*
X47518Y403728D01*
X42678Y403648D01*
X42670Y403645D01*
X42661Y403647D01*
X37875Y402921D01*
X37868Y402916D01*
X37859Y402917D01*
X33213Y401556D01*
X33206Y401551D01*
X33197Y401550D01*
X28775Y399580D01*
X28769Y399574D01*
X28760Y399572D01*
X24641Y397028D01*
X24636Y397021D01*
X24628Y397018D01*
X20887Y393945D01*
X20883Y393938D01*
X20874Y393934D01*
X17579Y390388D01*
X17576Y390380D01*
X17568Y390375D01*
X14776Y386420D01*
X14774Y386412D01*
X14767Y386405D01*
X12530Y382112D01*
X12530Y382104D01*
X12524Y382097D01*
X10881Y377543D01*
X10882Y377536D01*
X10878Y377531D01*
X10884Y377488D01*
X10887Y377445D01*
X10892Y377440D01*
X10893Y377434D01*
X10944Y377394D01*
X10961Y377380D01*
X10963Y377380D01*
X10965Y377379D01*
X21321Y374392D01*
X21328Y374393D01*
X21335Y374389D01*
X31955Y372548D01*
X31961Y372550D01*
X31968Y372547D01*
X42725Y371873D01*
X42732Y371875D01*
X42739Y371873D01*
X53506Y372374D01*
G37*
G36*
X113512Y257884D02*
X113512Y257884D01*
X113556Y257887D01*
X113560Y257892D01*
X113566Y257893D01*
X113606Y257944D01*
X113620Y257961D01*
X113620Y257963D01*
X113621Y257965D01*
X116608Y268321D01*
X116607Y268328D01*
X116611Y268335D01*
X118452Y278955D01*
X118450Y278961D01*
X118450Y278962D01*
X118453Y278968D01*
X119127Y289725D01*
X119125Y289732D01*
X119127Y289739D01*
X118626Y300506D01*
X118607Y300546D01*
X118592Y300587D01*
X118586Y300590D01*
X118584Y300595D01*
X118555Y300604D01*
X118509Y300626D01*
X112740Y301052D01*
X107054Y302077D01*
X101506Y303691D01*
X96157Y305876D01*
X91060Y308611D01*
X91051Y308612D01*
X91044Y308618D01*
X91003Y308617D01*
X90962Y308620D01*
X90955Y308614D01*
X90945Y308614D01*
X90909Y308575D01*
X90887Y308556D01*
X90887Y308551D01*
X90883Y308548D01*
X89059Y304063D01*
X89059Y304055D01*
X89053Y304047D01*
X87846Y299359D01*
X87847Y299351D01*
X87843Y299343D01*
X87273Y294535D01*
X87276Y294527D01*
X87272Y294518D01*
X87273Y294482D01*
X87279Y294104D01*
X87279Y294103D01*
X87281Y293977D01*
X87283Y293851D01*
X87292Y293346D01*
X87294Y293220D01*
X87296Y293094D01*
X87296Y293093D01*
X87304Y292589D01*
X87304Y292588D01*
X87306Y292462D01*
X87308Y292336D01*
X87316Y291831D01*
X87318Y291705D01*
X87321Y291579D01*
X87321Y291578D01*
X87329Y291074D01*
X87329Y291073D01*
X87331Y290947D01*
X87333Y290821D01*
X87339Y290442D01*
X87341Y290316D01*
X87343Y290190D01*
X87345Y290064D01*
X87345Y290063D01*
X87352Y289685D01*
X87352Y289678D01*
X87355Y289670D01*
X87353Y289661D01*
X88080Y284875D01*
X88084Y284868D01*
X88083Y284859D01*
X89444Y280213D01*
X89449Y280206D01*
X89450Y280197D01*
X91420Y275775D01*
X91426Y275769D01*
X91428Y275760D01*
X93972Y271641D01*
X93979Y271636D01*
X93982Y271628D01*
X97055Y267887D01*
X97060Y267884D01*
X97062Y267880D01*
X97064Y267880D01*
X97066Y267874D01*
X100612Y264579D01*
X100620Y264576D01*
X100625Y264568D01*
X104580Y261776D01*
X104588Y261774D01*
X104595Y261767D01*
X108888Y259530D01*
X108896Y259530D01*
X108903Y259524D01*
X113457Y257881D01*
X113464Y257882D01*
X113469Y257878D01*
X113512Y257884D01*
G37*
G36*
X153045Y429386D02*
X153045Y429386D01*
X153055Y429386D01*
X153091Y429425D01*
X153113Y429444D01*
X153113Y429449D01*
X153117Y429452D01*
X154941Y433937D01*
X154941Y433945D01*
X154947Y433953D01*
X156154Y438641D01*
X156153Y438649D01*
X156157Y438657D01*
X156727Y443465D01*
X156724Y443473D01*
X156728Y443482D01*
X156727Y443518D01*
X156721Y443897D01*
X156719Y444023D01*
X156717Y444149D01*
X156708Y444654D01*
X156706Y444780D01*
X156704Y444906D01*
X156704Y444907D01*
X156696Y445412D01*
X156694Y445538D01*
X156692Y445664D01*
X156684Y446169D01*
X156682Y446295D01*
X156679Y446421D01*
X156680Y446422D01*
X156679Y446422D01*
X156671Y446926D01*
X156671Y446927D01*
X156669Y447053D01*
X156667Y447179D01*
X156661Y447558D01*
X156659Y447684D01*
X156657Y447810D01*
X156655Y447936D01*
X156655Y447937D01*
X156648Y448315D01*
X156648Y448322D01*
X156645Y448330D01*
X156647Y448339D01*
X155921Y453125D01*
X155916Y453132D01*
X155917Y453142D01*
X154556Y457787D01*
X154551Y457794D01*
X154550Y457803D01*
X152580Y462225D01*
X152574Y462231D01*
X152572Y462240D01*
X150028Y466359D01*
X150021Y466364D01*
X150018Y466372D01*
X146945Y470113D01*
X146940Y470116D01*
X146938Y470120D01*
X146936Y470121D01*
X146934Y470126D01*
X143388Y473422D01*
X143380Y473424D01*
X143375Y473432D01*
X139420Y476224D01*
X139412Y476226D01*
X139405Y476233D01*
X135112Y478470D01*
X135104Y478470D01*
X135097Y478476D01*
X130543Y480119D01*
X130536Y480118D01*
X130531Y480122D01*
X130488Y480116D01*
X130445Y480113D01*
X130440Y480108D01*
X130434Y480107D01*
X130394Y480056D01*
X130380Y480039D01*
X130380Y480037D01*
X130379Y480035D01*
X127392Y469679D01*
X127393Y469672D01*
X127389Y469665D01*
X125548Y459045D01*
X125550Y459039D01*
X125550Y459038D01*
X125547Y459032D01*
X124873Y448275D01*
X124875Y448268D01*
X124873Y448261D01*
X125374Y437494D01*
X125393Y437454D01*
X125408Y437413D01*
X125414Y437410D01*
X125416Y437405D01*
X125445Y437396D01*
X125491Y437374D01*
X131260Y436948D01*
X136946Y435923D01*
X142494Y434309D01*
X147843Y432124D01*
X152940Y429389D01*
X152949Y429388D01*
X152956Y429382D01*
X152997Y429384D01*
X153038Y429380D01*
X153045Y429386D01*
G37*
G36*
X47526Y334276D02*
X47526Y334276D01*
X47535Y334273D01*
X52343Y334843D01*
X52350Y334847D01*
X52359Y334846D01*
X57047Y336053D01*
X57054Y336059D01*
X57063Y336059D01*
X61548Y337883D01*
X61554Y337890D01*
X61563Y337891D01*
X61588Y337924D01*
X61617Y337953D01*
X61617Y337962D01*
X61622Y337969D01*
X61616Y338022D01*
X61615Y338051D01*
X61612Y338055D01*
X61611Y338060D01*
X58876Y343157D01*
X56691Y348506D01*
X55077Y354054D01*
X54052Y359740D01*
X53626Y365509D01*
X53606Y365548D01*
X53589Y365589D01*
X53584Y365592D01*
X53581Y365597D01*
X53553Y365606D01*
X53506Y365626D01*
X42739Y366127D01*
X42733Y366125D01*
X42725Y366127D01*
X31968Y365453D01*
X31962Y365450D01*
X31955Y365452D01*
X21335Y363611D01*
X21329Y363607D01*
X21321Y363608D01*
X10965Y360621D01*
X10960Y360617D01*
X10953Y360617D01*
X10922Y360587D01*
X10889Y360559D01*
X10888Y360553D01*
X10883Y360548D01*
X10882Y360483D01*
X10880Y360461D01*
X10881Y360460D01*
X10881Y360457D01*
X12524Y355903D01*
X12529Y355897D01*
X12530Y355888D01*
X14767Y351595D01*
X14774Y351589D01*
X14776Y351580D01*
X17568Y347625D01*
X17575Y347621D01*
X17579Y347612D01*
X20874Y344066D01*
X20882Y344063D01*
X20887Y344055D01*
X24628Y340982D01*
X24636Y340979D01*
X24641Y340972D01*
X28760Y338428D01*
X28768Y338426D01*
X28775Y338420D01*
X33197Y336450D01*
X33205Y336449D01*
X33213Y336444D01*
X37859Y335083D01*
X37867Y335084D01*
X37875Y335080D01*
X42661Y334353D01*
X42669Y334355D01*
X42678Y334352D01*
X47518Y334272D01*
X47526Y334276D01*
G37*
G36*
X201322Y334352D02*
X201322Y334352D01*
X201330Y334355D01*
X201339Y334353D01*
X206125Y335080D01*
X206132Y335084D01*
X206142Y335083D01*
X210787Y336444D01*
X210794Y336449D01*
X210803Y336450D01*
X215225Y338420D01*
X215231Y338426D01*
X215240Y338428D01*
X219359Y340972D01*
X219364Y340979D01*
X219372Y340982D01*
X223113Y344055D01*
X223117Y344062D01*
X223126Y344066D01*
X226422Y347612D01*
X226424Y347620D01*
X226432Y347625D01*
X229224Y351580D01*
X229226Y351588D01*
X229233Y351595D01*
X231470Y355888D01*
X231470Y355896D01*
X231476Y355903D01*
X233119Y360457D01*
X233118Y360464D01*
X233122Y360469D01*
X233116Y360512D01*
X233113Y360556D01*
X233108Y360560D01*
X233107Y360566D01*
X233056Y360606D01*
X233039Y360620D01*
X233037Y360620D01*
X233035Y360621D01*
X222679Y363608D01*
X222672Y363607D01*
X222665Y363611D01*
X212045Y365452D01*
X212039Y365450D01*
X212032Y365453D01*
X201275Y366127D01*
X201268Y366125D01*
X201261Y366127D01*
X190494Y365626D01*
X190454Y365607D01*
X190413Y365592D01*
X190410Y365586D01*
X190405Y365584D01*
X190396Y365555D01*
X190374Y365509D01*
X189948Y359740D01*
X188923Y354054D01*
X187309Y348506D01*
X185124Y343157D01*
X182389Y338060D01*
X182388Y338051D01*
X182382Y338044D01*
X182384Y338003D01*
X182380Y337962D01*
X182386Y337955D01*
X182386Y337945D01*
X182425Y337909D01*
X182444Y337887D01*
X182449Y337887D01*
X182452Y337883D01*
X186937Y336059D01*
X186945Y336059D01*
X186953Y336053D01*
X191641Y334846D01*
X191649Y334847D01*
X191657Y334843D01*
X196465Y334273D01*
X196473Y334276D01*
X196482Y334272D01*
X201322Y334352D01*
G37*
G36*
X479243Y316992D02*
X479243Y316992D01*
X479284Y317005D01*
X479287Y317012D01*
X479293Y317015D01*
X479315Y317071D01*
X479326Y317094D01*
X479325Y317097D01*
X479326Y317100D01*
X479326Y322100D01*
X479308Y322143D01*
X479293Y322186D01*
X479289Y322187D01*
X479288Y322191D01*
X479263Y322200D01*
X479211Y322226D01*
X475472Y322554D01*
X471834Y323436D01*
X468368Y324852D01*
X465154Y326772D01*
X462264Y329151D01*
X459762Y331937D01*
X457705Y335065D01*
X456140Y338466D01*
X455102Y342063D01*
X454614Y345775D01*
X454688Y349518D01*
X455321Y353208D01*
X456499Y356762D01*
X458196Y360098D01*
X460374Y363144D01*
X462983Y365829D01*
X465965Y368093D01*
X469260Y369889D01*
X469261Y369890D01*
X469263Y369891D01*
X469924Y370272D01*
X469933Y370285D01*
X469939Y370287D01*
X469945Y370290D01*
X469950Y370292D01*
X470489Y370832D01*
X470495Y370846D01*
X470510Y370858D01*
X470891Y371519D01*
X470893Y371534D01*
X470904Y371549D01*
X471101Y372286D01*
X471099Y372302D01*
X471105Y372319D01*
X471105Y373081D01*
X471099Y373096D01*
X471101Y373114D01*
X470904Y373851D01*
X470894Y373864D01*
X470891Y373882D01*
X470510Y374542D01*
X470497Y374552D01*
X470489Y374568D01*
X469950Y375108D01*
X469935Y375114D01*
X469924Y375128D01*
X469263Y375509D01*
X469250Y375511D01*
X469240Y375520D01*
X469196Y375518D01*
X469165Y375521D01*
X469159Y375516D01*
X469149Y375515D01*
X465118Y373726D01*
X465112Y373719D01*
X465102Y373717D01*
X461377Y371356D01*
X461372Y371349D01*
X461362Y371345D01*
X458023Y368464D01*
X458019Y368456D01*
X458010Y368451D01*
X455129Y365113D01*
X455126Y365104D01*
X455118Y365098D01*
X452757Y361373D01*
X452755Y361364D01*
X452748Y361357D01*
X450958Y357327D01*
X450957Y357317D01*
X450951Y357309D01*
X449771Y353060D01*
X449772Y353051D01*
X449767Y353042D01*
X449221Y348666D01*
X449223Y348661D01*
X449222Y348658D01*
X449223Y348656D01*
X449220Y348647D01*
X449234Y348027D01*
X449240Y347775D01*
X449246Y347522D01*
X449252Y347270D01*
X449258Y347017D01*
X449263Y346765D01*
X449269Y346512D01*
X449275Y346260D01*
X449301Y345124D01*
X449301Y345123D01*
X449307Y344871D01*
X449312Y344619D01*
X449312Y344618D01*
X449318Y344366D01*
X449321Y344239D01*
X449325Y344230D01*
X449323Y344220D01*
X450068Y339874D01*
X450073Y339866D01*
X450073Y339856D01*
X451447Y335665D01*
X451453Y335658D01*
X451454Y335648D01*
X453427Y331704D01*
X453434Y331698D01*
X453436Y331688D01*
X455966Y328075D01*
X455973Y328071D01*
X455977Y328061D01*
X459008Y324858D01*
X459017Y324854D01*
X459022Y324845D01*
X462490Y322120D01*
X462498Y322118D01*
X462505Y322110D01*
X466334Y319922D01*
X466343Y319921D01*
X466351Y319914D01*
X470459Y318311D01*
X470468Y318311D01*
X470477Y318306D01*
X474775Y317321D01*
X474784Y317323D01*
X474794Y317318D01*
X479190Y316974D01*
X479197Y316976D01*
X479204Y316974D01*
X479243Y316992D01*
G37*
G36*
X619743Y361892D02*
X619743Y361892D01*
X619784Y361905D01*
X619787Y361912D01*
X619793Y361915D01*
X619815Y361971D01*
X619826Y361994D01*
X619825Y361997D01*
X619826Y362000D01*
X619826Y367000D01*
X619808Y367043D01*
X619793Y367086D01*
X619789Y367087D01*
X619788Y367091D01*
X619763Y367100D01*
X619711Y367126D01*
X615972Y367454D01*
X612334Y368336D01*
X608868Y369752D01*
X605654Y371672D01*
X602764Y374051D01*
X600262Y376837D01*
X598205Y379965D01*
X596640Y383366D01*
X595602Y386963D01*
X595114Y390675D01*
X595188Y394418D01*
X595821Y398108D01*
X596999Y401662D01*
X598696Y404998D01*
X600874Y408044D01*
X603483Y410729D01*
X606465Y412993D01*
X609760Y414789D01*
X609761Y414790D01*
X609763Y414791D01*
X610424Y415172D01*
X610433Y415185D01*
X610439Y415187D01*
X610445Y415190D01*
X610450Y415192D01*
X610989Y415732D01*
X610995Y415746D01*
X611010Y415758D01*
X611391Y416419D01*
X611393Y416434D01*
X611404Y416449D01*
X611601Y417186D01*
X611599Y417202D01*
X611605Y417219D01*
X611605Y417981D01*
X611599Y417996D01*
X611601Y418014D01*
X611404Y418751D01*
X611394Y418764D01*
X611391Y418782D01*
X611010Y419442D01*
X610997Y419452D01*
X610989Y419468D01*
X610450Y420008D01*
X610435Y420014D01*
X610424Y420028D01*
X609763Y420409D01*
X609750Y420411D01*
X609740Y420420D01*
X609696Y420418D01*
X609665Y420421D01*
X609659Y420416D01*
X609649Y420415D01*
X605618Y418626D01*
X605612Y418619D01*
X605602Y418617D01*
X601877Y416256D01*
X601872Y416249D01*
X601862Y416245D01*
X598523Y413364D01*
X598519Y413356D01*
X598510Y413351D01*
X595629Y410013D01*
X595626Y410004D01*
X595618Y409998D01*
X593257Y406273D01*
X593255Y406264D01*
X593248Y406257D01*
X591458Y402227D01*
X591457Y402217D01*
X591451Y402209D01*
X590271Y397960D01*
X590272Y397951D01*
X590267Y397942D01*
X589721Y393566D01*
X589723Y393561D01*
X589722Y393558D01*
X589723Y393556D01*
X589720Y393547D01*
X589734Y392927D01*
X589740Y392675D01*
X589746Y392422D01*
X589752Y392170D01*
X589758Y391917D01*
X589763Y391665D01*
X589769Y391412D01*
X589775Y391160D01*
X589801Y390024D01*
X589801Y390023D01*
X589807Y389771D01*
X589812Y389519D01*
X589812Y389518D01*
X589818Y389266D01*
X589821Y389139D01*
X589825Y389130D01*
X589823Y389120D01*
X590568Y384774D01*
X590573Y384766D01*
X590573Y384756D01*
X591947Y380565D01*
X591953Y380558D01*
X591954Y380548D01*
X593927Y376604D01*
X593934Y376598D01*
X593936Y376588D01*
X596466Y372975D01*
X596473Y372971D01*
X596477Y372961D01*
X599508Y369758D01*
X599517Y369754D01*
X599522Y369745D01*
X602990Y367020D01*
X602998Y367018D01*
X603005Y367010D01*
X606834Y364822D01*
X606843Y364821D01*
X606851Y364814D01*
X610959Y363211D01*
X610968Y363211D01*
X610977Y363206D01*
X615275Y362221D01*
X615284Y362223D01*
X615294Y362218D01*
X619690Y361874D01*
X619697Y361876D01*
X619704Y361874D01*
X619743Y361892D01*
G37*
G36*
X629742Y363584D02*
X629742Y363584D01*
X629751Y363585D01*
X633782Y365374D01*
X633788Y365381D01*
X633798Y365383D01*
X637523Y367744D01*
X637528Y367751D01*
X637538Y367755D01*
X640877Y370636D01*
X640881Y370644D01*
X640890Y370649D01*
X643771Y373987D01*
X643774Y373996D01*
X643782Y374002D01*
X646143Y377727D01*
X646145Y377736D01*
X646152Y377743D01*
X647942Y381773D01*
X647943Y381783D01*
X647949Y381791D01*
X649129Y386040D01*
X649128Y386049D01*
X649133Y386058D01*
X649679Y390434D01*
X649676Y390443D01*
X649680Y390453D01*
X649677Y390595D01*
X649671Y390848D01*
X649665Y391100D01*
X649659Y391353D01*
X649653Y391605D01*
X649648Y391858D01*
X649642Y392110D01*
X649616Y393247D01*
X649610Y393499D01*
X649604Y393751D01*
X649604Y393752D01*
X649598Y394004D01*
X649599Y394004D01*
X649598Y394004D01*
X649593Y394256D01*
X649593Y394257D01*
X649587Y394509D01*
X649581Y394761D01*
X649581Y394762D01*
X649579Y394861D01*
X649575Y394870D01*
X649577Y394880D01*
X648832Y399226D01*
X648827Y399234D01*
X648827Y399244D01*
X647453Y403435D01*
X647447Y403442D01*
X647446Y403452D01*
X645473Y407396D01*
X645466Y407402D01*
X645464Y407412D01*
X642934Y411025D01*
X642927Y411030D01*
X642923Y411039D01*
X639892Y414242D01*
X639883Y414246D01*
X639878Y414255D01*
X636411Y416980D01*
X636402Y416982D01*
X636395Y416990D01*
X632566Y419178D01*
X632557Y419179D01*
X632549Y419186D01*
X628441Y420789D01*
X628432Y420789D01*
X628423Y420794D01*
X624125Y421779D01*
X624116Y421777D01*
X624106Y421782D01*
X619710Y422126D01*
X619703Y422124D01*
X619696Y422126D01*
X619657Y422108D01*
X619616Y422095D01*
X619613Y422088D01*
X619607Y422085D01*
X619585Y422029D01*
X619574Y422006D01*
X619575Y422003D01*
X619574Y422000D01*
X619574Y417000D01*
X619592Y416957D01*
X619607Y416914D01*
X619611Y416913D01*
X619612Y416909D01*
X619637Y416900D01*
X619689Y416874D01*
X623428Y416546D01*
X627066Y415664D01*
X630532Y414248D01*
X633746Y412328D01*
X636637Y409949D01*
X639138Y407163D01*
X641195Y404035D01*
X642760Y400634D01*
X643798Y397037D01*
X644286Y393325D01*
X644212Y389582D01*
X643579Y385892D01*
X642401Y382338D01*
X640704Y379002D01*
X638526Y375956D01*
X635917Y373271D01*
X632935Y371007D01*
X629640Y369211D01*
X629639Y369210D01*
X629637Y369209D01*
X628976Y368828D01*
X628967Y368815D01*
X628950Y368808D01*
X628411Y368268D01*
X628405Y368254D01*
X628391Y368242D01*
X628009Y367582D01*
X628007Y367566D01*
X627996Y367551D01*
X627799Y366814D01*
X627801Y366798D01*
X627795Y366781D01*
X627795Y366019D01*
X627801Y366004D01*
X627799Y365986D01*
X627996Y365249D01*
X628006Y365236D01*
X628009Y365219D01*
X628391Y364558D01*
X628403Y364548D01*
X628411Y364532D01*
X628950Y363992D01*
X628957Y363989D01*
X628959Y363985D01*
X628968Y363982D01*
X628976Y363972D01*
X629637Y363591D01*
X629650Y363589D01*
X629660Y363580D01*
X629704Y363582D01*
X629735Y363579D01*
X629742Y363584D01*
G37*
G36*
X489242Y318684D02*
X489242Y318684D01*
X489251Y318685D01*
X493282Y320474D01*
X493288Y320481D01*
X493298Y320483D01*
X497023Y322844D01*
X497028Y322851D01*
X497038Y322855D01*
X500377Y325736D01*
X500381Y325744D01*
X500390Y325749D01*
X503271Y329087D01*
X503274Y329096D01*
X503282Y329102D01*
X505643Y332827D01*
X505645Y332836D01*
X505652Y332843D01*
X507442Y336873D01*
X507443Y336883D01*
X507449Y336891D01*
X508629Y341140D01*
X508628Y341149D01*
X508633Y341158D01*
X509179Y345534D01*
X509176Y345543D01*
X509180Y345553D01*
X509177Y345695D01*
X509171Y345948D01*
X509165Y346200D01*
X509159Y346453D01*
X509153Y346705D01*
X509148Y346958D01*
X509142Y347210D01*
X509116Y348347D01*
X509110Y348599D01*
X509104Y348851D01*
X509104Y348852D01*
X509098Y349104D01*
X509099Y349104D01*
X509098Y349104D01*
X509093Y349356D01*
X509093Y349357D01*
X509087Y349609D01*
X509081Y349861D01*
X509081Y349862D01*
X509079Y349961D01*
X509075Y349970D01*
X509077Y349980D01*
X508332Y354326D01*
X508327Y354334D01*
X508327Y354344D01*
X506953Y358535D01*
X506947Y358542D01*
X506946Y358552D01*
X504973Y362496D01*
X504966Y362502D01*
X504964Y362512D01*
X502434Y366125D01*
X502427Y366130D01*
X502423Y366139D01*
X499392Y369342D01*
X499383Y369346D01*
X499378Y369355D01*
X495911Y372080D01*
X495902Y372082D01*
X495895Y372090D01*
X492066Y374278D01*
X492057Y374279D01*
X492049Y374286D01*
X487941Y375889D01*
X487932Y375889D01*
X487923Y375894D01*
X483625Y376879D01*
X483616Y376877D01*
X483606Y376882D01*
X479210Y377226D01*
X479203Y377224D01*
X479196Y377226D01*
X479157Y377208D01*
X479116Y377195D01*
X479113Y377188D01*
X479107Y377185D01*
X479085Y377129D01*
X479074Y377106D01*
X479075Y377103D01*
X479074Y377100D01*
X479074Y372100D01*
X479092Y372057D01*
X479107Y372014D01*
X479111Y372013D01*
X479112Y372009D01*
X479137Y372000D01*
X479189Y371974D01*
X482928Y371646D01*
X486566Y370764D01*
X490032Y369348D01*
X493246Y367428D01*
X496137Y365049D01*
X498638Y362263D01*
X500695Y359135D01*
X502260Y355734D01*
X503298Y352137D01*
X503786Y348425D01*
X503712Y344682D01*
X503079Y340992D01*
X501901Y337438D01*
X500204Y334102D01*
X498026Y331056D01*
X495417Y328371D01*
X492435Y326107D01*
X489140Y324311D01*
X489139Y324310D01*
X489137Y324309D01*
X488476Y323928D01*
X488467Y323915D01*
X488450Y323908D01*
X487911Y323368D01*
X487905Y323354D01*
X487891Y323342D01*
X487509Y322682D01*
X487507Y322666D01*
X487496Y322651D01*
X487299Y321914D01*
X487301Y321898D01*
X487295Y321881D01*
X487295Y321119D01*
X487301Y321104D01*
X487299Y321086D01*
X487496Y320349D01*
X487506Y320336D01*
X487509Y320319D01*
X487891Y319658D01*
X487903Y319648D01*
X487911Y319632D01*
X488450Y319092D01*
X488457Y319089D01*
X488459Y319085D01*
X488468Y319082D01*
X488476Y319072D01*
X489137Y318691D01*
X489150Y318689D01*
X489160Y318680D01*
X489204Y318682D01*
X489235Y318679D01*
X489242Y318684D01*
G37*
G36*
X469205Y329680D02*
X469205Y329680D01*
X469225Y329676D01*
X469244Y329689D01*
X469271Y329696D01*
X469963Y330170D01*
X469971Y330183D01*
X469986Y330190D01*
X470543Y330816D01*
X470548Y330831D01*
X470560Y330842D01*
X470951Y331583D01*
X470952Y331598D01*
X470962Y331612D01*
X471163Y332426D01*
X471161Y332440D01*
X471167Y332456D01*
X471167Y333294D01*
X471161Y333308D01*
X471163Y333324D01*
X470962Y334138D01*
X470953Y334150D01*
X470951Y334167D01*
X470560Y334908D01*
X470549Y334918D01*
X470543Y334934D01*
X469986Y335560D01*
X469972Y335566D01*
X469968Y335575D01*
X469966Y335576D01*
X469963Y335580D01*
X469282Y336047D01*
X467492Y337896D01*
X466050Y340028D01*
X465000Y342379D01*
X464374Y344876D01*
X464191Y347444D01*
X464457Y350005D01*
X465163Y352481D01*
X466289Y354796D01*
X467799Y356881D01*
X469649Y358672D01*
X471782Y360114D01*
X474133Y361164D01*
X476630Y361790D01*
X479209Y361974D01*
X479251Y361995D01*
X479293Y362015D01*
X479294Y362018D01*
X479297Y362019D01*
X479304Y362042D01*
X479326Y362100D01*
X479326Y367100D01*
X479323Y367107D01*
X479325Y367114D01*
X479305Y367151D01*
X479288Y367191D01*
X479281Y367193D01*
X479277Y367200D01*
X479220Y367217D01*
X479196Y367226D01*
X479193Y367225D01*
X479190Y367226D01*
X475933Y366959D01*
X475924Y366955D01*
X475913Y366956D01*
X472744Y366163D01*
X472736Y366156D01*
X472724Y366156D01*
X469726Y364857D01*
X469719Y364849D01*
X469708Y364847D01*
X466962Y363077D01*
X466956Y363069D01*
X466946Y363064D01*
X464525Y360871D01*
X464520Y360861D01*
X464510Y360856D01*
X462479Y358297D01*
X462476Y358287D01*
X462468Y358280D01*
X460880Y355424D01*
X460879Y355414D01*
X460872Y355405D01*
X459770Y352329D01*
X459771Y352319D01*
X459765Y352309D01*
X459180Y349095D01*
X459182Y349085D01*
X459178Y349074D01*
X459124Y345808D01*
X459128Y345798D01*
X459125Y345787D01*
X459604Y342555D01*
X459610Y342546D01*
X459609Y342535D01*
X460608Y339424D01*
X460615Y339417D01*
X460616Y339405D01*
X462108Y336499D01*
X462116Y336492D01*
X462119Y336481D01*
X464065Y333857D01*
X464074Y333852D01*
X464079Y333841D01*
X466426Y331569D01*
X466436Y331565D01*
X466442Y331556D01*
X469128Y329696D01*
X469157Y329690D01*
X469183Y329675D01*
X469205Y329680D01*
G37*
G36*
X609705Y374580D02*
X609705Y374580D01*
X609725Y374576D01*
X609744Y374589D01*
X609771Y374596D01*
X610463Y375070D01*
X610471Y375083D01*
X610486Y375090D01*
X611043Y375716D01*
X611048Y375731D01*
X611060Y375742D01*
X611451Y376483D01*
X611452Y376498D01*
X611462Y376512D01*
X611663Y377326D01*
X611661Y377340D01*
X611667Y377356D01*
X611667Y378194D01*
X611661Y378208D01*
X611663Y378224D01*
X611462Y379038D01*
X611453Y379050D01*
X611451Y379067D01*
X611060Y379808D01*
X611049Y379818D01*
X611043Y379834D01*
X610486Y380460D01*
X610472Y380466D01*
X610468Y380475D01*
X610466Y380476D01*
X610463Y380480D01*
X609782Y380947D01*
X607992Y382796D01*
X606550Y384928D01*
X605500Y387279D01*
X604874Y389776D01*
X604691Y392344D01*
X604957Y394905D01*
X605663Y397381D01*
X606789Y399696D01*
X608299Y401781D01*
X610149Y403572D01*
X612282Y405014D01*
X614633Y406064D01*
X617130Y406690D01*
X619709Y406874D01*
X619751Y406895D01*
X619793Y406915D01*
X619794Y406918D01*
X619797Y406919D01*
X619804Y406942D01*
X619826Y407000D01*
X619826Y412000D01*
X619823Y412007D01*
X619825Y412014D01*
X619805Y412051D01*
X619788Y412091D01*
X619781Y412093D01*
X619777Y412100D01*
X619720Y412117D01*
X619696Y412126D01*
X619693Y412125D01*
X619690Y412126D01*
X616433Y411859D01*
X616424Y411855D01*
X616413Y411856D01*
X613244Y411063D01*
X613236Y411056D01*
X613224Y411056D01*
X610226Y409757D01*
X610219Y409749D01*
X610208Y409747D01*
X607462Y407977D01*
X607456Y407969D01*
X607446Y407964D01*
X605025Y405771D01*
X605020Y405761D01*
X605010Y405756D01*
X602979Y403197D01*
X602976Y403187D01*
X602968Y403180D01*
X601380Y400324D01*
X601379Y400314D01*
X601372Y400305D01*
X600270Y397229D01*
X600271Y397219D01*
X600265Y397209D01*
X599680Y393995D01*
X599682Y393985D01*
X599678Y393974D01*
X599624Y390708D01*
X599628Y390698D01*
X599625Y390687D01*
X600104Y387455D01*
X600110Y387446D01*
X600109Y387435D01*
X601108Y384324D01*
X601115Y384317D01*
X601116Y384305D01*
X602608Y381399D01*
X602616Y381392D01*
X602619Y381381D01*
X604565Y378757D01*
X604574Y378752D01*
X604579Y378741D01*
X606926Y376469D01*
X606936Y376465D01*
X606942Y376456D01*
X609628Y374596D01*
X609657Y374590D01*
X609683Y374575D01*
X609705Y374580D01*
G37*
G36*
X619707Y371875D02*
X619707Y371875D01*
X619710Y371874D01*
X622967Y372141D01*
X622976Y372146D01*
X622987Y372144D01*
X626156Y372938D01*
X626164Y372944D01*
X626176Y372944D01*
X629174Y374243D01*
X629181Y374251D01*
X629192Y374253D01*
X631938Y376023D01*
X631944Y376032D01*
X631954Y376036D01*
X634375Y378229D01*
X634380Y378239D01*
X634390Y378244D01*
X636421Y380803D01*
X636424Y380813D01*
X636432Y380820D01*
X638020Y383676D01*
X638021Y383686D01*
X638028Y383695D01*
X639130Y386771D01*
X639129Y386781D01*
X639135Y386791D01*
X639720Y390005D01*
X639718Y390015D01*
X639722Y390026D01*
X639776Y393292D01*
X639772Y393302D01*
X639775Y393313D01*
X639296Y396545D01*
X639290Y396554D01*
X639291Y396565D01*
X638292Y399676D01*
X638285Y399683D01*
X638284Y399695D01*
X636792Y402601D01*
X636784Y402608D01*
X636781Y402619D01*
X634835Y405243D01*
X634826Y405248D01*
X634821Y405259D01*
X632474Y407531D01*
X632464Y407535D01*
X632458Y407544D01*
X629772Y409404D01*
X629743Y409410D01*
X629717Y409425D01*
X629695Y409420D01*
X629675Y409424D01*
X629656Y409411D01*
X629629Y409404D01*
X628937Y408930D01*
X628929Y408917D01*
X628914Y408910D01*
X628357Y408284D01*
X628352Y408269D01*
X628340Y408258D01*
X627949Y407517D01*
X627948Y407502D01*
X627938Y407488D01*
X627737Y406674D01*
X627739Y406660D01*
X627733Y406644D01*
X627733Y405806D01*
X627739Y405792D01*
X627737Y405776D01*
X627938Y404962D01*
X627947Y404950D01*
X627949Y404933D01*
X628340Y404192D01*
X628351Y404182D01*
X628357Y404166D01*
X628914Y403540D01*
X628928Y403534D01*
X628937Y403520D01*
X629618Y403053D01*
X631408Y401204D01*
X632850Y399072D01*
X633900Y396721D01*
X634526Y394224D01*
X634709Y391656D01*
X634443Y389095D01*
X633737Y386619D01*
X632611Y384304D01*
X631101Y382219D01*
X629251Y380428D01*
X627118Y378986D01*
X624767Y377936D01*
X622270Y377310D01*
X619691Y377126D01*
X619649Y377105D01*
X619607Y377085D01*
X619606Y377082D01*
X619603Y377081D01*
X619596Y377058D01*
X619574Y377000D01*
X619574Y372000D01*
X619577Y371993D01*
X619575Y371986D01*
X619596Y371949D01*
X619612Y371909D01*
X619619Y371907D01*
X619623Y371900D01*
X619680Y371883D01*
X619704Y371874D01*
X619707Y371875D01*
G37*
G36*
X479207Y326975D02*
X479207Y326975D01*
X479210Y326974D01*
X482467Y327241D01*
X482476Y327246D01*
X482487Y327244D01*
X485656Y328038D01*
X485664Y328044D01*
X485676Y328044D01*
X488674Y329343D01*
X488681Y329351D01*
X488692Y329353D01*
X491438Y331123D01*
X491444Y331132D01*
X491454Y331136D01*
X493875Y333329D01*
X493880Y333339D01*
X493890Y333344D01*
X495921Y335903D01*
X495924Y335913D01*
X495932Y335920D01*
X497520Y338776D01*
X497521Y338786D01*
X497528Y338795D01*
X498630Y341871D01*
X498629Y341881D01*
X498635Y341891D01*
X499220Y345105D01*
X499218Y345115D01*
X499222Y345126D01*
X499276Y348392D01*
X499272Y348402D01*
X499275Y348413D01*
X498796Y351645D01*
X498790Y351654D01*
X498791Y351665D01*
X497792Y354776D01*
X497785Y354783D01*
X497784Y354795D01*
X496292Y357701D01*
X496284Y357708D01*
X496281Y357719D01*
X494335Y360343D01*
X494326Y360348D01*
X494321Y360359D01*
X491974Y362631D01*
X491964Y362635D01*
X491958Y362644D01*
X489272Y364504D01*
X489243Y364510D01*
X489217Y364525D01*
X489195Y364520D01*
X489175Y364524D01*
X489156Y364511D01*
X489129Y364504D01*
X488437Y364030D01*
X488429Y364017D01*
X488414Y364010D01*
X487857Y363384D01*
X487852Y363369D01*
X487840Y363358D01*
X487449Y362617D01*
X487448Y362602D01*
X487438Y362588D01*
X487237Y361774D01*
X487239Y361760D01*
X487233Y361744D01*
X487233Y360906D01*
X487239Y360892D01*
X487237Y360876D01*
X487438Y360062D01*
X487447Y360050D01*
X487449Y360033D01*
X487840Y359292D01*
X487851Y359282D01*
X487857Y359266D01*
X488414Y358640D01*
X488428Y358634D01*
X488437Y358620D01*
X489118Y358153D01*
X490908Y356304D01*
X492350Y354172D01*
X493400Y351821D01*
X494026Y349324D01*
X494209Y346756D01*
X493943Y344195D01*
X493237Y341719D01*
X492111Y339404D01*
X490601Y337319D01*
X488751Y335528D01*
X486618Y334086D01*
X484267Y333036D01*
X481770Y332410D01*
X479191Y332226D01*
X479149Y332205D01*
X479107Y332185D01*
X479106Y332182D01*
X479103Y332181D01*
X479096Y332158D01*
X479074Y332100D01*
X479074Y327100D01*
X479077Y327093D01*
X479075Y327086D01*
X479096Y327049D01*
X479112Y327009D01*
X479119Y327007D01*
X479123Y327000D01*
X479180Y326983D01*
X479204Y326974D01*
X479207Y326975D01*
G37*
G36*
X627397Y387651D02*
X627397Y387651D01*
X627410Y387658D01*
X627426Y387658D01*
X628070Y387896D01*
X628081Y387906D01*
X628097Y387909D01*
X628668Y388291D01*
X628676Y388303D01*
X628691Y388310D01*
X629157Y388815D01*
X629162Y388829D01*
X629174Y388839D01*
X629510Y389438D01*
X629512Y389459D01*
X629525Y389479D01*
X629824Y391279D01*
X629821Y391291D01*
X629825Y391303D01*
X629824Y391361D01*
X629822Y391487D01*
X629822Y391488D01*
X629820Y391614D01*
X629808Y392245D01*
X629806Y392371D01*
X629803Y392497D01*
X629801Y392624D01*
X629792Y393127D01*
X629791Y393128D01*
X629792Y393129D01*
X629787Y393138D01*
X629789Y393150D01*
X629423Y394938D01*
X629417Y394947D01*
X629417Y394960D01*
X628731Y396651D01*
X628723Y396659D01*
X628721Y396672D01*
X627739Y398210D01*
X627729Y398216D01*
X627724Y398228D01*
X626478Y399561D01*
X626468Y399566D01*
X626461Y399577D01*
X624993Y400660D01*
X624982Y400663D01*
X624973Y400672D01*
X623332Y401471D01*
X623321Y401471D01*
X623311Y401479D01*
X621552Y401965D01*
X621540Y401963D01*
X621529Y401969D01*
X619711Y402126D01*
X619703Y402123D01*
X619696Y402126D01*
X619657Y402108D01*
X619617Y402095D01*
X619614Y402088D01*
X619607Y402085D01*
X619586Y402031D01*
X619574Y402007D01*
X619575Y402004D01*
X619574Y402000D01*
X619574Y397000D01*
X619591Y396959D01*
X619605Y396917D01*
X619610Y396914D01*
X619612Y396909D01*
X619640Y396899D01*
X619685Y396875D01*
X620821Y396738D01*
X621881Y396349D01*
X622823Y395725D01*
X623595Y394902D01*
X624157Y393922D01*
X624478Y392839D01*
X624540Y391711D01*
X624341Y390600D01*
X623884Y389550D01*
X623884Y389538D01*
X623877Y389528D01*
X623884Y389482D01*
X623883Y389452D01*
X623889Y389447D01*
X623890Y389438D01*
X624226Y388839D01*
X624237Y388830D01*
X624243Y388815D01*
X624709Y388310D01*
X624722Y388304D01*
X624732Y388291D01*
X625303Y387909D01*
X625317Y387907D01*
X625330Y387896D01*
X625974Y387658D01*
X625989Y387659D01*
X626003Y387651D01*
X626685Y387571D01*
X626699Y387575D01*
X626715Y387571D01*
X627397Y387651D01*
G37*
G36*
X486897Y342751D02*
X486897Y342751D01*
X486910Y342758D01*
X486926Y342758D01*
X487570Y342996D01*
X487581Y343006D01*
X487597Y343009D01*
X488168Y343391D01*
X488176Y343403D01*
X488191Y343410D01*
X488657Y343915D01*
X488662Y343929D01*
X488674Y343939D01*
X489010Y344538D01*
X489012Y344559D01*
X489025Y344579D01*
X489324Y346379D01*
X489321Y346391D01*
X489325Y346403D01*
X489324Y346461D01*
X489322Y346587D01*
X489322Y346588D01*
X489320Y346714D01*
X489308Y347345D01*
X489306Y347471D01*
X489303Y347597D01*
X489301Y347724D01*
X489292Y348227D01*
X489291Y348228D01*
X489292Y348229D01*
X489287Y348238D01*
X489289Y348250D01*
X488923Y350038D01*
X488917Y350047D01*
X488917Y350060D01*
X488231Y351751D01*
X488223Y351759D01*
X488221Y351772D01*
X487239Y353310D01*
X487229Y353316D01*
X487224Y353328D01*
X485978Y354661D01*
X485968Y354666D01*
X485961Y354677D01*
X484493Y355760D01*
X484482Y355763D01*
X484473Y355772D01*
X482832Y356571D01*
X482821Y356571D01*
X482811Y356579D01*
X481052Y357065D01*
X481040Y357063D01*
X481029Y357069D01*
X479211Y357226D01*
X479203Y357223D01*
X479196Y357226D01*
X479157Y357208D01*
X479117Y357195D01*
X479114Y357188D01*
X479107Y357185D01*
X479086Y357131D01*
X479074Y357107D01*
X479075Y357104D01*
X479074Y357100D01*
X479074Y352100D01*
X479091Y352059D01*
X479105Y352017D01*
X479110Y352014D01*
X479112Y352009D01*
X479140Y351999D01*
X479185Y351975D01*
X480321Y351838D01*
X481381Y351449D01*
X482323Y350825D01*
X483095Y350002D01*
X483657Y349022D01*
X483978Y347939D01*
X484040Y346811D01*
X483841Y345700D01*
X483384Y344650D01*
X483384Y344638D01*
X483377Y344628D01*
X483384Y344582D01*
X483383Y344552D01*
X483389Y344547D01*
X483390Y344538D01*
X483726Y343939D01*
X483737Y343930D01*
X483743Y343915D01*
X484209Y343410D01*
X484222Y343404D01*
X484232Y343391D01*
X484803Y343009D01*
X484817Y343007D01*
X484830Y342996D01*
X485474Y342758D01*
X485489Y342759D01*
X485503Y342751D01*
X486185Y342671D01*
X486199Y342675D01*
X486215Y342671D01*
X486897Y342751D01*
G37*
G36*
X619743Y381892D02*
X619743Y381892D01*
X619783Y381905D01*
X619786Y381912D01*
X619793Y381915D01*
X619814Y381969D01*
X619826Y381993D01*
X619825Y381996D01*
X619826Y382000D01*
X619826Y387000D01*
X619809Y387041D01*
X619795Y387083D01*
X619790Y387086D01*
X619788Y387091D01*
X619760Y387101D01*
X619715Y387125D01*
X618579Y387262D01*
X617519Y387651D01*
X616577Y388275D01*
X615805Y389098D01*
X615243Y390078D01*
X614922Y391161D01*
X614860Y392289D01*
X615059Y393400D01*
X615516Y394450D01*
X615516Y394463D01*
X615523Y394473D01*
X615521Y394490D01*
X615526Y394503D01*
X615516Y394523D01*
X615517Y394548D01*
X615511Y394554D01*
X615509Y394563D01*
X615128Y395224D01*
X615115Y395233D01*
X615108Y395250D01*
X614568Y395789D01*
X614554Y395795D01*
X614542Y395810D01*
X613882Y396191D01*
X613866Y396193D01*
X613851Y396204D01*
X613114Y396401D01*
X613098Y396399D01*
X613081Y396405D01*
X612319Y396405D01*
X612304Y396399D01*
X612286Y396401D01*
X611549Y396204D01*
X611536Y396194D01*
X611519Y396191D01*
X610858Y395810D01*
X610848Y395797D01*
X610832Y395789D01*
X610292Y395250D01*
X610286Y395235D01*
X610272Y395224D01*
X609891Y394563D01*
X609888Y394542D01*
X609875Y394521D01*
X609576Y392721D01*
X609579Y392709D01*
X609575Y392698D01*
X609581Y392349D01*
X609581Y392348D01*
X609583Y392222D01*
X609586Y392096D01*
X609588Y391970D01*
X609600Y391339D01*
X609600Y391338D01*
X609602Y391212D01*
X609604Y391086D01*
X609607Y390960D01*
X609608Y390873D01*
X609613Y390863D01*
X609611Y390850D01*
X609977Y389062D01*
X609983Y389053D01*
X609983Y389040D01*
X610669Y387349D01*
X610677Y387341D01*
X610679Y387328D01*
X611661Y385790D01*
X611671Y385784D01*
X611676Y385772D01*
X612922Y384439D01*
X612927Y384437D01*
X612929Y384432D01*
X612935Y384429D01*
X612939Y384423D01*
X614407Y383340D01*
X614418Y383337D01*
X614427Y383328D01*
X616068Y382529D01*
X616079Y382529D01*
X616089Y382521D01*
X617848Y382035D01*
X617860Y382037D01*
X617871Y382031D01*
X619689Y381874D01*
X619697Y381877D01*
X619704Y381874D01*
X619743Y381892D01*
G37*
G36*
X479243Y336992D02*
X479243Y336992D01*
X479283Y337005D01*
X479286Y337012D01*
X479293Y337015D01*
X479314Y337069D01*
X479326Y337093D01*
X479325Y337096D01*
X479326Y337100D01*
X479326Y342100D01*
X479309Y342141D01*
X479295Y342183D01*
X479290Y342186D01*
X479288Y342191D01*
X479260Y342201D01*
X479215Y342225D01*
X478079Y342362D01*
X477019Y342751D01*
X476077Y343375D01*
X475305Y344198D01*
X474743Y345178D01*
X474422Y346261D01*
X474360Y347389D01*
X474559Y348500D01*
X475016Y349550D01*
X475016Y349563D01*
X475023Y349573D01*
X475021Y349590D01*
X475026Y349603D01*
X475016Y349623D01*
X475017Y349648D01*
X475011Y349654D01*
X475009Y349663D01*
X474628Y350324D01*
X474615Y350333D01*
X474608Y350350D01*
X474068Y350889D01*
X474054Y350895D01*
X474042Y350910D01*
X473382Y351291D01*
X473366Y351293D01*
X473351Y351304D01*
X472614Y351501D01*
X472598Y351499D01*
X472581Y351505D01*
X471819Y351505D01*
X471804Y351499D01*
X471786Y351501D01*
X471049Y351304D01*
X471036Y351294D01*
X471019Y351291D01*
X470358Y350910D01*
X470348Y350897D01*
X470332Y350889D01*
X469792Y350350D01*
X469786Y350335D01*
X469772Y350324D01*
X469391Y349663D01*
X469388Y349642D01*
X469375Y349621D01*
X469076Y347821D01*
X469079Y347809D01*
X469075Y347798D01*
X469081Y347449D01*
X469081Y347448D01*
X469083Y347322D01*
X469086Y347196D01*
X469088Y347070D01*
X469100Y346439D01*
X469100Y346438D01*
X469102Y346312D01*
X469104Y346186D01*
X469107Y346060D01*
X469108Y345973D01*
X469113Y345963D01*
X469111Y345950D01*
X469477Y344162D01*
X469483Y344153D01*
X469483Y344140D01*
X470169Y342449D01*
X470177Y342441D01*
X470179Y342428D01*
X471161Y340890D01*
X471171Y340884D01*
X471176Y340872D01*
X472422Y339539D01*
X472427Y339537D01*
X472429Y339532D01*
X472435Y339529D01*
X472439Y339523D01*
X473907Y338440D01*
X473918Y338437D01*
X473927Y338428D01*
X475568Y337629D01*
X475579Y337629D01*
X475589Y337621D01*
X477348Y337135D01*
X477360Y337137D01*
X477371Y337131D01*
X479189Y336974D01*
X479197Y336977D01*
X479204Y336974D01*
X479243Y336992D01*
G37*
D10*
X119000Y13950D03*
X108000Y13950D03*
X97000Y13950D03*
X86000Y13950D03*
X75000Y13950D03*
X64000Y13950D03*
X53000Y13950D03*
X42000Y13950D03*
D11*
X22600Y130250D03*
D12*
X162450Y20250D03*
D13*
X18550Y18750D03*
X161450Y133550D03*
D14*
X118400Y141500D03*
X40600Y141500D03*
D15*
X22600Y40250D03*
D16*
X430550Y164100D02*
X442550Y164100D01*
X430550Y164100D02*
X430550Y176100D01*
X442550Y176100D01*
X442550Y164100D01*
X442550Y167900D02*
X430550Y167900D01*
X430550Y171700D02*
X442550Y171700D01*
X442550Y175500D02*
X430550Y175500D01*
X402550Y164100D02*
X390550Y164100D01*
X390550Y176100D01*
X402550Y176100D01*
X402550Y164100D01*
X402550Y167900D02*
X390550Y167900D01*
X390550Y171700D02*
X402550Y171700D01*
X402550Y175500D02*
X390550Y175500D01*
X382550Y156100D02*
X370550Y156100D01*
X382550Y156100D02*
X382550Y144100D01*
X370550Y144100D01*
X370550Y156100D01*
X370550Y147900D02*
X382550Y147900D01*
X382550Y151700D02*
X370550Y151700D01*
X370550Y155500D02*
X382550Y155500D01*
X410550Y156100D02*
X422550Y156100D01*
X422550Y144100D01*
X410550Y144100D01*
X410550Y156100D01*
X410550Y147900D02*
X422550Y147900D01*
X422550Y151700D02*
X410550Y151700D01*
X410550Y155500D02*
X422550Y155500D01*
D17*
X394876Y168426D02*
X378224Y151774D01*
X398224Y168426D02*
X414876Y151774D01*
X418224Y151774D02*
X434876Y168426D01*
D16*
X422550Y176100D02*
X410550Y176100D01*
X422550Y176100D02*
X422550Y164100D01*
X410550Y164100D01*
X410550Y176100D01*
X410550Y167900D02*
X422550Y167900D01*
X422550Y171700D02*
X410550Y171700D01*
X410550Y175500D02*
X422550Y175500D01*
X382550Y176100D02*
X370550Y176100D01*
X382550Y176100D02*
X382550Y164100D01*
X370550Y164100D01*
X370550Y176100D01*
X370550Y167900D02*
X382550Y167900D01*
X382550Y171700D02*
X370550Y171700D01*
X370550Y175500D02*
X382550Y175500D01*
X390550Y144100D02*
X402550Y144100D01*
X390550Y144100D02*
X390550Y156100D01*
X402550Y156100D01*
X402550Y144100D01*
X402550Y147900D02*
X390550Y147900D01*
X390550Y151700D02*
X402550Y151700D01*
X402550Y155500D02*
X390550Y155500D01*
X430550Y144100D02*
X442550Y144100D01*
X430550Y144100D02*
X430550Y156100D01*
X442550Y156100D01*
X442550Y144100D01*
X442550Y147900D02*
X430550Y147900D01*
X430550Y151700D02*
X442550Y151700D01*
X442550Y155500D02*
X430550Y155500D01*
X326550Y164100D02*
X314550Y164100D01*
X314550Y176100D01*
X326550Y176100D01*
X326550Y164100D01*
X326550Y167900D02*
X314550Y167900D01*
X314550Y171700D02*
X326550Y171700D01*
X326550Y175500D02*
X314550Y175500D01*
X286550Y164100D02*
X274550Y164100D01*
X274550Y176100D01*
X286550Y176100D01*
X286550Y164100D01*
X286550Y167900D02*
X274550Y167900D01*
X274550Y171700D02*
X286550Y171700D01*
X286550Y175500D02*
X274550Y175500D01*
X266550Y156100D02*
X254550Y156100D01*
X266550Y156100D02*
X266550Y144100D01*
X254550Y144100D01*
X254550Y156100D01*
X254550Y147900D02*
X266550Y147900D01*
X266550Y151700D02*
X254550Y151700D01*
X254550Y155500D02*
X266550Y155500D01*
X294550Y156100D02*
X306550Y156100D01*
X306550Y144100D01*
X294550Y144100D01*
X294550Y156100D01*
X294550Y147900D02*
X306550Y147900D01*
X306550Y151700D02*
X294550Y151700D01*
X294550Y155500D02*
X306550Y155500D01*
D17*
X278876Y168426D02*
X262224Y151774D01*
X282224Y168426D02*
X298876Y151774D01*
X302224Y151774D02*
X318876Y168426D01*
D16*
X306550Y176100D02*
X294550Y176100D01*
X306550Y176100D02*
X306550Y164100D01*
X294550Y164100D01*
X294550Y176100D01*
X294550Y167900D02*
X306550Y167900D01*
X306550Y171700D02*
X294550Y171700D01*
X294550Y175500D02*
X306550Y175500D01*
X266550Y176100D02*
X254550Y176100D01*
X266550Y176100D02*
X266550Y164100D01*
X254550Y164100D01*
X254550Y176100D01*
X254550Y167900D02*
X266550Y167900D01*
X266550Y171700D02*
X254550Y171700D01*
X254550Y175500D02*
X266550Y175500D01*
X274550Y144100D02*
X286550Y144100D01*
X274550Y144100D02*
X274550Y156100D01*
X286550Y156100D01*
X286550Y144100D01*
X286550Y147900D02*
X274550Y147900D01*
X274550Y151700D02*
X286550Y151700D01*
X286550Y155500D02*
X274550Y155500D01*
X314550Y144100D02*
X326550Y144100D01*
X314550Y144100D02*
X314550Y156100D01*
X326550Y156100D01*
X326550Y144100D01*
X326550Y147900D02*
X314550Y147900D01*
X314550Y151700D02*
X326550Y151700D01*
X326550Y155500D02*
X314550Y155500D01*
D18*
X479200Y369600D03*
X479200Y324600D03*
X619700Y414500D03*
X619700Y369500D03*
D19*
G36*
X150573Y432213D02*
X127392Y438423D01*
X128427Y442287D01*
X151608Y436077D01*
X150573Y432213D01*
G37*
G36*
X92392Y436077D02*
X115573Y442287D01*
X116608Y438423D01*
X93427Y432213D01*
X92392Y436077D01*
G37*
G36*
X93427Y305787D02*
X116608Y299577D01*
X115573Y295713D01*
X92392Y301923D01*
X93427Y305787D01*
G37*
G36*
X151608Y301923D02*
X128427Y295713D01*
X127392Y299577D01*
X150573Y305787D01*
X151608Y301923D01*
G37*
G36*
X58787Y397573D02*
X52577Y374392D01*
X48713Y375427D01*
X54923Y398608D01*
X58787Y397573D01*
G37*
G36*
X54923Y339392D02*
X48713Y362573D01*
X52577Y363608D01*
X58787Y340427D01*
X54923Y339392D01*
G37*
G36*
X185213Y340427D02*
X191423Y363608D01*
X195287Y362573D01*
X189077Y339392D01*
X185213Y340427D01*
G37*
G36*
X189077Y398608D02*
X195287Y375427D01*
X191423Y374392D01*
X185213Y397573D01*
X189077Y398608D01*
G37*
D20*
X247200Y976100D03*
X252200Y976100D03*
X257200Y976100D03*
X262200Y976100D03*
X267200Y976100D03*
X272200Y976100D03*
X277200Y976100D03*
X282200Y976100D03*
X287200Y976100D03*
X292200Y976100D03*
X297200Y976100D03*
X302200Y976100D03*
X307200Y976100D03*
X312200Y976100D03*
X317200Y976100D03*
X322200Y976100D03*
X327200Y976100D03*
X332200Y976100D03*
X337200Y976100D03*
X342200Y976100D03*
X347200Y976100D03*
X352200Y976100D03*
X357200Y976100D03*
X362200Y976100D03*
X367200Y976100D03*
X372200Y976100D03*
X377200Y976100D03*
X382200Y976100D03*
X387200Y976100D03*
X392200Y976100D03*
X397200Y976100D03*
X402200Y976100D03*
X407200Y976100D03*
X412200Y976100D03*
X417200Y976100D03*
X422200Y976100D03*
X427200Y976100D03*
X432200Y976100D03*
X437200Y976100D03*
X442200Y976100D03*
X447200Y976100D03*
X452200Y976100D03*
X457200Y976100D03*
X462200Y976100D03*
X467200Y976100D03*
D21*
X486200Y943600D03*
X228200Y943600D03*
M02*
