G04 EAGLE Gerber RS-274X export*
G75*
%MOMM*%
%FSLAX34Y34*%
%LPD*%
%INTop Silkscreen*%
%IPPOS*%
%AMOC8*
5,1,8,0,0,1.08239X$1,22.5*%
G01*
%ADD10C,0.609600*%
%ADD11C,0.203200*%
%ADD12C,0.254000*%
%ADD13C,0.152400*%
%ADD14C,0.101600*%
%ADD15C,0.200000*%
%ADD16C,0.127000*%
%ADD17R,2.032000X0.050800*%
%ADD18R,1.524000X0.050800*%
%ADD19R,0.609600X0.050800*%
%ADD20R,0.711200X0.050800*%
%ADD21R,0.406400X0.050800*%
%ADD22R,0.203200X0.050800*%
%ADD23R,1.930400X0.050800*%
%ADD24R,1.828800X0.050800*%
%ADD25R,1.117600X0.050800*%
%ADD26R,0.914400X0.050800*%
%ADD27R,1.219200X0.050800*%
%ADD28R,1.625600X0.050800*%
%ADD29R,3.251200X0.050800*%
%ADD30R,2.844800X0.050800*%
%ADD31R,22.910800X0.025400*%
%ADD32R,0.406400X0.025400*%
%ADD33R,0.203200X0.025400*%
%ADD34R,12.039600X0.025400*%
%ADD35R,0.177800X0.025400*%
%ADD36R,12.446000X0.025400*%
%ADD37R,12.471400X0.025400*%
%ADD38R,0.584200X0.025400*%
%ADD39R,1.168400X0.025400*%
%ADD40R,0.990600X0.025400*%
%ADD41R,1.600200X0.025400*%
%ADD42R,0.609600X0.025400*%
%ADD43R,0.381000X0.025400*%
%ADD44R,1.574800X0.025400*%
%ADD45R,2.971800X0.025400*%
%ADD46R,1.397000X0.025400*%
%ADD47R,1.193800X0.025400*%
%ADD48R,1.371600X0.025400*%
%ADD49R,4.140200X0.025400*%
%ADD50R,0.787400X0.025400*%
%ADD51R,1.778000X0.025400*%
%ADD52R,3.733800X0.025400*%
%ADD53R,3.352800X0.025400*%
%ADD54R,3.149600X0.025400*%
%ADD55R,3.175000X0.025400*%
%ADD56R,11.658600X0.025400*%
%ADD57R,11.277600X0.025400*%
%ADD58R,10.871200X0.025400*%

G36*
X170005Y-5001D02*
X170005Y-5001D01*
X170005Y-5000D01*
X170005Y-5D01*
X350000Y-5D01*
X350001Y-5D01*
X351113Y120D01*
X351114Y121D01*
X352171Y490D01*
X352171Y491D01*
X352172Y491D01*
X353120Y1087D01*
X353121Y1087D01*
X353913Y1879D01*
X353913Y1880D01*
X354509Y2828D01*
X354509Y2829D01*
X354510Y2829D01*
X354879Y3886D01*
X354880Y3887D01*
X355005Y4999D01*
X355005Y5000D01*
X355005Y17495D01*
X424995Y17495D01*
X424995Y5000D01*
X424995Y4999D01*
X425120Y3887D01*
X425121Y3886D01*
X425490Y2829D01*
X425491Y2829D01*
X425491Y2828D01*
X426087Y1880D01*
X426087Y1879D01*
X426879Y1087D01*
X426880Y1087D01*
X427828Y491D01*
X427829Y491D01*
X427829Y490D01*
X428886Y121D01*
X428887Y120D01*
X429999Y-5D01*
X430000Y-5D01*
X495000Y-5D01*
X496737Y147D01*
X496738Y147D01*
X498421Y598D01*
X498422Y599D01*
X500002Y1335D01*
X500002Y1336D01*
X500003Y1336D01*
X501431Y2335D01*
X501431Y2336D01*
X502664Y3569D01*
X502665Y3569D01*
X503664Y4997D01*
X503664Y4998D01*
X503665Y4998D01*
X504401Y6578D01*
X504402Y6579D01*
X504853Y8262D01*
X504853Y8263D01*
X505005Y10000D01*
X505005Y169495D01*
X685000Y169495D01*
X686737Y169647D01*
X686738Y169647D01*
X688421Y170098D01*
X688422Y170099D01*
X690002Y170835D01*
X690002Y170836D01*
X690003Y170836D01*
X691431Y171835D01*
X691431Y171836D01*
X692664Y173069D01*
X692665Y173069D01*
X693664Y174497D01*
X693664Y174498D01*
X693665Y174498D01*
X694401Y176078D01*
X694402Y176079D01*
X694853Y177762D01*
X694853Y177763D01*
X695005Y179500D01*
X695005Y520000D01*
X695001Y520005D01*
X695000Y520005D01*
X0Y520005D01*
X-5Y520001D01*
X-5Y520000D01*
X-5Y10000D01*
X147Y8263D01*
X147Y8262D01*
X598Y6579D01*
X599Y6578D01*
X1335Y4998D01*
X1336Y4998D01*
X1336Y4997D01*
X2335Y3569D01*
X2336Y3569D01*
X3569Y2336D01*
X3569Y2335D01*
X4997Y1336D01*
X4998Y1336D01*
X4998Y1335D01*
X6578Y599D01*
X6579Y598D01*
X8262Y147D01*
X8263Y147D01*
X9995Y-5D01*
X9995Y-5000D01*
X9999Y-5005D01*
X10000Y-5005D01*
X170000Y-5005D01*
X170005Y-5001D01*
G37*
G36*
X247315Y916601D02*
X247315Y916601D01*
X247415Y916608D01*
X247455Y916623D01*
X247498Y916629D01*
X247588Y916672D01*
X247681Y916706D01*
X247716Y916732D01*
X247755Y916750D01*
X247830Y916816D01*
X247910Y916875D01*
X247933Y916906D01*
X247969Y916937D01*
X248066Y917089D01*
X248108Y917146D01*
X250108Y921146D01*
X250111Y921154D01*
X250116Y921161D01*
X250156Y921289D01*
X250198Y921416D01*
X250199Y921424D01*
X250201Y921432D01*
X250205Y921567D01*
X250210Y921700D01*
X250208Y921708D01*
X250209Y921716D01*
X250175Y921846D01*
X250143Y921976D01*
X250139Y921983D01*
X250137Y921991D01*
X250069Y922106D01*
X250002Y922223D01*
X249996Y922229D01*
X249992Y922236D01*
X249894Y922328D01*
X249798Y922421D01*
X249790Y922424D01*
X249784Y922430D01*
X249665Y922491D01*
X249547Y922554D01*
X249539Y922556D01*
X249531Y922560D01*
X249479Y922568D01*
X249269Y922613D01*
X249231Y922610D01*
X249200Y922615D01*
X245200Y922615D01*
X245192Y922614D01*
X245183Y922615D01*
X245051Y922594D01*
X244919Y922575D01*
X244911Y922572D01*
X244902Y922571D01*
X244781Y922514D01*
X244659Y922459D01*
X244653Y922454D01*
X244645Y922450D01*
X244544Y922362D01*
X244442Y922276D01*
X244437Y922268D01*
X244431Y922263D01*
X244359Y922150D01*
X244285Y922039D01*
X244282Y922031D01*
X244277Y922024D01*
X244239Y921895D01*
X244199Y921768D01*
X244199Y921759D01*
X244196Y921751D01*
X244195Y921617D01*
X244191Y921484D01*
X244194Y921475D01*
X244194Y921467D01*
X244209Y921416D01*
X244263Y921209D01*
X244283Y921176D01*
X244292Y921146D01*
X246292Y917146D01*
X246349Y917064D01*
X246398Y916977D01*
X246429Y916947D01*
X246453Y916912D01*
X246531Y916849D01*
X246602Y916780D01*
X246640Y916759D01*
X246673Y916732D01*
X246765Y916693D01*
X246853Y916646D01*
X246895Y916637D01*
X246935Y916620D01*
X247034Y916608D01*
X247131Y916587D01*
X247174Y916590D01*
X247217Y916585D01*
X247315Y916601D01*
G37*
D10*
X307250Y1110000D02*
X307254Y1110313D01*
X307265Y1110626D01*
X307285Y1110938D01*
X307311Y1111250D01*
X307346Y1111561D01*
X307388Y1111871D01*
X307438Y1112180D01*
X307495Y1112487D01*
X307560Y1112794D01*
X307632Y1113098D01*
X307712Y1113401D01*
X307799Y1113701D01*
X307894Y1113999D01*
X307995Y1114295D01*
X308104Y1114589D01*
X308221Y1114879D01*
X308344Y1115167D01*
X308474Y1115451D01*
X308611Y1115733D01*
X308756Y1116010D01*
X308906Y1116284D01*
X309064Y1116555D01*
X309228Y1116821D01*
X309399Y1117084D01*
X309576Y1117342D01*
X309759Y1117595D01*
X309949Y1117844D01*
X310144Y1118089D01*
X310346Y1118328D01*
X310553Y1118562D01*
X310766Y1118792D01*
X310984Y1119016D01*
X311208Y1119234D01*
X311438Y1119447D01*
X311672Y1119654D01*
X311911Y1119856D01*
X312156Y1120051D01*
X312405Y1120241D01*
X312658Y1120424D01*
X312916Y1120601D01*
X313179Y1120772D01*
X313445Y1120936D01*
X313716Y1121094D01*
X313990Y1121244D01*
X314267Y1121389D01*
X314549Y1121526D01*
X314833Y1121656D01*
X315121Y1121779D01*
X315411Y1121896D01*
X315705Y1122005D01*
X316001Y1122106D01*
X316299Y1122201D01*
X316599Y1122288D01*
X316902Y1122368D01*
X317206Y1122440D01*
X317513Y1122505D01*
X317820Y1122562D01*
X318129Y1122612D01*
X318439Y1122654D01*
X318750Y1122689D01*
X319062Y1122715D01*
X319374Y1122735D01*
X319687Y1122746D01*
X320000Y1122750D01*
X320313Y1122746D01*
X320626Y1122735D01*
X320938Y1122715D01*
X321250Y1122689D01*
X321561Y1122654D01*
X321871Y1122612D01*
X322180Y1122562D01*
X322487Y1122505D01*
X322794Y1122440D01*
X323098Y1122368D01*
X323401Y1122288D01*
X323701Y1122201D01*
X323999Y1122106D01*
X324295Y1122005D01*
X324589Y1121896D01*
X324879Y1121779D01*
X325167Y1121656D01*
X325451Y1121526D01*
X325733Y1121389D01*
X326010Y1121244D01*
X326284Y1121094D01*
X326555Y1120936D01*
X326821Y1120772D01*
X327084Y1120601D01*
X327342Y1120424D01*
X327595Y1120241D01*
X327844Y1120051D01*
X328089Y1119856D01*
X328328Y1119654D01*
X328562Y1119447D01*
X328792Y1119234D01*
X329016Y1119016D01*
X329234Y1118792D01*
X329447Y1118562D01*
X329654Y1118328D01*
X329856Y1118089D01*
X330051Y1117844D01*
X330241Y1117595D01*
X330424Y1117342D01*
X330601Y1117084D01*
X330772Y1116821D01*
X330936Y1116555D01*
X331094Y1116284D01*
X331244Y1116010D01*
X331389Y1115733D01*
X331526Y1115451D01*
X331656Y1115167D01*
X331779Y1114879D01*
X331896Y1114589D01*
X332005Y1114295D01*
X332106Y1113999D01*
X332201Y1113701D01*
X332288Y1113401D01*
X332368Y1113098D01*
X332440Y1112794D01*
X332505Y1112487D01*
X332562Y1112180D01*
X332612Y1111871D01*
X332654Y1111561D01*
X332689Y1111250D01*
X332715Y1110938D01*
X332735Y1110626D01*
X332746Y1110313D01*
X332750Y1110000D01*
X332746Y1109687D01*
X332735Y1109374D01*
X332715Y1109062D01*
X332689Y1108750D01*
X332654Y1108439D01*
X332612Y1108129D01*
X332562Y1107820D01*
X332505Y1107513D01*
X332440Y1107206D01*
X332368Y1106902D01*
X332288Y1106599D01*
X332201Y1106299D01*
X332106Y1106001D01*
X332005Y1105705D01*
X331896Y1105411D01*
X331779Y1105121D01*
X331656Y1104833D01*
X331526Y1104549D01*
X331389Y1104267D01*
X331244Y1103990D01*
X331094Y1103716D01*
X330936Y1103445D01*
X330772Y1103179D01*
X330601Y1102916D01*
X330424Y1102658D01*
X330241Y1102405D01*
X330051Y1102156D01*
X329856Y1101911D01*
X329654Y1101672D01*
X329447Y1101438D01*
X329234Y1101208D01*
X329016Y1100984D01*
X328792Y1100766D01*
X328562Y1100553D01*
X328328Y1100346D01*
X328089Y1100144D01*
X327844Y1099949D01*
X327595Y1099759D01*
X327342Y1099576D01*
X327084Y1099399D01*
X326821Y1099228D01*
X326555Y1099064D01*
X326284Y1098906D01*
X326010Y1098756D01*
X325733Y1098611D01*
X325451Y1098474D01*
X325167Y1098344D01*
X324879Y1098221D01*
X324589Y1098104D01*
X324295Y1097995D01*
X323999Y1097894D01*
X323701Y1097799D01*
X323401Y1097712D01*
X323098Y1097632D01*
X322794Y1097560D01*
X322487Y1097495D01*
X322180Y1097438D01*
X321871Y1097388D01*
X321561Y1097346D01*
X321250Y1097311D01*
X320938Y1097285D01*
X320626Y1097265D01*
X320313Y1097254D01*
X320000Y1097250D01*
X319687Y1097254D01*
X319374Y1097265D01*
X319062Y1097285D01*
X318750Y1097311D01*
X318439Y1097346D01*
X318129Y1097388D01*
X317820Y1097438D01*
X317513Y1097495D01*
X317206Y1097560D01*
X316902Y1097632D01*
X316599Y1097712D01*
X316299Y1097799D01*
X316001Y1097894D01*
X315705Y1097995D01*
X315411Y1098104D01*
X315121Y1098221D01*
X314833Y1098344D01*
X314549Y1098474D01*
X314267Y1098611D01*
X313990Y1098756D01*
X313716Y1098906D01*
X313445Y1099064D01*
X313179Y1099228D01*
X312916Y1099399D01*
X312658Y1099576D01*
X312405Y1099759D01*
X312156Y1099949D01*
X311911Y1100144D01*
X311672Y1100346D01*
X311438Y1100553D01*
X311208Y1100766D01*
X310984Y1100984D01*
X310766Y1101208D01*
X310553Y1101438D01*
X310346Y1101672D01*
X310144Y1101911D01*
X309949Y1102156D01*
X309759Y1102405D01*
X309576Y1102658D01*
X309399Y1102916D01*
X309228Y1103179D01*
X309064Y1103445D01*
X308906Y1103716D01*
X308756Y1103990D01*
X308611Y1104267D01*
X308474Y1104549D01*
X308344Y1104833D01*
X308221Y1105121D01*
X308104Y1105411D01*
X307995Y1105705D01*
X307894Y1106001D01*
X307799Y1106299D01*
X307712Y1106599D01*
X307632Y1106902D01*
X307560Y1107206D01*
X307495Y1107513D01*
X307438Y1107820D01*
X307388Y1108129D01*
X307346Y1108439D01*
X307311Y1108750D01*
X307285Y1109062D01*
X307265Y1109374D01*
X307254Y1109687D01*
X307250Y1110000D01*
D11*
X315936Y1082775D02*
X324064Y1085484D01*
X324064Y1080065D02*
X315936Y1082775D01*
X315936Y1074129D02*
X315936Y1072323D01*
X315936Y1074129D02*
X315938Y1074212D01*
X315944Y1074296D01*
X315953Y1074379D01*
X315967Y1074461D01*
X315984Y1074542D01*
X316005Y1074623D01*
X316030Y1074703D01*
X316058Y1074781D01*
X316090Y1074858D01*
X316125Y1074934D01*
X316164Y1075008D01*
X316207Y1075080D01*
X316252Y1075150D01*
X316301Y1075217D01*
X316353Y1075283D01*
X316407Y1075346D01*
X316465Y1075406D01*
X316525Y1075464D01*
X316588Y1075518D01*
X316654Y1075570D01*
X316721Y1075619D01*
X316791Y1075665D01*
X316863Y1075707D01*
X316937Y1075746D01*
X317013Y1075781D01*
X317090Y1075813D01*
X317168Y1075841D01*
X317248Y1075866D01*
X317329Y1075887D01*
X317410Y1075904D01*
X317493Y1075918D01*
X317575Y1075927D01*
X317659Y1075933D01*
X317742Y1075935D01*
X322258Y1075935D01*
X322341Y1075933D01*
X322425Y1075927D01*
X322508Y1075918D01*
X322590Y1075904D01*
X322671Y1075887D01*
X322752Y1075866D01*
X322832Y1075841D01*
X322910Y1075813D01*
X322987Y1075781D01*
X323063Y1075746D01*
X323137Y1075707D01*
X323209Y1075665D01*
X323279Y1075619D01*
X323346Y1075570D01*
X323412Y1075518D01*
X323475Y1075464D01*
X323535Y1075406D01*
X323593Y1075346D01*
X323647Y1075283D01*
X323699Y1075217D01*
X323748Y1075150D01*
X323793Y1075080D01*
X323836Y1075008D01*
X323875Y1074934D01*
X323910Y1074859D01*
X323942Y1074781D01*
X323970Y1074703D01*
X323995Y1074623D01*
X324016Y1074543D01*
X324033Y1074461D01*
X324047Y1074379D01*
X324056Y1074296D01*
X324062Y1074212D01*
X324064Y1074129D01*
X324064Y1072323D01*
X315936Y1066509D02*
X315936Y1064703D01*
X315936Y1066509D02*
X315938Y1066592D01*
X315944Y1066676D01*
X315953Y1066759D01*
X315967Y1066841D01*
X315984Y1066922D01*
X316005Y1067003D01*
X316030Y1067083D01*
X316058Y1067161D01*
X316090Y1067238D01*
X316125Y1067314D01*
X316164Y1067388D01*
X316207Y1067460D01*
X316252Y1067530D01*
X316301Y1067597D01*
X316353Y1067663D01*
X316407Y1067726D01*
X316465Y1067786D01*
X316525Y1067844D01*
X316588Y1067898D01*
X316654Y1067950D01*
X316721Y1067999D01*
X316791Y1068045D01*
X316863Y1068087D01*
X316937Y1068126D01*
X317013Y1068161D01*
X317090Y1068193D01*
X317168Y1068221D01*
X317248Y1068246D01*
X317329Y1068267D01*
X317410Y1068284D01*
X317493Y1068298D01*
X317575Y1068307D01*
X317659Y1068313D01*
X317742Y1068315D01*
X322258Y1068315D01*
X322341Y1068313D01*
X322425Y1068307D01*
X322508Y1068298D01*
X322590Y1068284D01*
X322671Y1068267D01*
X322752Y1068246D01*
X322832Y1068221D01*
X322910Y1068193D01*
X322987Y1068161D01*
X323063Y1068126D01*
X323137Y1068087D01*
X323209Y1068045D01*
X323279Y1067999D01*
X323346Y1067950D01*
X323412Y1067898D01*
X323475Y1067844D01*
X323535Y1067786D01*
X323593Y1067726D01*
X323647Y1067663D01*
X323699Y1067597D01*
X323748Y1067530D01*
X323793Y1067460D01*
X323836Y1067388D01*
X323875Y1067314D01*
X323910Y1067239D01*
X323942Y1067161D01*
X323970Y1067083D01*
X323995Y1067003D01*
X324016Y1066923D01*
X324033Y1066841D01*
X324047Y1066759D01*
X324056Y1066676D01*
X324062Y1066592D01*
X324064Y1066509D01*
X324064Y1064703D01*
X295052Y1080968D02*
X295052Y1082323D01*
X295052Y1080968D02*
X290536Y1080968D01*
X290536Y1083678D01*
X290538Y1083761D01*
X290544Y1083845D01*
X290553Y1083928D01*
X290567Y1084010D01*
X290584Y1084091D01*
X290605Y1084172D01*
X290630Y1084252D01*
X290658Y1084330D01*
X290690Y1084407D01*
X290725Y1084483D01*
X290764Y1084557D01*
X290807Y1084629D01*
X290852Y1084699D01*
X290901Y1084766D01*
X290953Y1084832D01*
X291007Y1084895D01*
X291065Y1084955D01*
X291125Y1085013D01*
X291188Y1085067D01*
X291254Y1085119D01*
X291321Y1085168D01*
X291391Y1085214D01*
X291463Y1085256D01*
X291537Y1085295D01*
X291613Y1085330D01*
X291690Y1085362D01*
X291768Y1085390D01*
X291848Y1085415D01*
X291929Y1085436D01*
X292010Y1085453D01*
X292093Y1085467D01*
X292175Y1085476D01*
X292259Y1085482D01*
X292342Y1085484D01*
X296858Y1085484D01*
X296941Y1085482D01*
X297025Y1085476D01*
X297108Y1085467D01*
X297190Y1085453D01*
X297271Y1085436D01*
X297352Y1085415D01*
X297432Y1085390D01*
X297510Y1085362D01*
X297587Y1085330D01*
X297663Y1085295D01*
X297737Y1085256D01*
X297809Y1085214D01*
X297879Y1085168D01*
X297946Y1085119D01*
X298012Y1085067D01*
X298075Y1085013D01*
X298135Y1084955D01*
X298193Y1084895D01*
X298247Y1084832D01*
X298299Y1084766D01*
X298348Y1084699D01*
X298393Y1084629D01*
X298436Y1084557D01*
X298475Y1084483D01*
X298510Y1084408D01*
X298542Y1084330D01*
X298570Y1084252D01*
X298595Y1084172D01*
X298616Y1084092D01*
X298633Y1084010D01*
X298647Y1083928D01*
X298656Y1083845D01*
X298662Y1083761D01*
X298664Y1083678D01*
X298664Y1080968D01*
X298664Y1075730D02*
X290536Y1075730D01*
X290536Y1071215D02*
X298664Y1075730D01*
X298664Y1071215D02*
X290536Y1071215D01*
X290536Y1065977D02*
X298664Y1065977D01*
X298664Y1063719D01*
X298662Y1063626D01*
X298656Y1063533D01*
X298647Y1063440D01*
X298633Y1063347D01*
X298616Y1063256D01*
X298595Y1063165D01*
X298570Y1063075D01*
X298542Y1062986D01*
X298510Y1062898D01*
X298474Y1062812D01*
X298435Y1062727D01*
X298392Y1062644D01*
X298346Y1062563D01*
X298296Y1062484D01*
X298244Y1062407D01*
X298188Y1062332D01*
X298129Y1062260D01*
X298067Y1062190D01*
X298003Y1062122D01*
X297935Y1062058D01*
X297865Y1061996D01*
X297793Y1061937D01*
X297718Y1061881D01*
X297641Y1061829D01*
X297562Y1061779D01*
X297481Y1061733D01*
X297398Y1061690D01*
X297313Y1061651D01*
X297227Y1061615D01*
X297139Y1061583D01*
X297050Y1061555D01*
X296960Y1061530D01*
X296869Y1061509D01*
X296778Y1061492D01*
X296685Y1061478D01*
X296592Y1061469D01*
X296499Y1061463D01*
X296406Y1061461D01*
X292794Y1061461D01*
X292701Y1061463D01*
X292608Y1061469D01*
X292515Y1061478D01*
X292422Y1061492D01*
X292331Y1061509D01*
X292240Y1061530D01*
X292150Y1061555D01*
X292061Y1061583D01*
X291973Y1061615D01*
X291887Y1061651D01*
X291802Y1061690D01*
X291719Y1061733D01*
X291638Y1061779D01*
X291559Y1061829D01*
X291482Y1061881D01*
X291407Y1061937D01*
X291335Y1061996D01*
X291265Y1062058D01*
X291197Y1062122D01*
X291133Y1062190D01*
X291071Y1062260D01*
X291012Y1062332D01*
X290956Y1062407D01*
X290904Y1062484D01*
X290854Y1062563D01*
X290808Y1062644D01*
X290765Y1062727D01*
X290726Y1062812D01*
X290690Y1062898D01*
X290658Y1062986D01*
X290630Y1063075D01*
X290605Y1063165D01*
X290584Y1063256D01*
X290567Y1063347D01*
X290553Y1063440D01*
X290544Y1063533D01*
X290538Y1063626D01*
X290536Y1063719D01*
X290536Y1065977D01*
X273264Y1083226D02*
X265136Y1083226D01*
X273264Y1085484D02*
X273264Y1080968D01*
X265136Y1077401D02*
X273264Y1071983D01*
X273264Y1077401D02*
X265136Y1071983D01*
X265136Y1067501D02*
X273264Y1067501D01*
X273264Y1065243D01*
X273262Y1065150D01*
X273256Y1065057D01*
X273247Y1064964D01*
X273233Y1064871D01*
X273216Y1064780D01*
X273195Y1064689D01*
X273170Y1064599D01*
X273142Y1064510D01*
X273110Y1064422D01*
X273074Y1064336D01*
X273035Y1064251D01*
X272992Y1064168D01*
X272946Y1064087D01*
X272896Y1064008D01*
X272844Y1063931D01*
X272788Y1063856D01*
X272729Y1063784D01*
X272667Y1063714D01*
X272603Y1063646D01*
X272535Y1063582D01*
X272465Y1063520D01*
X272393Y1063461D01*
X272318Y1063405D01*
X272241Y1063353D01*
X272162Y1063303D01*
X272081Y1063257D01*
X271998Y1063214D01*
X271913Y1063175D01*
X271827Y1063139D01*
X271739Y1063107D01*
X271650Y1063079D01*
X271560Y1063054D01*
X271469Y1063033D01*
X271378Y1063016D01*
X271285Y1063002D01*
X271192Y1062993D01*
X271099Y1062987D01*
X271006Y1062985D01*
X267394Y1062985D01*
X267301Y1062987D01*
X267208Y1062993D01*
X267115Y1063002D01*
X267022Y1063016D01*
X266931Y1063033D01*
X266840Y1063054D01*
X266750Y1063079D01*
X266661Y1063107D01*
X266573Y1063139D01*
X266487Y1063175D01*
X266402Y1063214D01*
X266319Y1063257D01*
X266238Y1063303D01*
X266159Y1063353D01*
X266082Y1063405D01*
X266007Y1063461D01*
X265935Y1063520D01*
X265865Y1063582D01*
X265797Y1063646D01*
X265733Y1063714D01*
X265671Y1063784D01*
X265612Y1063856D01*
X265556Y1063931D01*
X265504Y1064008D01*
X265454Y1064087D01*
X265408Y1064168D01*
X265365Y1064251D01*
X265326Y1064336D01*
X265290Y1064422D01*
X265258Y1064510D01*
X265230Y1064599D01*
X265205Y1064689D01*
X265184Y1064780D01*
X265167Y1064871D01*
X265153Y1064964D01*
X265144Y1065057D01*
X265138Y1065150D01*
X265136Y1065243D01*
X265136Y1067501D01*
X247864Y1085484D02*
X239736Y1085484D01*
X247864Y1085484D02*
X247864Y1083226D01*
X247862Y1083133D01*
X247856Y1083040D01*
X247847Y1082947D01*
X247833Y1082854D01*
X247816Y1082763D01*
X247795Y1082672D01*
X247770Y1082582D01*
X247742Y1082493D01*
X247710Y1082405D01*
X247674Y1082319D01*
X247635Y1082234D01*
X247592Y1082151D01*
X247546Y1082070D01*
X247496Y1081991D01*
X247444Y1081914D01*
X247388Y1081839D01*
X247329Y1081767D01*
X247267Y1081697D01*
X247203Y1081629D01*
X247135Y1081565D01*
X247065Y1081503D01*
X246993Y1081444D01*
X246918Y1081388D01*
X246841Y1081336D01*
X246762Y1081286D01*
X246681Y1081240D01*
X246598Y1081197D01*
X246513Y1081158D01*
X246427Y1081122D01*
X246339Y1081090D01*
X246250Y1081062D01*
X246160Y1081037D01*
X246069Y1081016D01*
X245978Y1080999D01*
X245885Y1080985D01*
X245792Y1080976D01*
X245699Y1080970D01*
X245606Y1080968D01*
X245513Y1080970D01*
X245420Y1080976D01*
X245327Y1080985D01*
X245234Y1080999D01*
X245143Y1081016D01*
X245052Y1081037D01*
X244962Y1081062D01*
X244873Y1081090D01*
X244785Y1081122D01*
X244699Y1081158D01*
X244614Y1081197D01*
X244531Y1081240D01*
X244450Y1081286D01*
X244371Y1081336D01*
X244294Y1081388D01*
X244219Y1081444D01*
X244147Y1081503D01*
X244077Y1081565D01*
X244009Y1081629D01*
X243945Y1081697D01*
X243883Y1081767D01*
X243824Y1081839D01*
X243768Y1081914D01*
X243716Y1081991D01*
X243666Y1082070D01*
X243620Y1082151D01*
X243577Y1082234D01*
X243538Y1082319D01*
X243502Y1082405D01*
X243470Y1082493D01*
X243442Y1082582D01*
X243417Y1082672D01*
X243396Y1082763D01*
X243379Y1082854D01*
X243365Y1082947D01*
X243356Y1083040D01*
X243350Y1083133D01*
X243348Y1083226D01*
X243348Y1085484D01*
X243348Y1082775D02*
X239736Y1080968D01*
X239736Y1076895D02*
X247864Y1071476D01*
X247864Y1076895D02*
X239736Y1071476D01*
X239736Y1066994D02*
X247864Y1066994D01*
X247864Y1064737D01*
X247862Y1064644D01*
X247856Y1064551D01*
X247847Y1064458D01*
X247833Y1064365D01*
X247816Y1064274D01*
X247795Y1064183D01*
X247770Y1064093D01*
X247742Y1064004D01*
X247710Y1063916D01*
X247674Y1063830D01*
X247635Y1063745D01*
X247592Y1063662D01*
X247546Y1063581D01*
X247496Y1063502D01*
X247444Y1063425D01*
X247388Y1063350D01*
X247329Y1063278D01*
X247267Y1063208D01*
X247203Y1063140D01*
X247135Y1063076D01*
X247065Y1063014D01*
X246993Y1062955D01*
X246918Y1062899D01*
X246841Y1062847D01*
X246762Y1062797D01*
X246681Y1062751D01*
X246598Y1062708D01*
X246513Y1062669D01*
X246427Y1062633D01*
X246339Y1062601D01*
X246250Y1062573D01*
X246160Y1062548D01*
X246069Y1062527D01*
X245978Y1062510D01*
X245885Y1062496D01*
X245792Y1062487D01*
X245699Y1062481D01*
X245606Y1062479D01*
X241994Y1062479D01*
X241901Y1062481D01*
X241808Y1062487D01*
X241715Y1062496D01*
X241622Y1062510D01*
X241531Y1062527D01*
X241440Y1062548D01*
X241350Y1062573D01*
X241261Y1062601D01*
X241173Y1062633D01*
X241087Y1062669D01*
X241002Y1062708D01*
X240919Y1062751D01*
X240838Y1062797D01*
X240759Y1062847D01*
X240682Y1062899D01*
X240607Y1062955D01*
X240535Y1063014D01*
X240465Y1063076D01*
X240397Y1063140D01*
X240333Y1063208D01*
X240271Y1063278D01*
X240212Y1063350D01*
X240156Y1063425D01*
X240104Y1063502D01*
X240054Y1063581D01*
X240008Y1063662D01*
X239965Y1063745D01*
X239926Y1063830D01*
X239890Y1063916D01*
X239858Y1064004D01*
X239830Y1064093D01*
X239805Y1064183D01*
X239784Y1064274D01*
X239767Y1064365D01*
X239753Y1064458D01*
X239744Y1064551D01*
X239738Y1064644D01*
X239736Y1064737D01*
X239736Y1066994D01*
X222464Y1085484D02*
X214336Y1085484D01*
X222464Y1085484D02*
X222464Y1083226D01*
X222462Y1083133D01*
X222456Y1083040D01*
X222447Y1082947D01*
X222433Y1082854D01*
X222416Y1082763D01*
X222395Y1082672D01*
X222370Y1082582D01*
X222342Y1082493D01*
X222310Y1082405D01*
X222274Y1082319D01*
X222235Y1082234D01*
X222192Y1082151D01*
X222146Y1082070D01*
X222096Y1081991D01*
X222044Y1081914D01*
X221988Y1081839D01*
X221929Y1081767D01*
X221867Y1081697D01*
X221803Y1081629D01*
X221735Y1081565D01*
X221665Y1081503D01*
X221593Y1081444D01*
X221518Y1081388D01*
X221441Y1081336D01*
X221362Y1081286D01*
X221281Y1081240D01*
X221198Y1081197D01*
X221113Y1081158D01*
X221027Y1081122D01*
X220939Y1081090D01*
X220850Y1081062D01*
X220760Y1081037D01*
X220669Y1081016D01*
X220578Y1080999D01*
X220485Y1080985D01*
X220392Y1080976D01*
X220299Y1080970D01*
X220206Y1080968D01*
X220113Y1080970D01*
X220020Y1080976D01*
X219927Y1080985D01*
X219834Y1080999D01*
X219743Y1081016D01*
X219652Y1081037D01*
X219562Y1081062D01*
X219473Y1081090D01*
X219385Y1081122D01*
X219299Y1081158D01*
X219214Y1081197D01*
X219131Y1081240D01*
X219050Y1081286D01*
X218971Y1081336D01*
X218894Y1081388D01*
X218819Y1081444D01*
X218747Y1081503D01*
X218677Y1081565D01*
X218609Y1081629D01*
X218545Y1081697D01*
X218483Y1081767D01*
X218424Y1081839D01*
X218368Y1081914D01*
X218316Y1081991D01*
X218266Y1082070D01*
X218220Y1082151D01*
X218177Y1082234D01*
X218138Y1082319D01*
X218102Y1082405D01*
X218070Y1082493D01*
X218042Y1082582D01*
X218017Y1082672D01*
X217996Y1082763D01*
X217979Y1082854D01*
X217965Y1082947D01*
X217956Y1083040D01*
X217950Y1083133D01*
X217948Y1083226D01*
X217948Y1085484D01*
X217948Y1082775D02*
X214336Y1080968D01*
X214336Y1074795D02*
X222464Y1074795D01*
X222464Y1077053D02*
X222464Y1072537D01*
X214336Y1066114D02*
X214338Y1066031D01*
X214344Y1065947D01*
X214353Y1065864D01*
X214367Y1065782D01*
X214384Y1065701D01*
X214405Y1065620D01*
X214430Y1065540D01*
X214458Y1065462D01*
X214490Y1065385D01*
X214525Y1065309D01*
X214564Y1065235D01*
X214607Y1065163D01*
X214652Y1065093D01*
X214701Y1065026D01*
X214753Y1064960D01*
X214807Y1064897D01*
X214865Y1064837D01*
X214925Y1064779D01*
X214988Y1064725D01*
X215054Y1064673D01*
X215121Y1064624D01*
X215191Y1064579D01*
X215263Y1064536D01*
X215337Y1064497D01*
X215413Y1064462D01*
X215490Y1064430D01*
X215568Y1064402D01*
X215648Y1064377D01*
X215729Y1064356D01*
X215810Y1064339D01*
X215892Y1064325D01*
X215975Y1064316D01*
X216059Y1064310D01*
X216142Y1064308D01*
X214336Y1066114D02*
X214338Y1066235D01*
X214344Y1066355D01*
X214353Y1066475D01*
X214366Y1066595D01*
X214383Y1066714D01*
X214404Y1066833D01*
X214429Y1066951D01*
X214457Y1067068D01*
X214489Y1067184D01*
X214525Y1067299D01*
X214564Y1067413D01*
X214607Y1067526D01*
X214653Y1067637D01*
X214703Y1067747D01*
X214756Y1067855D01*
X214813Y1067961D01*
X214873Y1068066D01*
X214936Y1068168D01*
X215003Y1068269D01*
X215072Y1068367D01*
X215145Y1068463D01*
X215221Y1068557D01*
X215299Y1068649D01*
X215381Y1068737D01*
X215465Y1068824D01*
X220658Y1068597D02*
X220741Y1068595D01*
X220825Y1068589D01*
X220908Y1068580D01*
X220990Y1068566D01*
X221071Y1068549D01*
X221152Y1068528D01*
X221232Y1068503D01*
X221310Y1068475D01*
X221387Y1068443D01*
X221463Y1068408D01*
X221537Y1068369D01*
X221609Y1068326D01*
X221679Y1068281D01*
X221746Y1068232D01*
X221812Y1068180D01*
X221875Y1068126D01*
X221935Y1068068D01*
X221993Y1068008D01*
X222047Y1067945D01*
X222099Y1067879D01*
X222148Y1067812D01*
X222193Y1067742D01*
X222236Y1067670D01*
X222275Y1067596D01*
X222310Y1067520D01*
X222342Y1067443D01*
X222370Y1067365D01*
X222395Y1067285D01*
X222416Y1067204D01*
X222433Y1067123D01*
X222447Y1067041D01*
X222456Y1066958D01*
X222462Y1066874D01*
X222464Y1066791D01*
X222462Y1066676D01*
X222456Y1066562D01*
X222447Y1066447D01*
X222433Y1066334D01*
X222416Y1066220D01*
X222394Y1066107D01*
X222369Y1065996D01*
X222340Y1065884D01*
X222308Y1065774D01*
X222272Y1065666D01*
X222232Y1065558D01*
X222188Y1065452D01*
X222141Y1065347D01*
X222090Y1065245D01*
X222036Y1065143D01*
X221979Y1065044D01*
X221918Y1064947D01*
X221854Y1064852D01*
X221787Y1064759D01*
X219078Y1067694D02*
X219122Y1067764D01*
X219168Y1067833D01*
X219218Y1067899D01*
X219271Y1067963D01*
X219326Y1068024D01*
X219385Y1068083D01*
X219446Y1068139D01*
X219509Y1068192D01*
X219575Y1068243D01*
X219642Y1068290D01*
X219712Y1068334D01*
X219784Y1068375D01*
X219858Y1068413D01*
X219933Y1068448D01*
X220010Y1068479D01*
X220088Y1068506D01*
X220167Y1068530D01*
X220248Y1068550D01*
X220329Y1068567D01*
X220410Y1068580D01*
X220493Y1068590D01*
X220575Y1068595D01*
X220658Y1068597D01*
X217722Y1065211D02*
X217678Y1065141D01*
X217632Y1065072D01*
X217582Y1065006D01*
X217529Y1064942D01*
X217474Y1064881D01*
X217415Y1064822D01*
X217354Y1064766D01*
X217291Y1064713D01*
X217225Y1064662D01*
X217158Y1064615D01*
X217088Y1064571D01*
X217016Y1064530D01*
X216942Y1064492D01*
X216867Y1064457D01*
X216790Y1064426D01*
X216712Y1064399D01*
X216633Y1064375D01*
X216552Y1064355D01*
X216471Y1064338D01*
X216390Y1064325D01*
X216307Y1064315D01*
X216225Y1064310D01*
X216142Y1064308D01*
X217723Y1065211D02*
X219077Y1067694D01*
X197064Y1085484D02*
X188936Y1085484D01*
X197064Y1085484D02*
X197064Y1083226D01*
X197062Y1083133D01*
X197056Y1083040D01*
X197047Y1082947D01*
X197033Y1082854D01*
X197016Y1082763D01*
X196995Y1082672D01*
X196970Y1082582D01*
X196942Y1082493D01*
X196910Y1082405D01*
X196874Y1082319D01*
X196835Y1082234D01*
X196792Y1082151D01*
X196746Y1082070D01*
X196696Y1081991D01*
X196644Y1081914D01*
X196588Y1081839D01*
X196529Y1081767D01*
X196467Y1081697D01*
X196403Y1081629D01*
X196335Y1081565D01*
X196265Y1081503D01*
X196193Y1081444D01*
X196118Y1081388D01*
X196041Y1081336D01*
X195962Y1081286D01*
X195881Y1081240D01*
X195798Y1081197D01*
X195713Y1081158D01*
X195627Y1081122D01*
X195539Y1081090D01*
X195450Y1081062D01*
X195360Y1081037D01*
X195269Y1081016D01*
X195178Y1080999D01*
X195085Y1080985D01*
X194992Y1080976D01*
X194899Y1080970D01*
X194806Y1080968D01*
X191194Y1080968D01*
X191101Y1080970D01*
X191008Y1080976D01*
X190915Y1080985D01*
X190822Y1080999D01*
X190731Y1081016D01*
X190640Y1081037D01*
X190550Y1081062D01*
X190461Y1081090D01*
X190373Y1081122D01*
X190287Y1081158D01*
X190202Y1081197D01*
X190119Y1081240D01*
X190038Y1081286D01*
X189959Y1081336D01*
X189882Y1081388D01*
X189807Y1081444D01*
X189735Y1081503D01*
X189665Y1081565D01*
X189597Y1081629D01*
X189533Y1081697D01*
X189471Y1081767D01*
X189412Y1081839D01*
X189356Y1081914D01*
X189304Y1081991D01*
X189254Y1082070D01*
X189208Y1082151D01*
X189165Y1082234D01*
X189126Y1082319D01*
X189090Y1082405D01*
X189058Y1082493D01*
X189030Y1082582D01*
X189005Y1082672D01*
X188984Y1082763D01*
X188967Y1082854D01*
X188953Y1082947D01*
X188944Y1083040D01*
X188938Y1083133D01*
X188936Y1083226D01*
X188936Y1085484D01*
X188936Y1074387D02*
X197064Y1074387D01*
X197064Y1076645D02*
X197064Y1072129D01*
X197064Y1067703D02*
X188936Y1067703D01*
X197064Y1067703D02*
X197064Y1065445D01*
X197062Y1065352D01*
X197056Y1065259D01*
X197047Y1065166D01*
X197033Y1065073D01*
X197016Y1064982D01*
X196995Y1064891D01*
X196970Y1064801D01*
X196942Y1064712D01*
X196910Y1064624D01*
X196874Y1064538D01*
X196835Y1064453D01*
X196792Y1064370D01*
X196746Y1064289D01*
X196696Y1064210D01*
X196644Y1064133D01*
X196588Y1064058D01*
X196529Y1063986D01*
X196467Y1063916D01*
X196403Y1063848D01*
X196335Y1063784D01*
X196265Y1063722D01*
X196193Y1063663D01*
X196118Y1063607D01*
X196041Y1063555D01*
X195962Y1063505D01*
X195881Y1063459D01*
X195798Y1063416D01*
X195713Y1063377D01*
X195627Y1063341D01*
X195539Y1063309D01*
X195450Y1063281D01*
X195360Y1063256D01*
X195269Y1063235D01*
X195178Y1063218D01*
X195085Y1063204D01*
X194992Y1063195D01*
X194899Y1063189D01*
X194806Y1063187D01*
X194713Y1063189D01*
X194620Y1063195D01*
X194527Y1063204D01*
X194434Y1063218D01*
X194343Y1063235D01*
X194252Y1063256D01*
X194162Y1063281D01*
X194073Y1063309D01*
X193985Y1063341D01*
X193899Y1063377D01*
X193814Y1063416D01*
X193731Y1063459D01*
X193650Y1063505D01*
X193571Y1063555D01*
X193494Y1063607D01*
X193419Y1063663D01*
X193347Y1063722D01*
X193277Y1063784D01*
X193209Y1063848D01*
X193145Y1063916D01*
X193083Y1063986D01*
X193024Y1064058D01*
X192968Y1064133D01*
X192916Y1064210D01*
X192866Y1064289D01*
X192820Y1064370D01*
X192777Y1064453D01*
X192738Y1064538D01*
X192702Y1064624D01*
X192670Y1064712D01*
X192642Y1064801D01*
X192617Y1064891D01*
X192596Y1064982D01*
X192579Y1065073D01*
X192565Y1065166D01*
X192556Y1065259D01*
X192550Y1065352D01*
X192548Y1065445D01*
X192548Y1067703D01*
X192548Y1064993D02*
X188936Y1063187D01*
D12*
X47700Y1010748D02*
X22300Y1010748D01*
D13*
X25244Y983292D02*
X25528Y983062D01*
X25816Y982838D01*
X26110Y982622D01*
X26409Y982412D01*
X26713Y982210D01*
X27022Y982015D01*
X27335Y981828D01*
X27653Y981648D01*
X27975Y981476D01*
X28301Y981311D01*
X28631Y981155D01*
X28964Y981006D01*
X29301Y980866D01*
X29641Y980733D01*
X29984Y980609D01*
X30331Y980493D01*
X30679Y980385D01*
X31031Y980286D01*
X31384Y980195D01*
X31740Y980113D01*
X32098Y980039D01*
X32457Y979974D01*
X32817Y979917D01*
X33179Y979869D01*
X33542Y979830D01*
X33906Y979799D01*
X34270Y979777D01*
X34635Y979764D01*
X35000Y979760D01*
X35369Y979764D01*
X35738Y979778D01*
X36106Y979800D01*
X36474Y979831D01*
X36841Y979871D01*
X37207Y979920D01*
X37571Y979978D01*
X37934Y980045D01*
X38296Y980120D01*
X38655Y980205D01*
X39012Y980297D01*
X39367Y980399D01*
X39719Y980509D01*
X40069Y980627D01*
X40416Y980754D01*
X40759Y980890D01*
X41099Y981033D01*
X41436Y981185D01*
X41768Y981345D01*
X42097Y981513D01*
X42422Y981689D01*
X42742Y981873D01*
X43057Y982064D01*
X43368Y982263D01*
X43674Y982469D01*
X43975Y982683D01*
X44271Y982904D01*
X44561Y983132D01*
X44846Y983367D01*
X45125Y983609D01*
X35000Y1010240D02*
X34628Y1010235D01*
X34255Y1010222D01*
X33884Y1010199D01*
X33513Y1010167D01*
X33143Y1010126D01*
X32773Y1010076D01*
X32406Y1010018D01*
X32040Y1009950D01*
X31675Y1009873D01*
X31313Y1009787D01*
X30953Y1009693D01*
X30595Y1009589D01*
X30240Y1009477D01*
X29887Y1009357D01*
X29538Y1009228D01*
X29192Y1009090D01*
X28850Y1008944D01*
X28511Y1008789D01*
X28176Y1008627D01*
X27845Y1008456D01*
X27518Y1008277D01*
X27196Y1008090D01*
X26879Y1007896D01*
X26566Y1007693D01*
X26258Y1007484D01*
X25956Y1007266D01*
X25659Y1007042D01*
X25368Y1006810D01*
X25082Y1006571D01*
X35000Y1010240D02*
X35365Y1010236D01*
X35730Y1010223D01*
X36094Y1010201D01*
X36458Y1010170D01*
X36821Y1010131D01*
X37183Y1010083D01*
X37543Y1010026D01*
X37902Y1009961D01*
X38260Y1009887D01*
X38616Y1009805D01*
X38969Y1009714D01*
X39321Y1009615D01*
X39669Y1009507D01*
X40016Y1009391D01*
X40359Y1009267D01*
X40699Y1009134D01*
X41036Y1008994D01*
X41369Y1008845D01*
X41699Y1008689D01*
X42025Y1008524D01*
X42347Y1008352D01*
X42665Y1008172D01*
X42978Y1007985D01*
X43287Y1007790D01*
X43591Y1007588D01*
X43890Y1007378D01*
X44184Y1007162D01*
X44472Y1006938D01*
X44756Y1006708D01*
X26142Y1007401D02*
X25842Y1007182D01*
X25548Y1006955D01*
X25260Y1006721D01*
X24977Y1006480D01*
X24700Y1006233D01*
X24429Y1005978D01*
X24165Y1005717D01*
X23907Y1005450D01*
X23656Y1005177D01*
X23411Y1004897D01*
X23173Y1004612D01*
X22943Y1004321D01*
X22719Y1004024D01*
X22503Y1003722D01*
X22294Y1003415D01*
X22093Y1003103D01*
X21899Y1002786D01*
X21713Y1002464D01*
X21535Y1002138D01*
X21365Y1001808D01*
X21203Y1001474D01*
X21050Y1001136D01*
X20904Y1000794D01*
X20767Y1000449D01*
X20639Y1000100D01*
X20519Y999749D01*
X20407Y999394D01*
X20305Y999037D01*
X20210Y998678D01*
X20125Y998317D01*
X20049Y997953D01*
X19981Y997588D01*
X19923Y997221D01*
X19873Y996853D01*
X19832Y996484D01*
X19801Y996114D01*
X19778Y995743D01*
X19765Y995372D01*
X19760Y995000D01*
X19765Y994628D01*
X19778Y994257D01*
X19801Y993885D01*
X19833Y993515D01*
X19873Y993145D01*
X19923Y992777D01*
X19982Y992409D01*
X20049Y992044D01*
X20126Y991680D01*
X20212Y991318D01*
X20306Y990958D01*
X20409Y990601D01*
X20520Y990246D01*
X20641Y989894D01*
X20770Y989545D01*
X20907Y989200D01*
X21053Y988858D01*
X21207Y988519D01*
X21369Y988184D01*
X21539Y987854D01*
X21718Y987528D01*
X21904Y987206D01*
X22098Y986888D01*
X22300Y986576D01*
X22509Y986269D01*
X22726Y985967D01*
X22950Y985670D01*
X23181Y985378D01*
X23419Y985093D01*
X23665Y984813D01*
X23917Y984540D01*
X24175Y984272D01*
X24440Y984012D01*
X24711Y983757D01*
X24989Y983509D01*
X25272Y983269D01*
X25561Y983035D01*
X25856Y982808D01*
X50240Y995000D02*
X50236Y995364D01*
X50223Y995729D01*
X50201Y996093D01*
X50170Y996457D01*
X50131Y996820D01*
X50083Y997181D01*
X50027Y997542D01*
X49961Y997901D01*
X49888Y998258D01*
X49805Y998614D01*
X49715Y998967D01*
X49615Y999318D01*
X49508Y999667D01*
X49392Y1000013D01*
X49268Y1000356D01*
X49136Y1000696D01*
X48995Y1001033D01*
X48847Y1001366D01*
X48690Y1001696D01*
X48526Y1002021D01*
X48354Y1002343D01*
X48174Y1002661D01*
X47987Y1002974D01*
X47793Y1003283D01*
X47591Y1003586D01*
X47382Y1003885D01*
X47165Y1004179D01*
X46942Y1004468D01*
X46712Y1004751D01*
X46475Y1005029D01*
X46232Y1005300D01*
X45982Y1005566D01*
X45726Y1005826D01*
X45463Y1006080D01*
X45195Y1006327D01*
X44921Y1006568D01*
X44641Y1006802D01*
X44356Y1007030D01*
X50240Y995000D02*
X50236Y994636D01*
X50223Y994271D01*
X50201Y993907D01*
X50170Y993543D01*
X50131Y993180D01*
X50083Y992819D01*
X50027Y992458D01*
X49961Y992099D01*
X49888Y991742D01*
X49805Y991386D01*
X49715Y991033D01*
X49615Y990682D01*
X49508Y990333D01*
X49392Y989987D01*
X49268Y989644D01*
X49136Y989304D01*
X48995Y988967D01*
X48847Y988634D01*
X48690Y988304D01*
X48526Y987979D01*
X48354Y987657D01*
X48174Y987339D01*
X47987Y987026D01*
X47793Y986717D01*
X47591Y986414D01*
X47382Y986115D01*
X47165Y985821D01*
X46942Y985532D01*
X46712Y985249D01*
X46475Y984971D01*
X46232Y984700D01*
X45982Y984434D01*
X45726Y984174D01*
X45463Y983920D01*
X45195Y983673D01*
X44921Y983432D01*
X44641Y983198D01*
X44356Y982970D01*
X35000Y988650D02*
X34842Y988652D01*
X34683Y988658D01*
X34525Y988668D01*
X34368Y988682D01*
X34210Y988699D01*
X34054Y988721D01*
X33897Y988746D01*
X33742Y988776D01*
X33587Y988809D01*
X33433Y988846D01*
X33280Y988887D01*
X33128Y988932D01*
X32978Y988981D01*
X32828Y989033D01*
X32680Y989089D01*
X32533Y989149D01*
X32388Y989212D01*
X32245Y989279D01*
X32103Y989349D01*
X31963Y989423D01*
X31825Y989501D01*
X31689Y989582D01*
X31555Y989666D01*
X31423Y989753D01*
X31293Y989844D01*
X31166Y989938D01*
X31041Y990035D01*
X30918Y990136D01*
X30798Y990239D01*
X30681Y990345D01*
X30566Y990454D01*
X30454Y990566D01*
X30345Y990681D01*
X30239Y990798D01*
X30136Y990918D01*
X30035Y991041D01*
X29938Y991166D01*
X29844Y991293D01*
X29753Y991423D01*
X29666Y991555D01*
X29582Y991689D01*
X29501Y991825D01*
X29423Y991963D01*
X29349Y992103D01*
X29279Y992245D01*
X29212Y992388D01*
X29149Y992533D01*
X29089Y992680D01*
X29033Y992828D01*
X28981Y992978D01*
X28932Y993128D01*
X28887Y993280D01*
X28846Y993433D01*
X28809Y993587D01*
X28776Y993742D01*
X28746Y993897D01*
X28721Y994054D01*
X28699Y994210D01*
X28682Y994368D01*
X28668Y994525D01*
X28658Y994683D01*
X28652Y994842D01*
X28650Y995000D01*
X24840Y995000D02*
X24843Y994754D01*
X24852Y994509D01*
X24867Y994264D01*
X24887Y994019D01*
X24914Y993775D01*
X24947Y993532D01*
X24985Y993289D01*
X25029Y993048D01*
X25079Y992808D01*
X25135Y992569D01*
X25197Y992331D01*
X25264Y992095D01*
X25337Y991860D01*
X25416Y991628D01*
X25500Y991397D01*
X25590Y991169D01*
X25685Y990942D01*
X25786Y990719D01*
X25892Y990497D01*
X26004Y990278D01*
X26120Y990062D01*
X26242Y989849D01*
X26369Y989639D01*
X26501Y989432D01*
X26638Y989228D01*
X26780Y989028D01*
X26927Y988831D01*
X27079Y988638D01*
X27235Y988448D01*
X27395Y988263D01*
X27560Y988081D01*
X27730Y987903D01*
X27903Y987730D01*
X28081Y987560D01*
X28263Y987395D01*
X28448Y987235D01*
X28638Y987079D01*
X28831Y986927D01*
X29028Y986780D01*
X29228Y986638D01*
X29432Y986501D01*
X29639Y986369D01*
X29849Y986242D01*
X30062Y986120D01*
X30278Y986004D01*
X30497Y985892D01*
X30719Y985786D01*
X30942Y985685D01*
X31169Y985590D01*
X31397Y985500D01*
X31628Y985416D01*
X31860Y985337D01*
X32095Y985264D01*
X32331Y985197D01*
X32569Y985135D01*
X32808Y985079D01*
X33048Y985029D01*
X33289Y984985D01*
X33532Y984947D01*
X33775Y984914D01*
X34019Y984887D01*
X34264Y984867D01*
X34509Y984852D01*
X34754Y984843D01*
X35000Y984840D01*
X41350Y995000D02*
X41348Y995158D01*
X41342Y995317D01*
X41332Y995475D01*
X41318Y995632D01*
X41301Y995790D01*
X41279Y995946D01*
X41254Y996103D01*
X41224Y996258D01*
X41191Y996413D01*
X41154Y996567D01*
X41113Y996720D01*
X41068Y996872D01*
X41019Y997022D01*
X40967Y997172D01*
X40911Y997320D01*
X40851Y997467D01*
X40788Y997612D01*
X40721Y997755D01*
X40651Y997897D01*
X40577Y998037D01*
X40499Y998175D01*
X40418Y998311D01*
X40334Y998445D01*
X40247Y998577D01*
X40156Y998707D01*
X40062Y998834D01*
X39965Y998959D01*
X39864Y999082D01*
X39761Y999202D01*
X39655Y999319D01*
X39546Y999434D01*
X39434Y999546D01*
X39319Y999655D01*
X39202Y999761D01*
X39082Y999864D01*
X38959Y999965D01*
X38834Y1000062D01*
X38707Y1000156D01*
X38577Y1000247D01*
X38445Y1000334D01*
X38311Y1000418D01*
X38175Y1000499D01*
X38037Y1000577D01*
X37897Y1000651D01*
X37755Y1000721D01*
X37612Y1000788D01*
X37467Y1000851D01*
X37320Y1000911D01*
X37172Y1000967D01*
X37022Y1001019D01*
X36872Y1001068D01*
X36720Y1001113D01*
X36567Y1001154D01*
X36413Y1001191D01*
X36258Y1001224D01*
X36103Y1001254D01*
X35946Y1001279D01*
X35790Y1001301D01*
X35632Y1001318D01*
X35475Y1001332D01*
X35317Y1001342D01*
X35158Y1001348D01*
X35000Y1001350D01*
X35000Y1005160D02*
X35246Y1005157D01*
X35491Y1005148D01*
X35736Y1005133D01*
X35981Y1005113D01*
X36225Y1005086D01*
X36468Y1005053D01*
X36711Y1005015D01*
X36952Y1004971D01*
X37192Y1004921D01*
X37431Y1004865D01*
X37669Y1004803D01*
X37905Y1004736D01*
X38140Y1004663D01*
X38372Y1004584D01*
X38603Y1004500D01*
X38831Y1004410D01*
X39058Y1004315D01*
X39281Y1004214D01*
X39503Y1004108D01*
X39722Y1003996D01*
X39938Y1003880D01*
X40151Y1003758D01*
X40361Y1003631D01*
X40568Y1003499D01*
X40772Y1003362D01*
X40972Y1003220D01*
X41169Y1003073D01*
X41362Y1002921D01*
X41552Y1002765D01*
X41737Y1002605D01*
X41919Y1002440D01*
X42097Y1002270D01*
X42270Y1002097D01*
X42440Y1001919D01*
X42605Y1001737D01*
X42765Y1001552D01*
X42921Y1001362D01*
X43073Y1001169D01*
X43220Y1000972D01*
X43362Y1000772D01*
X43499Y1000568D01*
X43631Y1000361D01*
X43758Y1000151D01*
X43880Y999938D01*
X43996Y999722D01*
X44108Y999503D01*
X44214Y999281D01*
X44315Y999058D01*
X44410Y998831D01*
X44500Y998603D01*
X44584Y998372D01*
X44663Y998140D01*
X44736Y997905D01*
X44803Y997669D01*
X44865Y997431D01*
X44921Y997192D01*
X44971Y996952D01*
X45015Y996711D01*
X45053Y996468D01*
X45086Y996225D01*
X45113Y995981D01*
X45133Y995736D01*
X45148Y995491D01*
X45157Y995246D01*
X45160Y995000D01*
D12*
X21991Y1010610D02*
X21615Y1010289D01*
X21247Y1009959D01*
X20887Y1009619D01*
X20536Y1009272D01*
X20193Y1008916D01*
X19858Y1008551D01*
X19533Y1008179D01*
X19217Y1007798D01*
X18910Y1007411D01*
X18613Y1007015D01*
X18326Y1006613D01*
X18048Y1006204D01*
X17780Y1005788D01*
X17523Y1005366D01*
X17276Y1004938D01*
X17039Y1004504D01*
X16813Y1004064D01*
X16598Y1003619D01*
X16394Y1003168D01*
X16201Y1002713D01*
X16019Y1002253D01*
X15848Y1001789D01*
X15688Y1001321D01*
X15540Y1000850D01*
X15404Y1000374D01*
X15279Y999896D01*
X15165Y999415D01*
X15064Y998931D01*
X14974Y998444D01*
X14896Y997956D01*
X14830Y997466D01*
X14776Y996975D01*
X14734Y996482D01*
X14704Y995988D01*
X14686Y995494D01*
X14680Y995000D01*
X14686Y994512D01*
X14703Y994024D01*
X14733Y993537D01*
X14774Y993051D01*
X14826Y992566D01*
X14891Y992082D01*
X14967Y991600D01*
X15054Y991120D01*
X15153Y990642D01*
X15263Y990166D01*
X15385Y989694D01*
X15518Y989224D01*
X15663Y988758D01*
X15818Y988295D01*
X15985Y987837D01*
X16162Y987382D01*
X16351Y986932D01*
X16550Y986486D01*
X16760Y986045D01*
X16980Y985610D01*
X17211Y985180D01*
X17452Y984756D01*
X17703Y984337D01*
X17964Y983925D01*
X18235Y983519D01*
X18515Y983119D01*
X18805Y982727D01*
X19105Y982342D01*
X19413Y981963D01*
X19731Y981593D01*
X20057Y981230D01*
X20392Y980875D01*
X20736Y980528D01*
X21088Y980190D01*
X21447Y979860D01*
X21815Y979539D01*
X22190Y979227D01*
X22572Y978924D01*
X22962Y978630D01*
X23359Y978346D01*
X23762Y978071D01*
X24172Y977806D01*
X24588Y977551D01*
X25010Y977306D01*
X25438Y977071D01*
X55320Y995000D02*
X55314Y995490D01*
X55296Y995980D01*
X55267Y996469D01*
X55225Y996958D01*
X55172Y997445D01*
X55108Y997931D01*
X55031Y998415D01*
X54943Y998897D01*
X54843Y999377D01*
X54732Y999855D01*
X54609Y1000329D01*
X54474Y1000801D01*
X54329Y1001269D01*
X54172Y1001733D01*
X54004Y1002194D01*
X53825Y1002650D01*
X53635Y1003102D01*
X53434Y1003549D01*
X53222Y1003991D01*
X53000Y1004428D01*
X52768Y1004860D01*
X52525Y1005286D01*
X52271Y1005705D01*
X52008Y1006119D01*
X51735Y1006526D01*
X51452Y1006926D01*
X51159Y1007320D01*
X50858Y1007706D01*
X50546Y1008085D01*
X50226Y1008456D01*
X49897Y1008819D01*
X49560Y1009175D01*
X49213Y1009522D01*
X48859Y1009860D01*
X48496Y1010190D01*
X48126Y1010512D01*
X55320Y995000D02*
X55314Y994503D01*
X55296Y994007D01*
X55265Y993511D01*
X55223Y993016D01*
X55169Y992522D01*
X55102Y992029D01*
X55023Y991538D01*
X54933Y991050D01*
X54830Y990564D01*
X54716Y990080D01*
X54590Y989599D01*
X54452Y989122D01*
X54302Y988648D01*
X54141Y988178D01*
X53968Y987712D01*
X53785Y987250D01*
X53589Y986793D01*
X53383Y986341D01*
X53166Y985894D01*
X52938Y985452D01*
X52699Y985017D01*
X52450Y984587D01*
X52190Y984163D01*
X51920Y983746D01*
X51639Y983336D01*
X51349Y982932D01*
X51049Y982536D01*
X50740Y982147D01*
X50420Y981766D01*
X50092Y981393D01*
X49755Y981028D01*
X49409Y980671D01*
X49054Y980323D01*
X48691Y979984D01*
X48320Y979654D01*
X47940Y979333D01*
X47553Y979021D01*
X47159Y978719D01*
X46757Y978426D01*
X46348Y978144D01*
X45933Y977871D01*
X45510Y977609D01*
X45082Y977357D01*
X35000Y974680D02*
X34522Y974686D01*
X34044Y974702D01*
X33567Y974731D01*
X33091Y974770D01*
X32616Y974820D01*
X32142Y974882D01*
X31669Y974955D01*
X31199Y975039D01*
X30730Y975134D01*
X30264Y975240D01*
X29801Y975356D01*
X29340Y975484D01*
X28883Y975623D01*
X28429Y975772D01*
X27978Y975932D01*
X27532Y976102D01*
X27089Y976283D01*
X26651Y976474D01*
X26218Y976676D01*
X25789Y976887D01*
X25366Y977109D01*
X35000Y974680D02*
X35487Y974686D01*
X35974Y974703D01*
X36461Y974733D01*
X36946Y974773D01*
X37431Y974826D01*
X37914Y974890D01*
X38396Y974966D01*
X38875Y975053D01*
X39352Y975151D01*
X39827Y975261D01*
X40299Y975383D01*
X40768Y975516D01*
X41234Y975660D01*
X41696Y975815D01*
X42154Y975981D01*
X42608Y976158D01*
X43058Y976346D01*
X43503Y976544D01*
X43943Y976753D01*
X44378Y976973D01*
X44808Y977203D01*
X45232Y977444D01*
X45650Y977694D01*
D14*
X13156Y981014D02*
X6044Y981014D01*
X13156Y981014D02*
X13156Y984175D01*
X13156Y987354D02*
X13156Y990515D01*
X13156Y987354D02*
X6044Y987354D01*
X6044Y990515D01*
X9205Y989725D02*
X9205Y987354D01*
X6044Y993676D02*
X13156Y993676D01*
X6044Y993676D02*
X6044Y995651D01*
X6046Y995737D01*
X6052Y995823D01*
X6061Y995909D01*
X6074Y995994D01*
X6091Y996079D01*
X6111Y996162D01*
X6135Y996245D01*
X6163Y996327D01*
X6194Y996407D01*
X6229Y996486D01*
X6267Y996563D01*
X6309Y996639D01*
X6353Y996713D01*
X6401Y996784D01*
X6452Y996854D01*
X6506Y996921D01*
X6563Y996986D01*
X6623Y997048D01*
X6685Y997108D01*
X6750Y997165D01*
X6817Y997219D01*
X6887Y997270D01*
X6958Y997318D01*
X7032Y997362D01*
X7108Y997404D01*
X7185Y997442D01*
X7264Y997477D01*
X7344Y997508D01*
X7426Y997536D01*
X7509Y997560D01*
X7592Y997580D01*
X7677Y997597D01*
X7762Y997610D01*
X7848Y997619D01*
X7934Y997625D01*
X8020Y997627D01*
X11180Y997627D01*
X11266Y997625D01*
X11352Y997619D01*
X11438Y997610D01*
X11523Y997597D01*
X11608Y997580D01*
X11691Y997560D01*
X11774Y997536D01*
X11856Y997508D01*
X11936Y997477D01*
X12015Y997442D01*
X12092Y997404D01*
X12168Y997362D01*
X12242Y997318D01*
X12313Y997270D01*
X12383Y997219D01*
X12450Y997165D01*
X12515Y997108D01*
X12577Y997048D01*
X12637Y996986D01*
X12694Y996921D01*
X12748Y996854D01*
X12799Y996784D01*
X12847Y996713D01*
X12891Y996639D01*
X12933Y996563D01*
X12971Y996486D01*
X13006Y996407D01*
X13037Y996327D01*
X13065Y996245D01*
X13089Y996162D01*
X13109Y996079D01*
X13126Y995994D01*
X13139Y995909D01*
X13148Y995823D01*
X13154Y995737D01*
X13156Y995651D01*
X13156Y993676D01*
X6044Y1003408D02*
X6046Y1003490D01*
X6052Y1003572D01*
X6061Y1003654D01*
X6074Y1003735D01*
X6091Y1003815D01*
X6112Y1003895D01*
X6136Y1003973D01*
X6164Y1004050D01*
X6195Y1004126D01*
X6230Y1004201D01*
X6269Y1004273D01*
X6310Y1004344D01*
X6355Y1004413D01*
X6403Y1004479D01*
X6454Y1004544D01*
X6508Y1004606D01*
X6565Y1004665D01*
X6624Y1004722D01*
X6686Y1004776D01*
X6751Y1004827D01*
X6817Y1004875D01*
X6886Y1004920D01*
X6957Y1004961D01*
X7029Y1005000D01*
X7104Y1005035D01*
X7180Y1005066D01*
X7257Y1005094D01*
X7335Y1005118D01*
X7415Y1005139D01*
X7495Y1005156D01*
X7576Y1005169D01*
X7658Y1005178D01*
X7740Y1005184D01*
X7822Y1005186D01*
X6044Y1003408D02*
X6046Y1003315D01*
X6052Y1003223D01*
X6061Y1003131D01*
X6074Y1003039D01*
X6091Y1002948D01*
X6111Y1002858D01*
X6135Y1002768D01*
X6163Y1002680D01*
X6195Y1002592D01*
X6229Y1002507D01*
X6268Y1002422D01*
X6309Y1002340D01*
X6354Y1002259D01*
X6403Y1002179D01*
X6454Y1002102D01*
X6508Y1002027D01*
X6566Y1001955D01*
X6626Y1001884D01*
X6690Y1001817D01*
X6755Y1001752D01*
X6824Y1001689D01*
X6895Y1001630D01*
X6968Y1001573D01*
X7044Y1001519D01*
X7121Y1001469D01*
X7201Y1001421D01*
X7283Y1001377D01*
X7366Y1001337D01*
X7451Y1001299D01*
X7537Y1001265D01*
X7624Y1001235D01*
X9205Y1004593D02*
X9144Y1004654D01*
X9081Y1004712D01*
X9015Y1004767D01*
X8947Y1004820D01*
X8876Y1004869D01*
X8804Y1004914D01*
X8729Y1004957D01*
X8653Y1004996D01*
X8574Y1005032D01*
X8495Y1005064D01*
X8414Y1005092D01*
X8331Y1005117D01*
X8248Y1005138D01*
X8164Y1005155D01*
X8079Y1005169D01*
X7994Y1005178D01*
X7908Y1005184D01*
X7822Y1005186D01*
X9205Y1004593D02*
X13156Y1001235D01*
X13156Y1005186D01*
D15*
X127100Y-11400D02*
X127102Y-11337D01*
X127108Y-11275D01*
X127118Y-11213D01*
X127131Y-11151D01*
X127149Y-11091D01*
X127170Y-11032D01*
X127195Y-10974D01*
X127224Y-10918D01*
X127256Y-10864D01*
X127291Y-10812D01*
X127329Y-10763D01*
X127371Y-10715D01*
X127415Y-10671D01*
X127463Y-10629D01*
X127512Y-10591D01*
X127564Y-10556D01*
X127618Y-10524D01*
X127674Y-10495D01*
X127732Y-10470D01*
X127791Y-10449D01*
X127851Y-10431D01*
X127913Y-10418D01*
X127975Y-10408D01*
X128037Y-10402D01*
X128100Y-10400D01*
X128163Y-10402D01*
X128225Y-10408D01*
X128287Y-10418D01*
X128349Y-10431D01*
X128409Y-10449D01*
X128468Y-10470D01*
X128526Y-10495D01*
X128582Y-10524D01*
X128636Y-10556D01*
X128688Y-10591D01*
X128737Y-10629D01*
X128785Y-10671D01*
X128829Y-10715D01*
X128871Y-10763D01*
X128909Y-10812D01*
X128944Y-10864D01*
X128976Y-10918D01*
X129005Y-10974D01*
X129030Y-11032D01*
X129051Y-11091D01*
X129069Y-11151D01*
X129082Y-11213D01*
X129092Y-11275D01*
X129098Y-11337D01*
X129100Y-11400D01*
X129098Y-11463D01*
X129092Y-11525D01*
X129082Y-11587D01*
X129069Y-11649D01*
X129051Y-11709D01*
X129030Y-11768D01*
X129005Y-11826D01*
X128976Y-11882D01*
X128944Y-11936D01*
X128909Y-11988D01*
X128871Y-12037D01*
X128829Y-12085D01*
X128785Y-12129D01*
X128737Y-12171D01*
X128688Y-12209D01*
X128636Y-12244D01*
X128582Y-12276D01*
X128526Y-12305D01*
X128468Y-12330D01*
X128409Y-12351D01*
X128349Y-12369D01*
X128287Y-12382D01*
X128225Y-12392D01*
X128163Y-12398D01*
X128100Y-12400D01*
X128037Y-12398D01*
X127975Y-12392D01*
X127913Y-12382D01*
X127851Y-12369D01*
X127791Y-12351D01*
X127732Y-12330D01*
X127674Y-12305D01*
X127618Y-12276D01*
X127564Y-12244D01*
X127512Y-12209D01*
X127463Y-12171D01*
X127415Y-12129D01*
X127371Y-12085D01*
X127329Y-12037D01*
X127291Y-11988D01*
X127256Y-11936D01*
X127224Y-11882D01*
X127195Y-11826D01*
X127170Y-11768D01*
X127149Y-11709D01*
X127131Y-11649D01*
X127118Y-11587D01*
X127108Y-11525D01*
X127102Y-11463D01*
X127100Y-11400D01*
D16*
X160700Y-4750D02*
X160700Y4700D01*
X160700Y-4750D02*
X19300Y-4750D01*
X19300Y4700D01*
X51000Y144750D02*
X108000Y144750D01*
D14*
X87315Y153154D02*
X87315Y158686D01*
X87315Y153154D02*
X87313Y153076D01*
X87307Y152999D01*
X87298Y152922D01*
X87285Y152846D01*
X87268Y152770D01*
X87247Y152695D01*
X87223Y152622D01*
X87195Y152549D01*
X87163Y152478D01*
X87128Y152409D01*
X87090Y152342D01*
X87049Y152276D01*
X87004Y152213D01*
X86956Y152152D01*
X86906Y152093D01*
X86852Y152037D01*
X86796Y151983D01*
X86737Y151933D01*
X86676Y151885D01*
X86613Y151840D01*
X86547Y151799D01*
X86480Y151761D01*
X86411Y151726D01*
X86340Y151694D01*
X86267Y151666D01*
X86194Y151642D01*
X86119Y151621D01*
X86043Y151604D01*
X85967Y151591D01*
X85890Y151582D01*
X85813Y151576D01*
X85735Y151574D01*
X84945Y151574D01*
X90885Y151574D02*
X93256Y151574D01*
X93334Y151576D01*
X93411Y151582D01*
X93488Y151591D01*
X93564Y151604D01*
X93640Y151621D01*
X93715Y151642D01*
X93788Y151666D01*
X93861Y151694D01*
X93932Y151726D01*
X94001Y151761D01*
X94068Y151799D01*
X94134Y151840D01*
X94197Y151885D01*
X94258Y151933D01*
X94317Y151983D01*
X94373Y152037D01*
X94427Y152093D01*
X94477Y152152D01*
X94525Y152213D01*
X94570Y152276D01*
X94611Y152342D01*
X94649Y152409D01*
X94684Y152478D01*
X94716Y152549D01*
X94744Y152622D01*
X94768Y152695D01*
X94789Y152770D01*
X94806Y152846D01*
X94819Y152922D01*
X94828Y152999D01*
X94834Y153076D01*
X94836Y153154D01*
X94836Y153945D01*
X94834Y154023D01*
X94828Y154100D01*
X94819Y154177D01*
X94806Y154253D01*
X94789Y154329D01*
X94768Y154404D01*
X94744Y154477D01*
X94716Y154550D01*
X94684Y154621D01*
X94649Y154690D01*
X94611Y154757D01*
X94570Y154823D01*
X94525Y154886D01*
X94477Y154947D01*
X94427Y155006D01*
X94373Y155062D01*
X94317Y155116D01*
X94258Y155166D01*
X94197Y155214D01*
X94134Y155259D01*
X94068Y155300D01*
X94001Y155338D01*
X93932Y155373D01*
X93861Y155405D01*
X93788Y155433D01*
X93715Y155457D01*
X93640Y155478D01*
X93564Y155495D01*
X93488Y155508D01*
X93411Y155517D01*
X93334Y155523D01*
X93256Y155525D01*
X90885Y155525D01*
X90885Y158686D01*
X94836Y158686D01*
D11*
X331000Y115000D02*
X451000Y115000D01*
X331000Y75000D02*
X331000Y5000D01*
X331000Y105000D02*
X331000Y115000D01*
X331000Y5000D02*
X451000Y5000D01*
X451000Y75000D01*
X451000Y105000D02*
X451000Y115000D01*
D14*
X314671Y31736D02*
X314671Y26204D01*
X314669Y26126D01*
X314663Y26049D01*
X314654Y25972D01*
X314641Y25896D01*
X314624Y25820D01*
X314603Y25745D01*
X314579Y25672D01*
X314551Y25599D01*
X314519Y25528D01*
X314484Y25459D01*
X314446Y25392D01*
X314405Y25326D01*
X314360Y25263D01*
X314312Y25202D01*
X314262Y25143D01*
X314208Y25087D01*
X314152Y25033D01*
X314093Y24983D01*
X314032Y24935D01*
X313969Y24890D01*
X313903Y24849D01*
X313836Y24811D01*
X313767Y24776D01*
X313696Y24744D01*
X313623Y24716D01*
X313550Y24692D01*
X313475Y24671D01*
X313399Y24654D01*
X313323Y24641D01*
X313246Y24632D01*
X313169Y24626D01*
X313091Y24624D01*
X312300Y24624D01*
X318241Y30156D02*
X320216Y31736D01*
X320216Y24624D01*
X318241Y24624D02*
X322192Y24624D01*
D17*
X480606Y537292D03*
X480606Y537800D03*
X480606Y538308D03*
D18*
X514642Y538308D03*
D17*
X537502Y538308D03*
D19*
X555790Y538308D03*
D18*
X574586Y538308D03*
X593890Y538308D03*
D19*
X608622Y538308D03*
D20*
X620306Y538308D03*
X631482Y538308D03*
D17*
X480606Y538816D03*
D18*
X514642Y538816D03*
D17*
X537502Y538816D03*
D19*
X555790Y538816D03*
D18*
X574586Y538816D03*
X593890Y538816D03*
D19*
X608622Y538816D03*
D20*
X620306Y538816D03*
X631482Y538816D03*
D19*
X471462Y539324D03*
X489750Y539324D03*
D18*
X514642Y539324D03*
D17*
X537502Y539324D03*
D19*
X555790Y539324D03*
D18*
X574586Y539324D03*
X593890Y539324D03*
D19*
X608622Y539324D03*
D20*
X620306Y539324D03*
X631482Y539324D03*
D19*
X471462Y539832D03*
X489750Y539832D03*
D18*
X514642Y539832D03*
D17*
X537502Y539832D03*
D19*
X555790Y539832D03*
D18*
X574586Y539832D03*
X593890Y539832D03*
D19*
X608622Y539832D03*
D20*
X620306Y539832D03*
X631482Y539832D03*
D19*
X471462Y540340D03*
X489750Y540340D03*
D18*
X514642Y540340D03*
D17*
X537502Y540340D03*
D19*
X555790Y540340D03*
D18*
X574586Y540340D03*
X593890Y540340D03*
D19*
X608622Y540340D03*
D20*
X620306Y540340D03*
X631482Y540340D03*
D19*
X471462Y540848D03*
X489750Y540848D03*
D18*
X514642Y540848D03*
D17*
X537502Y540848D03*
D19*
X555790Y540848D03*
D18*
X574586Y540848D03*
X593890Y540848D03*
D19*
X608622Y540848D03*
D20*
X620306Y540848D03*
X631482Y540848D03*
D21*
X468414Y541356D03*
D22*
X475526Y541356D03*
X485686Y541356D03*
D21*
X492798Y541356D03*
D23*
X514642Y541356D03*
D17*
X537502Y541356D03*
D19*
X555790Y541356D03*
D24*
X573062Y541356D03*
X592366Y541356D03*
D19*
X608622Y541356D03*
D20*
X620306Y541356D03*
X631482Y541356D03*
D21*
X468414Y541864D03*
D22*
X475526Y541864D03*
X485686Y541864D03*
D21*
X492798Y541864D03*
D23*
X514642Y541864D03*
D17*
X537502Y541864D03*
D19*
X555790Y541864D03*
D24*
X573062Y541864D03*
X592366Y541864D03*
D19*
X608622Y541864D03*
D20*
X620306Y541864D03*
X631482Y541864D03*
D21*
X468414Y542372D03*
D22*
X475526Y542372D03*
X485686Y542372D03*
D21*
X492798Y542372D03*
D19*
X508038Y542372D03*
X521246Y542372D03*
X530390Y542372D03*
X555790Y542372D03*
D20*
X567474Y542372D03*
X586778Y542372D03*
D19*
X608622Y542372D03*
D20*
X620306Y542372D03*
X631482Y542372D03*
D21*
X468414Y542880D03*
D22*
X475526Y542880D03*
X485686Y542880D03*
D21*
X492798Y542880D03*
D19*
X508038Y542880D03*
X521246Y542880D03*
X530390Y542880D03*
X555790Y542880D03*
D20*
X567474Y542880D03*
X586778Y542880D03*
D19*
X608622Y542880D03*
D20*
X620306Y542880D03*
X631482Y542880D03*
D21*
X466382Y543388D03*
D19*
X475526Y543388D03*
X485686Y543388D03*
D21*
X494830Y543388D03*
D19*
X508038Y543388D03*
X521246Y543388D03*
X530390Y543388D03*
X555790Y543388D03*
D20*
X567474Y543388D03*
X586778Y543388D03*
D19*
X608622Y543388D03*
D20*
X620306Y543388D03*
X631482Y543388D03*
D21*
X466382Y543896D03*
D19*
X475526Y543896D03*
X485686Y543896D03*
D21*
X494830Y543896D03*
D19*
X508038Y543896D03*
X521246Y543896D03*
X530390Y543896D03*
X555790Y543896D03*
D20*
X567474Y543896D03*
X586778Y543896D03*
D19*
X608622Y543896D03*
D20*
X620306Y543896D03*
X631482Y543896D03*
D21*
X466382Y544404D03*
D19*
X475526Y544404D03*
X485686Y544404D03*
D21*
X494830Y544404D03*
D19*
X508038Y544404D03*
X521246Y544404D03*
X530390Y544404D03*
X555790Y544404D03*
D24*
X573062Y544404D03*
X592366Y544404D03*
D19*
X608622Y544404D03*
D20*
X620306Y544404D03*
X631482Y544404D03*
D21*
X466382Y544912D03*
D19*
X475526Y544912D03*
X485686Y544912D03*
D21*
X494830Y544912D03*
D19*
X508038Y544912D03*
X521246Y544912D03*
X530390Y544912D03*
X555790Y544912D03*
D24*
X573062Y544912D03*
X592366Y544912D03*
D19*
X608622Y544912D03*
D20*
X620306Y544912D03*
X631482Y544912D03*
D21*
X466382Y545420D03*
D19*
X475526Y545420D03*
X485686Y545420D03*
D21*
X494830Y545420D03*
D19*
X508038Y545420D03*
X521246Y545420D03*
X530390Y545420D03*
X555790Y545420D03*
D24*
X573062Y545420D03*
X592366Y545420D03*
D19*
X608622Y545420D03*
D20*
X620306Y545420D03*
X631482Y545420D03*
D21*
X466382Y545928D03*
D19*
X475526Y545928D03*
X485686Y545928D03*
D21*
X494830Y545928D03*
D19*
X508038Y545928D03*
X521246Y545928D03*
X530390Y545928D03*
X555790Y545928D03*
D24*
X573062Y545928D03*
X592366Y545928D03*
D19*
X608622Y545928D03*
D20*
X620306Y545928D03*
X631482Y545928D03*
D21*
X466382Y546436D03*
D19*
X475526Y546436D03*
X485686Y546436D03*
D21*
X494830Y546436D03*
D19*
X508038Y546436D03*
X521246Y546436D03*
D25*
X532930Y546436D03*
D19*
X555790Y546436D03*
D20*
X567474Y546436D03*
X578650Y546436D03*
X586778Y546436D03*
X597954Y546436D03*
D19*
X608622Y546436D03*
D20*
X620306Y546436D03*
X631482Y546436D03*
D21*
X466382Y546944D03*
D19*
X475526Y546944D03*
X485686Y546944D03*
D21*
X494830Y546944D03*
D19*
X508038Y546944D03*
X521246Y546944D03*
D25*
X532930Y546944D03*
D19*
X555790Y546944D03*
D20*
X567474Y546944D03*
X578650Y546944D03*
X586778Y546944D03*
X597954Y546944D03*
D19*
X608622Y546944D03*
D20*
X620306Y546944D03*
X631482Y546944D03*
D21*
X466382Y547452D03*
D22*
X475526Y547452D03*
X485686Y547452D03*
D21*
X494830Y547452D03*
D19*
X521246Y547452D03*
D26*
X533946Y547452D03*
D19*
X555790Y547452D03*
D20*
X567474Y547452D03*
X578650Y547452D03*
X586778Y547452D03*
X597954Y547452D03*
D19*
X608622Y547452D03*
D26*
X621322Y547452D03*
D20*
X631482Y547452D03*
D21*
X466382Y547960D03*
D22*
X475526Y547960D03*
X485686Y547960D03*
D21*
X494830Y547960D03*
D19*
X521246Y547960D03*
D26*
X533946Y547960D03*
D19*
X555790Y547960D03*
D20*
X567474Y547960D03*
X578650Y547960D03*
X586778Y547960D03*
X597954Y547960D03*
D19*
X608622Y547960D03*
D26*
X621322Y547960D03*
D20*
X631482Y547960D03*
D21*
X466382Y548468D03*
D22*
X475526Y548468D03*
X485686Y548468D03*
D21*
X494830Y548468D03*
D19*
X521246Y548468D03*
D26*
X533946Y548468D03*
D19*
X555790Y548468D03*
D24*
X573062Y548468D03*
X592366Y548468D03*
D19*
X608622Y548468D03*
D26*
X621322Y548468D03*
D20*
X631482Y548468D03*
D21*
X466382Y548976D03*
D22*
X475526Y548976D03*
X485686Y548976D03*
D21*
X494830Y548976D03*
D19*
X521246Y548976D03*
D26*
X533946Y548976D03*
D19*
X555790Y548976D03*
D24*
X573062Y548976D03*
X592366Y548976D03*
D19*
X608622Y548976D03*
D26*
X621322Y548976D03*
D20*
X631482Y548976D03*
D19*
X467398Y549484D03*
X493814Y549484D03*
D25*
X518706Y549484D03*
D18*
X536994Y549484D03*
D19*
X555790Y549484D03*
D27*
X573062Y549484D03*
X592366Y549484D03*
D19*
X608622Y549484D03*
D24*
X625894Y549484D03*
D19*
X467398Y549992D03*
X493814Y549992D03*
D25*
X518706Y549992D03*
D18*
X536994Y549992D03*
D19*
X555790Y549992D03*
D27*
X573062Y549992D03*
X592366Y549992D03*
D19*
X608622Y549992D03*
D24*
X625894Y549992D03*
D19*
X467398Y550500D03*
X493814Y550500D03*
D26*
X517690Y550500D03*
X540042Y550500D03*
D19*
X555790Y550500D03*
D27*
X573062Y550500D03*
X592366Y550500D03*
D19*
X608622Y550500D03*
D28*
X624878Y550500D03*
D19*
X467398Y551008D03*
X493814Y551008D03*
D26*
X517690Y551008D03*
X540042Y551008D03*
D19*
X555790Y551008D03*
D27*
X573062Y551008D03*
X592366Y551008D03*
D19*
X608622Y551008D03*
D28*
X624878Y551008D03*
D29*
X480606Y551516D03*
D26*
X517690Y551516D03*
X540042Y551516D03*
D19*
X555790Y551516D03*
D27*
X573062Y551516D03*
X592366Y551516D03*
D19*
X608622Y551516D03*
D20*
X620306Y551516D03*
X628434Y551516D03*
D29*
X480606Y552024D03*
D26*
X517690Y552024D03*
X540042Y552024D03*
D19*
X555790Y552024D03*
D27*
X573062Y552024D03*
X592366Y552024D03*
D19*
X608622Y552024D03*
D20*
X620306Y552024D03*
X628434Y552024D03*
D29*
X480606Y552532D03*
D19*
X508038Y552532D03*
D25*
X518706Y552532D03*
D19*
X530390Y552532D03*
D25*
X541058Y552532D03*
D27*
X555790Y552532D03*
X608622Y552532D03*
D20*
X620306Y552532D03*
X628434Y552532D03*
D29*
X480606Y553040D03*
D19*
X508038Y553040D03*
D25*
X518706Y553040D03*
D19*
X530390Y553040D03*
D25*
X541058Y553040D03*
D27*
X555790Y553040D03*
X608622Y553040D03*
D20*
X620306Y553040D03*
X628434Y553040D03*
D29*
X480606Y553548D03*
D19*
X508038Y553548D03*
X521246Y553548D03*
X530390Y553548D03*
X543598Y553548D03*
D27*
X555790Y553548D03*
X608622Y553548D03*
D20*
X620306Y553548D03*
D29*
X480606Y554056D03*
D19*
X508038Y554056D03*
X521246Y554056D03*
X530390Y554056D03*
X543598Y554056D03*
D27*
X555790Y554056D03*
X608622Y554056D03*
D20*
X620306Y554056D03*
D29*
X480606Y554564D03*
D19*
X508038Y554564D03*
X521246Y554564D03*
X530390Y554564D03*
X543598Y554564D03*
D27*
X555790Y554564D03*
X608622Y554564D03*
D20*
X620306Y554564D03*
D29*
X480606Y555072D03*
D19*
X508038Y555072D03*
X521246Y555072D03*
X530390Y555072D03*
X543598Y555072D03*
D27*
X555790Y555072D03*
X608622Y555072D03*
D20*
X620306Y555072D03*
D30*
X480606Y555580D03*
D19*
X508038Y555580D03*
X521246Y555580D03*
X530390Y555580D03*
X543598Y555580D03*
D27*
X555790Y555580D03*
X608622Y555580D03*
D20*
X620306Y555580D03*
D30*
X480606Y556088D03*
D19*
X508038Y556088D03*
X521246Y556088D03*
X530390Y556088D03*
X543598Y556088D03*
D27*
X555790Y556088D03*
X608622Y556088D03*
D20*
X620306Y556088D03*
D30*
X480606Y556596D03*
D19*
X508038Y556596D03*
X521246Y556596D03*
X530390Y556596D03*
X543598Y556596D03*
X555790Y556596D03*
X608622Y556596D03*
D20*
X620306Y556596D03*
D30*
X480606Y557104D03*
D19*
X508038Y557104D03*
X521246Y557104D03*
X530390Y557104D03*
X543598Y557104D03*
X555790Y557104D03*
X608622Y557104D03*
D20*
X620306Y557104D03*
D30*
X480606Y557612D03*
D23*
X514642Y557612D03*
X536994Y557612D03*
D19*
X555790Y557612D03*
X608622Y557612D03*
D20*
X620306Y557612D03*
D30*
X480606Y558120D03*
D23*
X514642Y558120D03*
X536994Y558120D03*
D19*
X555790Y558120D03*
X608622Y558120D03*
D20*
X620306Y558120D03*
D30*
X480606Y558628D03*
D18*
X514642Y558628D03*
X536994Y558628D03*
D19*
X555790Y558628D03*
X608622Y558628D03*
D20*
X620306Y558628D03*
D30*
X480606Y559136D03*
D18*
X514642Y559136D03*
X536994Y559136D03*
D19*
X555790Y559136D03*
X608622Y559136D03*
D20*
X620306Y559136D03*
D30*
X480606Y559644D03*
D18*
X514642Y559644D03*
X536994Y559644D03*
D19*
X555790Y559644D03*
X608622Y559644D03*
D20*
X620306Y559644D03*
D30*
X480606Y560152D03*
D18*
X514642Y560152D03*
X536994Y560152D03*
D19*
X555790Y560152D03*
X608622Y560152D03*
D20*
X620306Y560152D03*
D30*
X480606Y560660D03*
D18*
X514642Y560660D03*
X536994Y560660D03*
D20*
X620306Y560660D03*
D30*
X480606Y561168D03*
D18*
X514642Y561168D03*
X536994Y561168D03*
D20*
X620306Y561168D03*
D19*
X469430Y561676D03*
X491782Y561676D03*
D20*
X620306Y561676D03*
D19*
X469430Y562184D03*
X491782Y562184D03*
D20*
X620306Y562184D03*
D19*
X469430Y562692D03*
X491782Y562692D03*
X469430Y563200D03*
X491782Y563200D03*
D31*
X197127Y534948D03*
X197127Y535202D03*
X197127Y535456D03*
X197127Y535710D03*
X197127Y535964D03*
X197127Y536218D03*
X197127Y536472D03*
X197127Y536726D03*
D32*
X80541Y536980D03*
X313713Y536980D03*
X80541Y537234D03*
X313713Y537234D03*
X80541Y537488D03*
X313713Y537488D03*
X80541Y537742D03*
X313713Y537742D03*
X80541Y537996D03*
X313713Y537996D03*
X80541Y538250D03*
X313713Y538250D03*
X80541Y538504D03*
X313713Y538504D03*
X80541Y538758D03*
X313713Y538758D03*
D33*
X77493Y539012D03*
D34*
X251483Y539012D03*
D33*
X316761Y539012D03*
X77493Y539266D03*
D34*
X251483Y539266D03*
D33*
X316761Y539266D03*
X77493Y539520D03*
D34*
X251483Y539520D03*
D33*
X316761Y539520D03*
X77493Y539774D03*
D34*
X251483Y539774D03*
D33*
X316761Y539774D03*
X77493Y540028D03*
D34*
X251483Y540028D03*
D33*
X316761Y540028D03*
X77493Y540282D03*
D34*
X251483Y540282D03*
D33*
X316761Y540282D03*
X77493Y540536D03*
D34*
X251483Y540536D03*
D33*
X316761Y540536D03*
D35*
X75588Y540790D03*
D36*
X253515Y540790D03*
D35*
X318666Y540790D03*
X75588Y541044D03*
D36*
X253515Y541044D03*
D35*
X318666Y541044D03*
X75588Y541298D03*
D36*
X253515Y541298D03*
D35*
X318666Y541298D03*
X75588Y541552D03*
D36*
X253515Y541552D03*
D35*
X318666Y541552D03*
X75588Y541806D03*
D36*
X253515Y541806D03*
D35*
X318666Y541806D03*
X75588Y542060D03*
D36*
X253515Y542060D03*
D35*
X318666Y542060D03*
X75588Y542314D03*
D36*
X253515Y542314D03*
D35*
X318666Y542314D03*
X75588Y542568D03*
D36*
X253515Y542568D03*
D35*
X318666Y542568D03*
D33*
X73683Y542822D03*
D37*
X255420Y542822D03*
D33*
X320571Y542822D03*
X73683Y543076D03*
D37*
X255420Y543076D03*
D33*
X320571Y543076D03*
X73683Y543330D03*
D37*
X255420Y543330D03*
D33*
X320571Y543330D03*
X73683Y543584D03*
D37*
X255420Y543584D03*
D33*
X320571Y543584D03*
X73683Y543838D03*
D37*
X255420Y543838D03*
D33*
X320571Y543838D03*
X73683Y544092D03*
D37*
X255420Y544092D03*
D33*
X320571Y544092D03*
X73683Y544346D03*
D37*
X255420Y544346D03*
D33*
X320571Y544346D03*
X73683Y544600D03*
D37*
X255420Y544600D03*
D33*
X320571Y544600D03*
X73683Y544854D03*
D38*
X109116Y544854D03*
X119022Y544854D03*
D39*
X133881Y544854D03*
D38*
X146708Y544854D03*
X158646Y544854D03*
D40*
X176426Y544854D03*
D41*
X201064Y544854D03*
D42*
X223797Y544854D03*
D43*
X238656Y544854D03*
D44*
X252499Y544854D03*
D43*
X272184Y544854D03*
D45*
X302918Y544854D03*
D33*
X320571Y544854D03*
X73683Y545108D03*
D38*
X109116Y545108D03*
X119022Y545108D03*
D39*
X133881Y545108D03*
D38*
X146708Y545108D03*
X158646Y545108D03*
D40*
X176426Y545108D03*
D41*
X201064Y545108D03*
D42*
X223797Y545108D03*
D43*
X238656Y545108D03*
D44*
X252499Y545108D03*
D43*
X272184Y545108D03*
D45*
X302918Y545108D03*
D33*
X320571Y545108D03*
X73683Y545362D03*
D38*
X109116Y545362D03*
X119022Y545362D03*
D39*
X133881Y545362D03*
D38*
X146708Y545362D03*
X158646Y545362D03*
D40*
X176426Y545362D03*
D41*
X201064Y545362D03*
D42*
X223797Y545362D03*
D43*
X238656Y545362D03*
D44*
X252499Y545362D03*
D43*
X272184Y545362D03*
D45*
X302918Y545362D03*
D33*
X320571Y545362D03*
X73683Y545616D03*
D38*
X109116Y545616D03*
X119022Y545616D03*
D39*
X133881Y545616D03*
D38*
X146708Y545616D03*
X158646Y545616D03*
D40*
X176426Y545616D03*
D41*
X201064Y545616D03*
D42*
X223797Y545616D03*
D43*
X238656Y545616D03*
D44*
X252499Y545616D03*
D43*
X272184Y545616D03*
D45*
X302918Y545616D03*
D33*
X320571Y545616D03*
X73683Y545870D03*
D38*
X109116Y545870D03*
X119022Y545870D03*
D39*
X133881Y545870D03*
D38*
X146708Y545870D03*
X158646Y545870D03*
D40*
X176426Y545870D03*
D41*
X201064Y545870D03*
D42*
X223797Y545870D03*
D43*
X238656Y545870D03*
D44*
X252499Y545870D03*
D43*
X272184Y545870D03*
D45*
X302918Y545870D03*
D33*
X320571Y545870D03*
X73683Y546124D03*
D38*
X109116Y546124D03*
X119022Y546124D03*
D39*
X133881Y546124D03*
D38*
X146708Y546124D03*
X158646Y546124D03*
D40*
X176426Y546124D03*
D41*
X201064Y546124D03*
D42*
X223797Y546124D03*
D43*
X238656Y546124D03*
D44*
X252499Y546124D03*
D43*
X272184Y546124D03*
D45*
X302918Y546124D03*
D33*
X320571Y546124D03*
X73683Y546378D03*
D38*
X109116Y546378D03*
X119022Y546378D03*
D39*
X133881Y546378D03*
D38*
X146708Y546378D03*
X158646Y546378D03*
D40*
X176426Y546378D03*
D41*
X201064Y546378D03*
D42*
X223797Y546378D03*
D43*
X238656Y546378D03*
D44*
X252499Y546378D03*
D43*
X272184Y546378D03*
D45*
X302918Y546378D03*
D33*
X320571Y546378D03*
X73683Y546632D03*
D38*
X109116Y546632D03*
X119022Y546632D03*
D39*
X133881Y546632D03*
D38*
X146708Y546632D03*
X158646Y546632D03*
D40*
X176426Y546632D03*
D41*
X201064Y546632D03*
D42*
X223797Y546632D03*
D43*
X238656Y546632D03*
D44*
X252499Y546632D03*
D43*
X272184Y546632D03*
D45*
X302918Y546632D03*
D33*
X320571Y546632D03*
X71651Y546886D03*
D38*
X109116Y546886D03*
X119022Y546886D03*
X128928Y546886D03*
X146708Y546886D03*
X158646Y546886D03*
X172362Y546886D03*
D42*
X180363Y546886D03*
D46*
X202080Y546886D03*
D47*
X218844Y546886D03*
D42*
X231671Y546886D03*
D33*
X239545Y546886D03*
D48*
X251483Y546886D03*
D38*
X265326Y546886D03*
D35*
X273200Y546886D03*
D49*
X298854Y546886D03*
D33*
X322603Y546886D03*
X71651Y547140D03*
D38*
X109116Y547140D03*
X119022Y547140D03*
X128928Y547140D03*
X146708Y547140D03*
X158646Y547140D03*
X172362Y547140D03*
D42*
X180363Y547140D03*
D46*
X202080Y547140D03*
D47*
X218844Y547140D03*
D42*
X231671Y547140D03*
D33*
X239545Y547140D03*
D48*
X251483Y547140D03*
D38*
X265326Y547140D03*
D35*
X273200Y547140D03*
D49*
X298854Y547140D03*
D33*
X322603Y547140D03*
X71651Y547394D03*
D38*
X109116Y547394D03*
X119022Y547394D03*
X128928Y547394D03*
X146708Y547394D03*
X158646Y547394D03*
X172362Y547394D03*
D42*
X180363Y547394D03*
D46*
X202080Y547394D03*
D47*
X218844Y547394D03*
D42*
X231671Y547394D03*
D33*
X239545Y547394D03*
D48*
X251483Y547394D03*
D38*
X265326Y547394D03*
D35*
X273200Y547394D03*
D49*
X298854Y547394D03*
D33*
X322603Y547394D03*
X71651Y547648D03*
D38*
X109116Y547648D03*
X119022Y547648D03*
X128928Y547648D03*
X146708Y547648D03*
X158646Y547648D03*
X172362Y547648D03*
D42*
X180363Y547648D03*
D46*
X202080Y547648D03*
D47*
X218844Y547648D03*
D42*
X231671Y547648D03*
D33*
X239545Y547648D03*
D48*
X251483Y547648D03*
D38*
X265326Y547648D03*
D35*
X273200Y547648D03*
D49*
X298854Y547648D03*
D33*
X322603Y547648D03*
X71651Y547902D03*
D38*
X109116Y547902D03*
X119022Y547902D03*
X128928Y547902D03*
X146708Y547902D03*
X158646Y547902D03*
X172362Y547902D03*
D42*
X180363Y547902D03*
D46*
X202080Y547902D03*
D47*
X218844Y547902D03*
D42*
X231671Y547902D03*
D33*
X239545Y547902D03*
D48*
X251483Y547902D03*
D38*
X265326Y547902D03*
D35*
X273200Y547902D03*
D49*
X298854Y547902D03*
D33*
X322603Y547902D03*
X71651Y548156D03*
D38*
X109116Y548156D03*
X119022Y548156D03*
X128928Y548156D03*
X146708Y548156D03*
X158646Y548156D03*
X172362Y548156D03*
D42*
X180363Y548156D03*
D46*
X202080Y548156D03*
D47*
X218844Y548156D03*
D42*
X231671Y548156D03*
D33*
X239545Y548156D03*
D48*
X251483Y548156D03*
D38*
X265326Y548156D03*
D35*
X273200Y548156D03*
D49*
X298854Y548156D03*
D33*
X322603Y548156D03*
X71651Y548410D03*
D38*
X109116Y548410D03*
X119022Y548410D03*
X128928Y548410D03*
X146708Y548410D03*
X158646Y548410D03*
X172362Y548410D03*
D42*
X180363Y548410D03*
D46*
X202080Y548410D03*
D47*
X218844Y548410D03*
D42*
X231671Y548410D03*
D33*
X239545Y548410D03*
D48*
X251483Y548410D03*
D38*
X265326Y548410D03*
D35*
X273200Y548410D03*
D49*
X298854Y548410D03*
D33*
X322603Y548410D03*
X71651Y548664D03*
D38*
X109116Y548664D03*
X119022Y548664D03*
D48*
X132865Y548664D03*
D50*
X147724Y548664D03*
D38*
X158646Y548664D03*
X172362Y548664D03*
X182268Y548664D03*
D46*
X202080Y548664D03*
D47*
X218844Y548664D03*
D42*
X231671Y548664D03*
D33*
X239545Y548664D03*
D48*
X251483Y548664D03*
D38*
X265326Y548664D03*
D35*
X273200Y548664D03*
D49*
X298854Y548664D03*
D33*
X322603Y548664D03*
X71651Y548918D03*
D38*
X109116Y548918D03*
X119022Y548918D03*
D48*
X132865Y548918D03*
D50*
X147724Y548918D03*
D38*
X158646Y548918D03*
X172362Y548918D03*
X182268Y548918D03*
D46*
X202080Y548918D03*
D47*
X218844Y548918D03*
D42*
X231671Y548918D03*
D33*
X239545Y548918D03*
D48*
X251483Y548918D03*
D38*
X265326Y548918D03*
D35*
X273200Y548918D03*
D49*
X298854Y548918D03*
D33*
X322603Y548918D03*
X71651Y549172D03*
D38*
X109116Y549172D03*
X119022Y549172D03*
D48*
X132865Y549172D03*
D50*
X147724Y549172D03*
D38*
X158646Y549172D03*
X172362Y549172D03*
X182268Y549172D03*
D46*
X202080Y549172D03*
D47*
X218844Y549172D03*
D42*
X231671Y549172D03*
D33*
X239545Y549172D03*
D48*
X251483Y549172D03*
D38*
X265326Y549172D03*
D35*
X273200Y549172D03*
D49*
X298854Y549172D03*
D33*
X322603Y549172D03*
X71651Y549426D03*
D38*
X109116Y549426D03*
X119022Y549426D03*
D48*
X132865Y549426D03*
D50*
X147724Y549426D03*
D38*
X158646Y549426D03*
X172362Y549426D03*
X182268Y549426D03*
D46*
X202080Y549426D03*
D47*
X218844Y549426D03*
D42*
X231671Y549426D03*
D33*
X239545Y549426D03*
D48*
X251483Y549426D03*
D38*
X265326Y549426D03*
D35*
X273200Y549426D03*
D49*
X298854Y549426D03*
D33*
X322603Y549426D03*
X71651Y549680D03*
D38*
X109116Y549680D03*
X119022Y549680D03*
D48*
X132865Y549680D03*
D50*
X147724Y549680D03*
D38*
X158646Y549680D03*
X172362Y549680D03*
X182268Y549680D03*
D46*
X202080Y549680D03*
D47*
X218844Y549680D03*
D42*
X231671Y549680D03*
D33*
X239545Y549680D03*
D48*
X251483Y549680D03*
D38*
X265326Y549680D03*
D35*
X273200Y549680D03*
D49*
X298854Y549680D03*
D33*
X322603Y549680D03*
X71651Y549934D03*
D38*
X109116Y549934D03*
X119022Y549934D03*
D48*
X132865Y549934D03*
D50*
X147724Y549934D03*
D38*
X158646Y549934D03*
X172362Y549934D03*
X182268Y549934D03*
D46*
X202080Y549934D03*
D47*
X218844Y549934D03*
D42*
X231671Y549934D03*
D33*
X239545Y549934D03*
D48*
X251483Y549934D03*
D38*
X265326Y549934D03*
D35*
X273200Y549934D03*
D49*
X298854Y549934D03*
D33*
X322603Y549934D03*
X71651Y550188D03*
D38*
X109116Y550188D03*
X119022Y550188D03*
D48*
X132865Y550188D03*
D50*
X147724Y550188D03*
D38*
X158646Y550188D03*
X172362Y550188D03*
X182268Y550188D03*
D46*
X202080Y550188D03*
D47*
X218844Y550188D03*
D42*
X231671Y550188D03*
D33*
X239545Y550188D03*
D48*
X251483Y550188D03*
D38*
X265326Y550188D03*
D35*
X273200Y550188D03*
D49*
X298854Y550188D03*
D33*
X322603Y550188D03*
X71651Y550442D03*
D38*
X109116Y550442D03*
X119022Y550442D03*
D48*
X132865Y550442D03*
D50*
X147724Y550442D03*
D38*
X158646Y550442D03*
X172362Y550442D03*
X182268Y550442D03*
D46*
X202080Y550442D03*
D47*
X218844Y550442D03*
D42*
X231671Y550442D03*
D33*
X239545Y550442D03*
D48*
X251483Y550442D03*
D38*
X265326Y550442D03*
D35*
X273200Y550442D03*
D49*
X298854Y550442D03*
D33*
X322603Y550442D03*
X71651Y550696D03*
D48*
X115085Y550696D03*
D38*
X130960Y550696D03*
X138834Y550696D03*
X148740Y550696D03*
D50*
X161440Y550696D03*
D38*
X174394Y550696D03*
X182268Y550696D03*
D47*
X203096Y550696D03*
D51*
X221765Y550696D03*
D43*
X238656Y550696D03*
D44*
X260373Y550696D03*
D43*
X274216Y550696D03*
D52*
X300886Y550696D03*
D33*
X322603Y550696D03*
X71651Y550950D03*
D48*
X115085Y550950D03*
D38*
X130960Y550950D03*
X138834Y550950D03*
X148740Y550950D03*
D50*
X161440Y550950D03*
D38*
X174394Y550950D03*
X182268Y550950D03*
D47*
X203096Y550950D03*
D51*
X221765Y550950D03*
D43*
X238656Y550950D03*
D44*
X260373Y550950D03*
D43*
X274216Y550950D03*
D52*
X300886Y550950D03*
D33*
X322603Y550950D03*
X71651Y551204D03*
D48*
X115085Y551204D03*
D38*
X130960Y551204D03*
X138834Y551204D03*
X148740Y551204D03*
D50*
X161440Y551204D03*
D38*
X174394Y551204D03*
X182268Y551204D03*
D47*
X203096Y551204D03*
D51*
X221765Y551204D03*
D43*
X238656Y551204D03*
D44*
X260373Y551204D03*
D43*
X274216Y551204D03*
D52*
X300886Y551204D03*
D33*
X322603Y551204D03*
X71651Y551458D03*
D48*
X115085Y551458D03*
D38*
X130960Y551458D03*
X138834Y551458D03*
X148740Y551458D03*
D50*
X161440Y551458D03*
D38*
X174394Y551458D03*
X182268Y551458D03*
D47*
X203096Y551458D03*
D51*
X221765Y551458D03*
D43*
X238656Y551458D03*
D44*
X260373Y551458D03*
D43*
X274216Y551458D03*
D52*
X300886Y551458D03*
D33*
X322603Y551458D03*
X71651Y551712D03*
D48*
X115085Y551712D03*
D38*
X130960Y551712D03*
X138834Y551712D03*
X148740Y551712D03*
D50*
X161440Y551712D03*
D38*
X174394Y551712D03*
X182268Y551712D03*
D47*
X203096Y551712D03*
D51*
X221765Y551712D03*
D43*
X238656Y551712D03*
D44*
X260373Y551712D03*
D43*
X274216Y551712D03*
D52*
X300886Y551712D03*
D33*
X322603Y551712D03*
X71651Y551966D03*
D48*
X115085Y551966D03*
D38*
X130960Y551966D03*
X138834Y551966D03*
X148740Y551966D03*
D50*
X161440Y551966D03*
D38*
X174394Y551966D03*
X182268Y551966D03*
D47*
X203096Y551966D03*
D51*
X221765Y551966D03*
D43*
X238656Y551966D03*
D44*
X260373Y551966D03*
D43*
X274216Y551966D03*
D52*
X300886Y551966D03*
D33*
X322603Y551966D03*
X71651Y552220D03*
D48*
X115085Y552220D03*
D38*
X130960Y552220D03*
X138834Y552220D03*
X148740Y552220D03*
D50*
X161440Y552220D03*
D38*
X174394Y552220D03*
X182268Y552220D03*
D47*
X203096Y552220D03*
D51*
X221765Y552220D03*
D43*
X238656Y552220D03*
D44*
X260373Y552220D03*
D43*
X274216Y552220D03*
D52*
X300886Y552220D03*
D33*
X322603Y552220D03*
X71651Y552474D03*
D48*
X115085Y552474D03*
D38*
X130960Y552474D03*
X138834Y552474D03*
X148740Y552474D03*
D50*
X161440Y552474D03*
D38*
X174394Y552474D03*
X182268Y552474D03*
D47*
X203096Y552474D03*
D51*
X221765Y552474D03*
D43*
X238656Y552474D03*
D44*
X260373Y552474D03*
D43*
X274216Y552474D03*
D52*
X300886Y552474D03*
D33*
X322603Y552474D03*
X71651Y552728D03*
D38*
X111148Y552728D03*
X121054Y552728D03*
D40*
X134770Y552728D03*
D38*
X148740Y552728D03*
D47*
X163472Y552728D03*
D40*
X178458Y552728D03*
D47*
X203096Y552728D03*
D50*
X222908Y552728D03*
X236624Y552728D03*
D38*
X247546Y552728D03*
D40*
X259484Y552728D03*
X275232Y552728D03*
D53*
X302791Y552728D03*
D33*
X322603Y552728D03*
X71651Y552982D03*
D38*
X111148Y552982D03*
X121054Y552982D03*
D40*
X134770Y552982D03*
D38*
X148740Y552982D03*
D47*
X163472Y552982D03*
D40*
X178458Y552982D03*
D47*
X203096Y552982D03*
D50*
X222908Y552982D03*
X236624Y552982D03*
D38*
X247546Y552982D03*
D40*
X259484Y552982D03*
X275232Y552982D03*
D53*
X302791Y552982D03*
D33*
X322603Y552982D03*
X71651Y553236D03*
D38*
X111148Y553236D03*
X121054Y553236D03*
D40*
X134770Y553236D03*
D38*
X148740Y553236D03*
D47*
X163472Y553236D03*
D40*
X178458Y553236D03*
D47*
X203096Y553236D03*
D50*
X222908Y553236D03*
X236624Y553236D03*
D38*
X247546Y553236D03*
D40*
X259484Y553236D03*
X275232Y553236D03*
D53*
X302791Y553236D03*
D33*
X322603Y553236D03*
X71651Y553490D03*
D38*
X111148Y553490D03*
X121054Y553490D03*
D40*
X134770Y553490D03*
D38*
X148740Y553490D03*
D47*
X163472Y553490D03*
D40*
X178458Y553490D03*
D47*
X203096Y553490D03*
D50*
X222908Y553490D03*
X236624Y553490D03*
D38*
X247546Y553490D03*
D40*
X259484Y553490D03*
X275232Y553490D03*
D53*
X302791Y553490D03*
D33*
X322603Y553490D03*
X71651Y553744D03*
D38*
X111148Y553744D03*
X121054Y553744D03*
D40*
X134770Y553744D03*
D38*
X148740Y553744D03*
D47*
X163472Y553744D03*
D40*
X178458Y553744D03*
D47*
X203096Y553744D03*
D50*
X222908Y553744D03*
X236624Y553744D03*
D38*
X247546Y553744D03*
D40*
X259484Y553744D03*
X275232Y553744D03*
D53*
X302791Y553744D03*
D33*
X322603Y553744D03*
X71651Y553998D03*
D38*
X111148Y553998D03*
X121054Y553998D03*
D40*
X134770Y553998D03*
D38*
X148740Y553998D03*
D47*
X163472Y553998D03*
D40*
X178458Y553998D03*
D47*
X203096Y553998D03*
D50*
X222908Y553998D03*
X236624Y553998D03*
D38*
X247546Y553998D03*
D40*
X259484Y553998D03*
X275232Y553998D03*
D53*
X302791Y553998D03*
D33*
X322603Y553998D03*
X71651Y554252D03*
D38*
X111148Y554252D03*
X121054Y554252D03*
D40*
X134770Y554252D03*
D38*
X148740Y554252D03*
D47*
X163472Y554252D03*
D40*
X178458Y554252D03*
D47*
X203096Y554252D03*
D50*
X222908Y554252D03*
X236624Y554252D03*
D38*
X247546Y554252D03*
D40*
X259484Y554252D03*
X275232Y554252D03*
D53*
X302791Y554252D03*
D33*
X322603Y554252D03*
X71651Y554506D03*
D38*
X111148Y554506D03*
X121054Y554506D03*
D40*
X134770Y554506D03*
D38*
X148740Y554506D03*
D47*
X163472Y554506D03*
D40*
X178458Y554506D03*
D47*
X203096Y554506D03*
D50*
X222908Y554506D03*
X236624Y554506D03*
D38*
X247546Y554506D03*
D40*
X259484Y554506D03*
X275232Y554506D03*
D53*
X302791Y554506D03*
D33*
X322603Y554506D03*
X71651Y554760D03*
D38*
X111148Y554760D03*
X121054Y554760D03*
D40*
X148740Y554760D03*
X204112Y554760D03*
D47*
X218844Y554760D03*
D42*
X231671Y554760D03*
D33*
X239545Y554760D03*
D38*
X247546Y554760D03*
D43*
X256436Y554760D03*
D38*
X265326Y554760D03*
D35*
X273200Y554760D03*
D38*
X281074Y554760D03*
D54*
X303807Y554760D03*
D33*
X322603Y554760D03*
X71651Y555014D03*
D38*
X111148Y555014D03*
X121054Y555014D03*
D40*
X148740Y555014D03*
X204112Y555014D03*
D47*
X218844Y555014D03*
D42*
X231671Y555014D03*
D33*
X239545Y555014D03*
D38*
X247546Y555014D03*
D43*
X256436Y555014D03*
D38*
X265326Y555014D03*
D35*
X273200Y555014D03*
D38*
X281074Y555014D03*
D54*
X303807Y555014D03*
D33*
X322603Y555014D03*
X71651Y555268D03*
D38*
X111148Y555268D03*
X121054Y555268D03*
D40*
X148740Y555268D03*
X204112Y555268D03*
D47*
X218844Y555268D03*
D42*
X231671Y555268D03*
D33*
X239545Y555268D03*
D38*
X247546Y555268D03*
D43*
X256436Y555268D03*
D38*
X265326Y555268D03*
D35*
X273200Y555268D03*
D38*
X281074Y555268D03*
D54*
X303807Y555268D03*
D33*
X322603Y555268D03*
X71651Y555522D03*
D38*
X111148Y555522D03*
X121054Y555522D03*
D40*
X148740Y555522D03*
X204112Y555522D03*
D47*
X218844Y555522D03*
D42*
X231671Y555522D03*
D33*
X239545Y555522D03*
D38*
X247546Y555522D03*
D43*
X256436Y555522D03*
D38*
X265326Y555522D03*
D35*
X273200Y555522D03*
D38*
X281074Y555522D03*
D54*
X303807Y555522D03*
D33*
X322603Y555522D03*
X71651Y555776D03*
D38*
X111148Y555776D03*
X121054Y555776D03*
D40*
X148740Y555776D03*
X204112Y555776D03*
D47*
X218844Y555776D03*
D42*
X231671Y555776D03*
D33*
X239545Y555776D03*
D38*
X247546Y555776D03*
D43*
X256436Y555776D03*
D38*
X265326Y555776D03*
D35*
X273200Y555776D03*
D38*
X281074Y555776D03*
D54*
X303807Y555776D03*
D33*
X322603Y555776D03*
X71651Y556030D03*
D38*
X111148Y556030D03*
X121054Y556030D03*
D40*
X148740Y556030D03*
X204112Y556030D03*
D47*
X218844Y556030D03*
D42*
X231671Y556030D03*
D33*
X239545Y556030D03*
D38*
X247546Y556030D03*
D43*
X256436Y556030D03*
D38*
X265326Y556030D03*
D35*
X273200Y556030D03*
D38*
X281074Y556030D03*
D54*
X303807Y556030D03*
D33*
X322603Y556030D03*
X71651Y556284D03*
D38*
X111148Y556284D03*
X121054Y556284D03*
D40*
X148740Y556284D03*
X204112Y556284D03*
D47*
X218844Y556284D03*
D42*
X231671Y556284D03*
D33*
X239545Y556284D03*
D38*
X247546Y556284D03*
D43*
X256436Y556284D03*
D38*
X265326Y556284D03*
D35*
X273200Y556284D03*
D38*
X281074Y556284D03*
D54*
X303807Y556284D03*
D33*
X322603Y556284D03*
X71651Y556538D03*
D38*
X111148Y556538D03*
X121054Y556538D03*
D40*
X148740Y556538D03*
X204112Y556538D03*
D47*
X218844Y556538D03*
D42*
X231671Y556538D03*
D33*
X239545Y556538D03*
D38*
X247546Y556538D03*
D43*
X256436Y556538D03*
D38*
X265326Y556538D03*
D35*
X273200Y556538D03*
D38*
X281074Y556538D03*
D54*
X303807Y556538D03*
D33*
X322603Y556538D03*
X71651Y556792D03*
D38*
X111148Y556792D03*
X121054Y556792D03*
X148740Y556792D03*
D40*
X204112Y556792D03*
D47*
X218844Y556792D03*
D42*
X231671Y556792D03*
D33*
X239545Y556792D03*
D38*
X247546Y556792D03*
D43*
X256436Y556792D03*
D38*
X265326Y556792D03*
D35*
X273200Y556792D03*
D38*
X281074Y556792D03*
D54*
X303807Y556792D03*
D33*
X322603Y556792D03*
X71651Y557046D03*
D38*
X111148Y557046D03*
X121054Y557046D03*
X148740Y557046D03*
D40*
X204112Y557046D03*
D47*
X218844Y557046D03*
D42*
X231671Y557046D03*
D33*
X239545Y557046D03*
D38*
X247546Y557046D03*
D43*
X256436Y557046D03*
D38*
X265326Y557046D03*
D35*
X273200Y557046D03*
D38*
X281074Y557046D03*
D54*
X303807Y557046D03*
D33*
X322603Y557046D03*
X71651Y557300D03*
D38*
X111148Y557300D03*
X121054Y557300D03*
X148740Y557300D03*
D40*
X204112Y557300D03*
D47*
X218844Y557300D03*
D42*
X231671Y557300D03*
D33*
X239545Y557300D03*
D38*
X247546Y557300D03*
D43*
X256436Y557300D03*
D38*
X265326Y557300D03*
D35*
X273200Y557300D03*
D38*
X281074Y557300D03*
D54*
X303807Y557300D03*
D33*
X322603Y557300D03*
X71651Y557554D03*
D38*
X111148Y557554D03*
X121054Y557554D03*
X148740Y557554D03*
D40*
X204112Y557554D03*
D47*
X218844Y557554D03*
D42*
X231671Y557554D03*
D33*
X239545Y557554D03*
D38*
X247546Y557554D03*
D43*
X256436Y557554D03*
D38*
X265326Y557554D03*
D35*
X273200Y557554D03*
D38*
X281074Y557554D03*
D54*
X303807Y557554D03*
D33*
X322603Y557554D03*
X71651Y557808D03*
D38*
X111148Y557808D03*
X121054Y557808D03*
X148740Y557808D03*
D40*
X204112Y557808D03*
D47*
X218844Y557808D03*
D42*
X231671Y557808D03*
D33*
X239545Y557808D03*
D38*
X247546Y557808D03*
D43*
X256436Y557808D03*
D38*
X265326Y557808D03*
D35*
X273200Y557808D03*
D38*
X281074Y557808D03*
D54*
X303807Y557808D03*
D33*
X322603Y557808D03*
X71651Y558062D03*
D38*
X111148Y558062D03*
X121054Y558062D03*
X148740Y558062D03*
D40*
X204112Y558062D03*
D47*
X218844Y558062D03*
D42*
X231671Y558062D03*
D33*
X239545Y558062D03*
D38*
X247546Y558062D03*
D43*
X256436Y558062D03*
D38*
X265326Y558062D03*
D35*
X273200Y558062D03*
D38*
X281074Y558062D03*
D54*
X303807Y558062D03*
D33*
X322603Y558062D03*
X71651Y558316D03*
D38*
X111148Y558316D03*
X121054Y558316D03*
X148740Y558316D03*
D40*
X204112Y558316D03*
D47*
X218844Y558316D03*
D42*
X231671Y558316D03*
D33*
X239545Y558316D03*
D38*
X247546Y558316D03*
D43*
X256436Y558316D03*
D38*
X265326Y558316D03*
D35*
X273200Y558316D03*
D38*
X281074Y558316D03*
D54*
X303807Y558316D03*
D33*
X322603Y558316D03*
X73683Y558570D03*
D48*
X115085Y558570D03*
D50*
X205128Y558570D03*
D42*
X223797Y558570D03*
D43*
X238656Y558570D03*
D50*
X256436Y558570D03*
D38*
X273200Y558570D03*
D55*
X301902Y558570D03*
D33*
X320571Y558570D03*
X73683Y558824D03*
D48*
X115085Y558824D03*
D50*
X205128Y558824D03*
D42*
X223797Y558824D03*
D43*
X238656Y558824D03*
D50*
X256436Y558824D03*
D38*
X273200Y558824D03*
D55*
X301902Y558824D03*
D33*
X320571Y558824D03*
X73683Y559078D03*
D48*
X115085Y559078D03*
D50*
X205128Y559078D03*
D42*
X223797Y559078D03*
D43*
X238656Y559078D03*
D50*
X256436Y559078D03*
D38*
X273200Y559078D03*
D55*
X301902Y559078D03*
D33*
X320571Y559078D03*
X73683Y559332D03*
D48*
X115085Y559332D03*
D50*
X205128Y559332D03*
D42*
X223797Y559332D03*
D43*
X238656Y559332D03*
D50*
X256436Y559332D03*
D38*
X273200Y559332D03*
D55*
X301902Y559332D03*
D33*
X320571Y559332D03*
X73683Y559586D03*
D48*
X115085Y559586D03*
D50*
X205128Y559586D03*
D42*
X223797Y559586D03*
D43*
X238656Y559586D03*
D50*
X256436Y559586D03*
D38*
X273200Y559586D03*
D55*
X301902Y559586D03*
D33*
X320571Y559586D03*
X73683Y559840D03*
D48*
X115085Y559840D03*
D50*
X205128Y559840D03*
D42*
X223797Y559840D03*
D43*
X238656Y559840D03*
D50*
X256436Y559840D03*
D38*
X273200Y559840D03*
D55*
X301902Y559840D03*
D33*
X320571Y559840D03*
X73683Y560094D03*
D48*
X115085Y560094D03*
D50*
X205128Y560094D03*
D42*
X223797Y560094D03*
D43*
X238656Y560094D03*
D50*
X256436Y560094D03*
D38*
X273200Y560094D03*
D55*
X301902Y560094D03*
D33*
X320571Y560094D03*
X73683Y560348D03*
D48*
X115085Y560348D03*
D50*
X205128Y560348D03*
D42*
X223797Y560348D03*
D43*
X238656Y560348D03*
D50*
X256436Y560348D03*
D38*
X273200Y560348D03*
D55*
X301902Y560348D03*
D33*
X320571Y560348D03*
X73683Y560602D03*
D56*
X259484Y560602D03*
D33*
X320571Y560602D03*
X73683Y560856D03*
D56*
X259484Y560856D03*
D33*
X320571Y560856D03*
X73683Y561110D03*
D56*
X259484Y561110D03*
D33*
X320571Y561110D03*
X73683Y561364D03*
D56*
X259484Y561364D03*
D33*
X320571Y561364D03*
X73683Y561618D03*
D56*
X259484Y561618D03*
D33*
X320571Y561618D03*
X73683Y561872D03*
D56*
X259484Y561872D03*
D33*
X320571Y561872D03*
X73683Y562126D03*
D56*
X259484Y562126D03*
D33*
X320571Y562126D03*
X73683Y562380D03*
D56*
X259484Y562380D03*
D33*
X320571Y562380D03*
D35*
X75588Y562634D03*
D57*
X259357Y562634D03*
D35*
X318666Y562634D03*
X75588Y562888D03*
D57*
X259357Y562888D03*
D35*
X318666Y562888D03*
X75588Y563142D03*
D57*
X259357Y563142D03*
D35*
X318666Y563142D03*
X75588Y563396D03*
D57*
X259357Y563396D03*
D35*
X318666Y563396D03*
X75588Y563650D03*
D57*
X259357Y563650D03*
D35*
X318666Y563650D03*
X75588Y563904D03*
D57*
X259357Y563904D03*
D35*
X318666Y563904D03*
X75588Y564158D03*
D57*
X259357Y564158D03*
D35*
X318666Y564158D03*
X75588Y564412D03*
D57*
X259357Y564412D03*
D35*
X318666Y564412D03*
D33*
X77493Y564666D03*
D58*
X257325Y564666D03*
D33*
X316761Y564666D03*
X77493Y564920D03*
D58*
X257325Y564920D03*
D33*
X316761Y564920D03*
X77493Y565174D03*
D58*
X257325Y565174D03*
D33*
X316761Y565174D03*
X77493Y565428D03*
D58*
X257325Y565428D03*
D33*
X316761Y565428D03*
X77493Y565682D03*
D58*
X257325Y565682D03*
D33*
X316761Y565682D03*
X77493Y565936D03*
D58*
X257325Y565936D03*
D33*
X316761Y565936D03*
X77493Y566190D03*
D58*
X257325Y566190D03*
D33*
X316761Y566190D03*
D32*
X80541Y566444D03*
X313713Y566444D03*
X80541Y566698D03*
X313713Y566698D03*
X80541Y566952D03*
X313713Y566952D03*
X80541Y567206D03*
X313713Y567206D03*
X80541Y567460D03*
X313713Y567460D03*
X80541Y567714D03*
X313713Y567714D03*
X80541Y567968D03*
X313713Y567968D03*
X80541Y568222D03*
X313713Y568222D03*
D31*
X197127Y568476D03*
X197127Y568730D03*
X197127Y568984D03*
X197127Y569238D03*
X197127Y569492D03*
X197127Y569746D03*
X197127Y570000D03*
X197127Y570254D03*
D16*
X56000Y1095750D02*
X659000Y1095750D01*
X659000Y584250D02*
X56000Y584250D01*
X93500Y1062250D02*
X621500Y1062250D01*
X621500Y666250D02*
X93500Y666250D01*
X56000Y584250D02*
X56000Y1095750D01*
X659000Y1095750D02*
X659000Y584250D01*
X621500Y666250D02*
X621500Y1062250D01*
X93500Y1062250D02*
X93500Y666250D01*
X242500Y964050D02*
X472500Y964050D01*
X472500Y929050D02*
X242500Y929050D01*
D11*
X233200Y924600D02*
X230200Y924600D01*
X233200Y924600D02*
X233200Y921600D01*
X230200Y921600D01*
X230200Y914600D01*
X484200Y914600D02*
X484200Y921600D01*
X481200Y921600D01*
X481200Y924600D01*
X484200Y924600D01*
X481200Y924600D02*
X233200Y924600D01*
X230200Y914600D02*
X484200Y914600D01*
X230200Y958600D02*
X230200Y968600D01*
X242200Y968600D01*
X484200Y968600D02*
X484200Y958600D01*
X484200Y968600D02*
X472200Y968600D01*
X230200Y928600D02*
X230200Y924600D01*
X484200Y924600D02*
X484200Y928600D01*
D16*
X326436Y1091641D02*
X326436Y1095395D01*
X326436Y1091641D02*
X326434Y1091576D01*
X326428Y1091512D01*
X326418Y1091448D01*
X326405Y1091384D01*
X326387Y1091322D01*
X326366Y1091261D01*
X326342Y1091201D01*
X326313Y1091143D01*
X326281Y1091086D01*
X326246Y1091032D01*
X326208Y1090980D01*
X326166Y1090930D01*
X326122Y1090883D01*
X326075Y1090839D01*
X326025Y1090797D01*
X325973Y1090759D01*
X325919Y1090724D01*
X325862Y1090692D01*
X325804Y1090663D01*
X325744Y1090639D01*
X325683Y1090618D01*
X325621Y1090600D01*
X325557Y1090587D01*
X325493Y1090577D01*
X325429Y1090571D01*
X325364Y1090569D01*
X324827Y1090569D01*
X329384Y1091641D02*
X330456Y1095395D01*
X329384Y1091641D02*
X332065Y1091641D01*
X331261Y1092714D02*
X331261Y1090569D01*
M02*
