G04 EAGLE Gerber RS-274X export*
G75*
%MOMM*%
%FSLAX34Y34*%
%LPD*%
%INBottom Solder Mask*%
%IPPOS*%
%AMOC8*
5,1,8,0,0,1.08239X$1,22.5*%
G01*
%ADD10R,1.001600X1.001600*%
%ADD11R,0.801600X1.601600*%
%ADD12R,1.101600X0.901600*%
%ADD13C,1.001600*%
%ADD14R,0.651600X1.301600*%
%ADD15R,1.301600X0.651600*%
%ADD16R,1.501600X1.501600*%
%ADD17R,0.736600X1.117600*%
%ADD18C,1.501600*%
%ADD19R,0.901600X1.001600*%
%ADD20R,1.101600X1.401600*%
%ADD21R,1.101600X1.301600*%
%ADD22C,1.901600*%
%ADD23R,4.601600X1.101600*%
%ADD24R,2.501600X2.501600*%
%ADD25R,1.101600X4.701600*%
%ADD26R,1.701600X3.501600*%
%ADD27R,2.301600X0.701600*%
%ADD28C,1.981200*%
%ADD29R,2.251600X1.901600*%
%ADD30C,2.438400*%
%ADD31C,1.301600*%
%ADD32R,1.801600X1.001600*%
%ADD33R,4.601600X4.601600*%
%ADD34C,2.701600*%
%ADD35C,3.901600*%
%ADD36C,2.301600*%
%ADD37C,3.601600*%
%ADD38R,1.251600X0.701600*%
%ADD39R,1.251600X0.401600*%
%ADD40R,2.101600X2.281600*%
%ADD41C,0.751600*%
%ADD42C,0.808000*%
%ADD43C,1.117600*%


D10*
X62500Y1005000D03*
X77500Y1005000D03*
D11*
X87500Y1107500D03*
X117500Y1107500D03*
D12*
X68500Y1119000D03*
X68500Y1141000D03*
X151500Y1141000D03*
X151500Y1119000D03*
D11*
X132500Y1107500D03*
D13*
X95000Y1130000D03*
X125000Y1130000D03*
D14*
X150500Y973001D03*
X160000Y973001D03*
X169500Y973001D03*
X169500Y946999D03*
X150500Y946999D03*
D10*
X200000Y995000D03*
X200000Y1010000D03*
X130000Y967500D03*
X130000Y952500D03*
X177500Y1062500D03*
X162500Y1062500D03*
X265000Y975000D03*
X250000Y975000D03*
X265000Y995000D03*
X250000Y995000D03*
D15*
X244499Y1030500D03*
X244499Y1040000D03*
X244499Y1049500D03*
X270501Y1049500D03*
X270501Y1030500D03*
D16*
X151500Y1037500D03*
X188500Y1037500D03*
D10*
X212500Y1067500D03*
X227500Y1067500D03*
D17*
X160000Y1015000D03*
X179000Y1015000D03*
X169500Y995000D03*
D10*
X125000Y1055000D03*
X125000Y1040000D03*
D18*
X35000Y969600D03*
X35000Y995000D03*
X35000Y1020400D03*
D19*
X490650Y607500D03*
X471650Y607500D03*
X481150Y628500D03*
X388350Y607500D03*
X369350Y607500D03*
X378850Y628500D03*
D10*
X437500Y630000D03*
X422500Y630000D03*
X422500Y613650D03*
X437500Y613650D03*
X552500Y627500D03*
X567500Y627500D03*
D20*
X533000Y639800D03*
X533000Y595200D03*
X517000Y595200D03*
D21*
X517000Y639800D03*
D20*
X327000Y595200D03*
X327000Y639800D03*
X343000Y639800D03*
D21*
X343000Y595200D03*
D22*
X97500Y1055000D03*
X565000Y1110000D03*
X620000Y1110000D03*
X170000Y885000D03*
X97500Y1025000D03*
X545000Y205000D03*
X517000Y670000D03*
X343000Y670000D03*
D23*
X567500Y850000D03*
X567500Y870000D03*
X567500Y890000D03*
X567500Y910000D03*
X567500Y930000D03*
D24*
X680000Y840000D03*
X680000Y940000D03*
D10*
X77500Y985000D03*
X62500Y985000D03*
D25*
X628000Y205000D03*
X608000Y205000D03*
D26*
X652000Y257000D03*
X584000Y257000D03*
D10*
X127500Y17500D03*
X112500Y17500D03*
X347500Y147500D03*
X347500Y162500D03*
X210000Y537500D03*
X210000Y522500D03*
X250000Y537500D03*
X250000Y522500D03*
X190000Y537500D03*
X190000Y522500D03*
X230000Y537500D03*
X230000Y522500D03*
D27*
X94000Y45950D03*
X94000Y58650D03*
X94000Y71350D03*
X94000Y84050D03*
X146000Y84050D03*
X146000Y71350D03*
X146000Y58650D03*
X146000Y45950D03*
D10*
X57500Y70000D03*
X42500Y70000D03*
X212500Y58650D03*
X227500Y58650D03*
X57500Y45950D03*
X42500Y45950D03*
D28*
X482500Y75000D03*
X482500Y49600D03*
D29*
X205250Y90000D03*
X234750Y90000D03*
D10*
X130000Y112500D03*
X130000Y127500D03*
X482500Y117500D03*
X482500Y102500D03*
D30*
X391000Y40000D03*
X340000Y90000D03*
X442000Y90000D03*
X416000Y90000D03*
X366000Y90000D03*
D31*
X341000Y40000D03*
X341000Y15000D03*
X441000Y15000D03*
X441000Y40000D03*
X391000Y90000D03*
D23*
X122500Y790000D03*
X122500Y770000D03*
X122500Y750000D03*
X122500Y730000D03*
X122500Y710000D03*
D24*
X10000Y800000D03*
X10000Y700000D03*
D32*
X340000Y824000D03*
X520000Y824000D03*
X520000Y1027200D03*
X520000Y1052600D03*
D33*
X443800Y974700D03*
D32*
X340000Y1052600D03*
X520000Y874800D03*
X340000Y887500D03*
X340000Y874800D03*
X340000Y900200D03*
X340000Y938300D03*
X520000Y887500D03*
X520000Y862100D03*
X520000Y900200D03*
X340000Y862100D03*
X340000Y951000D03*
X340000Y963700D03*
X340000Y989100D03*
X340000Y1027200D03*
X340000Y1039900D03*
X520000Y938300D03*
X520000Y925600D03*
X520000Y912900D03*
X520000Y963700D03*
X520000Y951000D03*
X520000Y989100D03*
X520000Y976400D03*
X340000Y976400D03*
X340000Y912900D03*
X340000Y925600D03*
X340000Y1001800D03*
X340000Y836700D03*
X340000Y849400D03*
X520000Y849400D03*
X520000Y836700D03*
X520000Y1001800D03*
X520000Y1014500D03*
X340000Y1014500D03*
X520000Y1039900D03*
D10*
X567500Y610000D03*
X552500Y610000D03*
D22*
X70000Y650000D03*
X570000Y820000D03*
D10*
X555000Y505500D03*
X555000Y490500D03*
X575000Y490500D03*
X575000Y505500D03*
X595000Y490500D03*
X595000Y505500D03*
D34*
X676000Y1078000D03*
X21500Y1068000D03*
X19000Y638000D03*
X676000Y638000D03*
X671000Y291500D03*
D35*
X566000Y311000D03*
D36*
X536000Y411000D03*
D34*
X291000Y336000D03*
D36*
X237000Y272000D03*
D34*
X227000Y224000D03*
X20500Y235000D03*
D37*
X466000Y224000D03*
D38*
X60750Y851000D03*
X60750Y859000D03*
X60750Y907000D03*
X60750Y915000D03*
D39*
X60750Y865500D03*
X60750Y900500D03*
X60750Y870500D03*
X60750Y895500D03*
X60750Y875500D03*
X60750Y890500D03*
X60750Y880500D03*
X60750Y885500D03*
D40*
X55000Y831900D03*
X55000Y934100D03*
X15700Y831900D03*
X15700Y934100D03*
D41*
X50000Y854100D03*
X50000Y911900D03*
D28*
X320000Y1110000D03*
X294600Y1110000D03*
X269200Y1110000D03*
X243800Y1110000D03*
X218400Y1110000D03*
X193000Y1110000D03*
D10*
X127500Y895500D03*
X112500Y895500D03*
X127500Y875500D03*
X112500Y875500D03*
D42*
X555000Y695000D03*
X472500Y515000D03*
X662500Y455000D03*
X212500Y140000D03*
X120000Y65000D03*
X65000Y95000D03*
X107500Y915000D03*
X285000Y1030500D03*
D43*
X86000Y34000D03*
D42*
X470000Y1040000D03*
X122500Y210000D03*
X86000Y127500D03*
X390000Y1000000D03*
X430000Y700000D03*
X285000Y1080000D03*
X370000Y940000D03*
X397200Y951000D03*
D43*
X160000Y175000D03*
D42*
X410000Y540000D03*
X500000Y750000D03*
D43*
X150000Y185000D03*
D42*
X400000Y550000D03*
X490000Y780000D03*
X370000Y1000000D03*
D43*
X180000Y155000D03*
D42*
X430000Y520000D03*
X480000Y1020000D03*
X420000Y1030000D03*
D43*
X170000Y165000D03*
D42*
X420000Y530000D03*
X55000Y195000D03*
X135000Y195000D03*
X390000Y560000D03*
X480000Y880000D03*
X540000Y760000D03*
X555000Y963700D03*
X555000Y950000D03*
X200000Y490000D03*
X395000Y795000D03*
X470000Y870000D03*
X240000Y505000D03*
X405000Y785000D03*
X460000Y840000D03*
X350000Y195000D03*
X540000Y990000D03*
X125000Y1000000D03*
X125000Y930000D03*
X430000Y680000D03*
X400000Y590000D03*
X445000Y490000D03*
X150000Y995000D03*
X100000Y1090000D03*
X132500Y1090000D03*
X600000Y890000D03*
X310000Y1080000D03*
X560000Y1060000D03*
X210000Y495000D03*
X250000Y495000D03*
X590000Y1010000D03*
X630000Y970000D03*
M02*
